Bungee_Layers_Rotated-Regular.ufo
<glyph name="exclam" format="1">
  <advance width="830"/>
  <unicode hex="0021"/>
  <outline>
    <contour>
      <point x="513.0" y="438" type="line" smooth="yes"/>
      <point x="513.0" y="463"/>
      <point x="502.0" y="475"/>
      <point x="477.0" y="476" type="curve" smooth="yes"/>
      <point x="91.0" y="490" type="line" smooth="yes"/>
      <point x="66.0" y="491"/>
      <point x="55.0" y="481"/>
      <point x="55.0" y="456" type="curve" smooth="yes"/>
      <point x="55.0" y="265" type="line" smooth="yes"/>
      <point x="55.0" y="240"/>
      <point x="66.0" y="230"/>
      <point x="91.0" y="231" type="curve" smooth="yes"/>
      <point x="477.0" y="246" type="line" smooth="yes"/>
      <point x="502.0" y="247"/>
      <point x="513.0" y="258"/>
      <point x="513.0" y="283" type="curve" smooth="yes"/>
    </contour>
    <contour>
      <point x="775.0" y="453" type="line" smooth="yes"/>
      <point x="775.0" y="478"/>
      <point x="764.0" y="489"/>
      <point x="739.0" y="489" type="curve" smooth="yes"/>
      <point x="608.0" y="489" type="line" smooth="yes"/>
      <point x="582.0" y="489"/>
      <point x="572.0" y="478"/>
      <point x="572.0" y="453" type="curve" smooth="yes"/>
      <point x="572.0" y="269" type="line" smooth="yes"/>
      <point x="572.0" y="244"/>
      <point x="582.0" y="233"/>
      <point x="608.0" y="233" type="curve"/>
      <point x="739.0" y="233" type="line"/>
      <point x="764.0" y="233"/>
      <point x="775.0" y="244"/>
      <point x="775.0" y="269" type="curve" smooth="yes"/>
    </contour>
  </outline>
</glyph>
<glyph name="numbersign" format="1">
  <advance width="880"/>
  <unicode hex="0023"/>
  <outline>
    <contour>
      <point x="486.0" y="297" type="line"/>
      <point x="389.0" y="311" type="line"/>
      <point x="389.0" y="424" type="line"/>
      <point x="486.0" y="410" type="line"/>
    </contour>
    <contour>
      <point x="665.0" y="56" type="curve"/>
      <point x="665.0" y="94" type="line"/>
      <point x="764.0" y="80" type="line"/>
      <point x="789.0" y="77"/>
      <point x="800.0" y="91"/>
      <point x="800.0" y="116" type="curve" smooth="yes"/>
      <point x="800.0" y="221" type="line" smooth="yes"/>
      <point x="800.0" y="246"/>
      <point x="789.0" y="254"/>
      <point x="764.0" y="257" type="curve" smooth="yes"/>
      <point x="665.0" y="271" type="line"/>
      <point x="665.0" y="384" type="line"/>
      <point x="764.0" y="370" type="line" smooth="yes"/>
      <point x="789.0" y="367"/>
      <point x="800.0" y="381"/>
      <point x="800.0" y="406" type="curve" smooth="yes"/>
      <point x="800.0" y="511" type="line" smooth="yes"/>
      <point x="800.0" y="536"/>
      <point x="789.0" y="544"/>
      <point x="764.0" y="547" type="curve" smooth="yes"/>
      <point x="665.0" y="561" type="line"/>
      <point x="665.0" y="628" type="line" smooth="yes"/>
      <point x="665.0" y="653"/>
      <point x="655.0" y="664"/>
      <point x="629.0" y="664" type="curve" smooth="yes"/>
      <point x="522.0" y="664" type="line" smooth="yes"/>
      <point x="496.0" y="664"/>
      <point x="486.0" y="653"/>
      <point x="486.0" y="628" type="curve" smooth="yes"/>
      <point x="486.0" y="587" type="line"/>
      <point x="389.0" y="601" type="line"/>
      <point x="389.0" y="664" type="line" smooth="yes"/>
      <point x="389.0" y="689"/>
      <point x="379.0" y="700"/>
      <point x="353.0" y="700" type="curve" smooth="yes"/>
      <point x="246.0" y="700" type="line" smooth="yes"/>
      <point x="220.0" y="700"/>
      <point x="210.0" y="689"/>
      <point x="210.0" y="664" type="curve" smooth="yes"/>
      <point x="210.0" y="627" type="line"/>
      <point x="116.0" y="640" type="line" smooth="yes"/>
      <point x="91.0" y="643"/>
      <point x="80.0" y="629"/>
      <point x="80.0" y="604" type="curve" smooth="yes"/>
      <point x="80.0" y="499" type="line" smooth="yes"/>
      <point x="80.0" y="474"/>
      <point x="91.0" y="466"/>
      <point x="116.0" y="463" type="curve" smooth="yes"/>
      <point x="210.0" y="450" type="line"/>
      <point x="210.0" y="337" type="line"/>
      <point x="116.0" y="350" type="line" smooth="yes"/>
      <point x="91.0" y="353"/>
      <point x="80.0" y="339"/>
      <point x="80.0" y="314" type="curve" smooth="yes"/>
      <point x="80.0" y="209" type="line" smooth="yes"/>
      <point x="80.0" y="184"/>
      <point x="91.0" y="176"/>
      <point x="116.0" y="173" type="curve" smooth="yes"/>
      <point x="210.0" y="160" type="line"/>
      <point x="210.0" y="92" type="line" smooth="yes"/>
      <point x="210.0" y="67"/>
      <point x="221.0" y="56"/>
      <point x="246.0" y="56" type="curve" smooth="yes"/>
      <point x="353.0" y="56" type="line" smooth="yes"/>
      <point x="379.0" y="56"/>
      <point x="389.0" y="67"/>
      <point x="389.0" y="92" type="curve"/>
      <point x="389.0" y="134" type="line"/>
      <point x="486.0" y="120" type="line"/>
      <point x="486.0" y="56" type="line" smooth="yes"/>
      <point x="486.0" y="31"/>
      <point x="497.0" y="20"/>
      <point x="522.0" y="20" type="curve" smooth="yes"/>
      <point x="629.0" y="20" type="line" smooth="yes"/>
      <point x="655.0" y="20"/>
      <point x="665.0" y="31"/>
    </contour>
  </outline>
</glyph>
<glyph name="dollar" format="1">
  <advance width="1010"/>
  <unicode hex="0024"/>
  <outline>
    <contour>
      <point x="592.0" y="241" type="curve" smooth="yes"/>
      <point x="613.0" y="391" type="line" smooth="yes"/>
      <point x="615.0" y="408"/>
      <point x="624.0" y="417"/>
      <point x="647.0" y="417" type="curve" smooth="yes"/>
      <point x="663.0" y="417"/>
      <point x="676.0" y="408"/>
      <point x="676.0" y="391" type="curve" smooth="yes"/>
      <point x="676.0" y="122" type="line" smooth="yes"/>
      <point x="676.0" y="97"/>
      <point x="687.0" y="86"/>
      <point x="712.0" y="86" type="curve" smooth="yes"/>
      <point x="829.0" y="86" type="line" smooth="yes"/>
      <point x="854.0" y="86"/>
      <point x="865.0" y="97"/>
      <point x="865.0" y="122" type="curve" smooth="yes"/>
      <point x="865.0" y="259" type="line"/>
      <point x="919.0" y="259" type="line" smooth="yes"/>
      <point x="944.0" y="259"/>
      <point x="955.0" y="270"/>
      <point x="955.0" y="295" type="curve" smooth="yes"/>
      <point x="955.0" y="440" type="line" smooth="yes"/>
      <point x="955.0" y="465"/>
      <point x="944.0" y="476"/>
      <point x="919.0" y="476" type="curve" smooth="yes"/>
      <point x="863.0" y="476" type="line"/>
      <point x="852.0" y="582"/>
      <point x="791.0" y="645"/>
      <point x="689.0" y="645" type="curve" smooth="yes"/>
      <point x="584.0" y="645" type="line" smooth="yes"/>
      <point x="472.0" y="645"/>
      <point x="432.0" y="583"/>
      <point x="418.0" y="489" type="curve" smooth="yes"/>
      <point x="398.0" y="340" type="line" smooth="yes"/>
      <point x="396.0" y="323"/>
      <point x="384.0" y="313"/>
      <point x="366.0" y="313" type="curve" smooth="yes"/>
      <point x="348.0" y="313"/>
      <point x="336.0" y="323"/>
      <point x="336.0" y="340" type="curve" smooth="yes"/>
      <point x="336.0" y="573" type="line" smooth="yes"/>
      <point x="336.0" y="598"/>
      <point x="325.0" y="609"/>
      <point x="300.0" y="609" type="curve" smooth="yes"/>
      <point x="181.0" y="609" type="line" smooth="yes"/>
      <point x="156.0" y="609"/>
      <point x="145.0" y="598"/>
      <point x="145.0" y="573" type="curve" smooth="yes"/>
      <point x="145.0" y="476" type="line"/>
      <point x="91.0" y="476" type="line" smooth="yes"/>
      <point x="66.0" y="476"/>
      <point x="55.0" y="465"/>
      <point x="55.0" y="440" type="curve" smooth="yes"/>
      <point x="55.0" y="295" type="line" smooth="yes"/>
      <point x="55.0" y="270"/>
      <point x="66.0" y="259"/>
      <point x="91.0" y="259" type="curve" smooth="yes"/>
      <point x="147.0" y="259" type="line"/>
      <point x="157.0" y="150"/>
      <point x="217.0" y="86"/>
      <point x="321.0" y="86" type="curve" smooth="yes"/>
      <point x="426.0" y="86" type="line" smooth="yes"/>
      <point x="538.0" y="86"/>
      <point x="578.0" y="147"/>
    </contour>
  </outline>
</glyph>
<glyph name="percent" format="1">
  <advance width="890"/>
  <unicode hex="0025"/>
  <outline>
    <contour>
      <point x="660.0" y="490" type="curve"/>
      <point x="582.0" y="490" type="line" smooth="yes"/>
      <point x="574.0" y="490"/>
      <point x="565.0" y="493"/>
      <point x="565.0" y="514" type="curve" smooth="yes"/>
      <point x="565.0" y="534"/>
      <point x="574.0" y="537"/>
      <point x="582.0" y="537" type="curve" smooth="yes"/>
      <point x="660.0" y="537" type="line" smooth="yes"/>
      <point x="670.0" y="537"/>
      <point x="678.0" y="534"/>
      <point x="678.0" y="514" type="curve" smooth="yes"/>
      <point x="678.0" y="494"/>
      <point x="670.0" y="490"/>
    </contour>
    <contour>
      <point x="458.0" y="207" type="curve" smooth="yes"/>
      <point x="458.0" y="234"/>
      <point x="456.0" y="258"/>
      <point x="452.0" y="277" type="curve"/>
      <point x="769.0" y="66" type="line" smooth="yes"/>
      <point x="790.0" y="52"/>
      <point x="805.0" y="62"/>
      <point x="805.0" y="87" type="curve" smooth="yes"/>
      <point x="805.0" y="172" type="line" smooth="yes"/>
      <point x="805.0" y="197"/>
      <point x="790.0" y="209"/>
      <point x="769.0" y="223" type="curve" smooth="yes"/>
      <point x="586.0" y="345" type="line"/>
      <point x="691.0" y="345" type="line" smooth="yes"/>
      <point x="762.0" y="345"/>
      <point x="810.0" y="379"/>
      <point x="810.0" y="514" type="curve" smooth="yes"/>
      <point x="810.0" y="663"/>
      <point x="762.0" y="681"/>
      <point x="691.0" y="681" type="curve"/>
      <point x="551.0" y="681" type="line" smooth="yes"/>
      <point x="480.0" y="681"/>
      <point x="432.0" y="649"/>
      <point x="432.0" y="514" type="curve" smooth="yes"/>
      <point x="432.0" y="487"/>
      <point x="434.0" y="463"/>
      <point x="438.0" y="444" type="curve"/>
      <point x="121.0" y="655" type="line" smooth="yes"/>
      <point x="100.0" y="669"/>
      <point x="85.0" y="659"/>
      <point x="85.0" y="634" type="curve" smooth="yes"/>
      <point x="85.0" y="549" type="line" smooth="yes"/>
      <point x="85.0" y="524"/>
      <point x="100.0" y="512"/>
      <point x="121.0" y="498" type="curve" smooth="yes"/>
      <point x="307.0" y="374" type="line"/>
      <point x="199.0" y="374" type="line" smooth="yes"/>
      <point x="128.0" y="374"/>
      <point x="80.0" y="342"/>
      <point x="80.0" y="207" type="curve" smooth="yes"/>
      <point x="80.0" y="72"/>
      <point x="128.0" y="38"/>
      <point x="199.0" y="38" type="curve" smooth="yes"/>
      <point x="339.0" y="38" type="line" smooth="yes"/>
      <point x="410.0" y="38"/>
      <point x="458.0" y="72"/>
    </contour>
    <contour>
      <point x="308.0" y="183" type="curve"/>
      <point x="230.0" y="183" type="line" smooth="yes"/>
      <point x="222.0" y="183"/>
      <point x="213.0" y="186"/>
      <point x="213.0" y="207" type="curve" smooth="yes"/>
      <point x="213.0" y="227"/>
      <point x="222.0" y="230"/>
      <point x="230.0" y="230" type="curve" smooth="yes"/>
      <point x="308.0" y="230" type="line" smooth="yes"/>
      <point x="318.0" y="230"/>
      <point x="326.0" y="227"/>
      <point x="326.0" y="207" type="curve" smooth="yes"/>
      <point x="326.0" y="187"/>
      <point x="318.0" y="183"/>
    </contour>
  </outline>
</glyph>
<glyph name="quotesingle" format="1">
  <advance width="519"/>
  <unicode hex="0027"/>
  <unicode hex="FF07"/>
  <outline>
    <contour>
      <point x="447.0" y="433" type="line" smooth="yes"/>
      <point x="447.0" y="468"/>
      <point x="441.0" y="473"/>
      <point x="406.0" y="475" type="curve" smooth="yes"/>
      <point x="113.0" y="483" type="line" smooth="yes"/>
      <point x="78.0" y="484"/>
      <point x="72.0" y="478"/>
      <point x="72.0" y="444" type="curve" smooth="yes"/>
      <point x="72.0" y="279" type="line" smooth="yes"/>
      <point x="72.0" y="244"/>
      <point x="78.0" y="238"/>
      <point x="113.0" y="239" type="curve" smooth="yes"/>
      <point x="406.0" y="247" type="line" smooth="yes"/>
      <point x="441.0" y="248"/>
      <point x="447.0" y="254"/>
      <point x="447.0" y="289" type="curve" smooth="yes"/>
    </contour>
  </outline>
</glyph>
<glyph name="parenleft" format="1">
  <advance width="429"/>
  <unicode hex="0028"/>
  <outline>
    <contour>
      <point x="294.0" y="801" type="line" smooth="yes"/>
      <point x="105.0" y="801"/>
      <point x="48.0" y="718"/>
      <point x="48.0" y="597" type="curve" smooth="yes"/>
      <point x="48.0" y="126" type="line" smooth="yes"/>
      <point x="48.0" y="4"/>
      <point x="105.0" y="-80"/>
      <point x="294.0" y="-80" type="curve" smooth="yes"/>
      <point x="348.0" y="-80" type="line" smooth="yes"/>
      <point x="373.0" y="-80"/>
      <point x="384.0" y="-69"/>
      <point x="384.0" y="-44" type="curve" smooth="yes"/>
      <point x="384.0" y="78" type="line" smooth="yes"/>
      <point x="384.0" y="103"/>
      <point x="373.0" y="114"/>
      <point x="348.0" y="114" type="curve" smooth="yes"/>
      <point x="317.0" y="114" type="line" smooth="yes"/>
      <point x="285.0" y="114"/>
      <point x="276.0" y="129"/>
      <point x="276.0" y="164" type="curve" smooth="yes"/>
      <point x="276.0" y="560" type="line"/>
      <point x="276.0" y="595"/>
      <point x="285.0" y="610"/>
      <point x="317.0" y="610" type="curve" smooth="yes"/>
      <point x="348.0" y="610" type="line" smooth="yes"/>
      <point x="373.0" y="610"/>
      <point x="384.0" y="621"/>
      <point x="384.0" y="646" type="curve" smooth="yes"/>
      <point x="384.0" y="765" type="line" smooth="yes"/>
      <point x="384.0" y="790"/>
      <point x="373.0" y="801"/>
      <point x="348.0" y="801" type="curve" smooth="yes"/>
    </contour>
  </outline>
</glyph>
<glyph name="parenright" format="1">
  <advance width="429"/>
  <unicode hex="0029"/>
  <outline>
    <contour>
      <point x="81.0" y="801" type="line" smooth="yes"/>
      <point x="56.0" y="801"/>
      <point x="45.0" y="790"/>
      <point x="45.0" y="765" type="curve" smooth="yes"/>
      <point x="45.0" y="646" type="line" smooth="yes"/>
      <point x="45.0" y="621"/>
      <point x="56.0" y="610"/>
      <point x="81.0" y="610" type="curve" smooth="yes"/>
      <point x="112.0" y="610" type="line" smooth="yes"/>
      <point x="144.0" y="610"/>
      <point x="153.0" y="595"/>
      <point x="153.0" y="560" type="curve"/>
      <point x="153.0" y="164" type="line" smooth="yes"/>
      <point x="153.0" y="129"/>
      <point x="144.0" y="114"/>
      <point x="112.0" y="114" type="curve" smooth="yes"/>
      <point x="81.0" y="114" type="line" smooth="yes"/>
      <point x="56.0" y="114"/>
      <point x="45.0" y="103"/>
      <point x="45.0" y="78" type="curve" smooth="yes"/>
      <point x="45.0" y="-44" type="line" smooth="yes"/>
      <point x="45.0" y="-69"/>
      <point x="56.0" y="-80"/>
      <point x="81.0" y="-80" type="curve" smooth="yes"/>
      <point x="135.0" y="-80" type="line" smooth="yes"/>
      <point x="324.0" y="-80"/>
      <point x="381.0" y="4"/>
      <point x="381.0" y="126" type="curve" smooth="yes"/>
      <point x="381.0" y="597" type="line" smooth="yes"/>
      <point x="381.0" y="718"/>
      <point x="324.0" y="801"/>
      <point x="135.0" y="801" type="curve" smooth="yes"/>
    </contour>
  </outline>
</glyph>
<glyph name="asterisk" format="1">
  <advance width="742"/>
  <unicode hex="002A"/>
  <unicode hex="FF0A"/>
  <outline>
    <contour>
      <point x="635.0" y="288" type="curve" smooth="yes"/>
      <point x="494.0" y="361" type="line"/>
      <point x="635.0" y="435" type="line" smooth="yes"/>
      <point x="663.0" y="451"/>
      <point x="666.0" y="458"/>
      <point x="647.0" y="487" type="curve" smooth="yes"/>
      <point x="579.0" y="581" type="line" smooth="yes"/>
      <point x="559.0" y="609"/>
      <point x="550.0" y="610"/>
      <point x="525.0" y="587" type="curve" smooth="yes"/>
      <point x="410.0" y="477" type="line"/>
      <point x="385.0" y="630" type="line" smooth="yes"/>
      <point x="379.0" y="664"/>
      <point x="372.0" y="669"/>
      <point x="339.0" y="658" type="curve" smooth="yes"/>
      <point x="228.0" y="621" type="line" smooth="yes"/>
      <point x="195.0" y="610"/>
      <point x="191.0" y="602"/>
      <point x="206.0" y="572" type="curve" smooth="yes"/>
      <point x="270.0" y="435" type="line"/>
      <point x="121.0" y="455" type="line" smooth="yes"/>
      <point x="87.0" y="461"/>
      <point x="80.0" y="455"/>
      <point x="80.0" y="421" type="curve" smooth="yes"/>
      <point x="80.0" y="304" type="line" smooth="yes"/>
      <point x="80.0" y="270"/>
      <point x="87.0" y="263"/>
      <point x="121.0" y="268" type="curve" smooth="yes"/>
      <point x="270.0" y="291" type="line"/>
      <point x="206.0" y="149" type="line" smooth="yes"/>
      <point x="191.0" y="119"/>
      <point x="195.0" y="110"/>
      <point x="228.0" y="100" type="curve" smooth="yes"/>
      <point x="339.0" y="64" type="line" smooth="yes"/>
      <point x="372.0" y="53"/>
      <point x="379.0" y="58"/>
      <point x="385.0" y="92" type="curve" smooth="yes"/>
      <point x="410.0" y="244" type="line"/>
      <point x="525.0" y="135" type="line" smooth="yes"/>
      <point x="550.0" y="112"/>
      <point x="559.0" y="113"/>
      <point x="579.0" y="141" type="curve" smooth="yes"/>
      <point x="647.0" y="235" type="line"/>
      <point x="666.0" y="264"/>
      <point x="663.0" y="272"/>
    </contour>
  </outline>
</glyph>
<glyph name="plus" format="1">
  <advance width="718"/>
  <unicode hex="002B"/>
  <outline>
    <contour>
      <point x="452.0" y="99" type="curve"/>
      <point x="452.0" y="262" type="line"/>
      <point x="620.0" y="262" type="line" smooth="yes"/>
      <point x="645.0" y="262"/>
      <point x="656.0" y="272"/>
      <point x="656.0" y="298" type="curve" smooth="yes"/>
      <point x="656.0" y="422" type="line" smooth="yes"/>
      <point x="656.0" y="448"/>
      <point x="645.0" y="458"/>
      <point x="620.0" y="458" type="curve" smooth="yes"/>
      <point x="452.0" y="458" type="line"/>
      <point x="452.0" y="621" type="line" smooth="yes"/>
      <point x="452.0" y="646"/>
      <point x="442.0" y="657"/>
      <point x="416.0" y="657" type="curve" smooth="yes"/>
      <point x="302.0" y="657" type="line" smooth="yes"/>
      <point x="276.0" y="657"/>
      <point x="266.0" y="646"/>
      <point x="266.0" y="621" type="curve" smooth="yes"/>
      <point x="266.0" y="458" type="line"/>
      <point x="98.0" y="458" type="line" smooth="yes"/>
      <point x="73.0" y="458"/>
      <point x="62.0" y="447"/>
      <point x="62.0" y="422" type="curve" smooth="yes"/>
      <point x="62.0" y="298" type="line" smooth="yes"/>
      <point x="62.0" y="272"/>
      <point x="73.0" y="262"/>
      <point x="98.0" y="262" type="curve"/>
      <point x="266.0" y="262" type="line"/>
      <point x="266.0" y="99" type="line" smooth="yes"/>
      <point x="266.0" y="74"/>
      <point x="277.0" y="63"/>
      <point x="302.0" y="63" type="curve" smooth="yes"/>
      <point x="416.0" y="63" type="line" smooth="yes"/>
      <point x="442.0" y="63"/>
      <point x="452.0" y="74"/>
    </contour>
  </outline>
</glyph>
<glyph name="hyphen" format="1">
  <advance width="420"/>
  <unicode hex="002D"/>
  <unicode hex="00AD"/>
  <unicode hex="2010"/>
  <outline>
    <contour>
      <point x="76.0" y="258" type="curve"/>
      <point x="344.0" y="258" type="line" smooth="yes"/>
      <point x="369.0" y="258"/>
      <point x="380.0" y="268"/>
      <point x="380.0" y="294" type="curve" smooth="yes"/>
      <point x="380.0" y="428" type="line" smooth="yes"/>
      <point x="380.0" y="454"/>
      <point x="369.0" y="464"/>
      <point x="344.0" y="464" type="curve" smooth="yes"/>
      <point x="76.0" y="464" type="line" smooth="yes"/>
      <point x="51.0" y="464"/>
      <point x="40.0" y="453"/>
      <point x="40.0" y="428" type="curve" smooth="yes"/>
      <point x="40.0" y="294" type="line" smooth="yes"/>
      <point x="40.0" y="268"/>
      <point x="51.0" y="258"/>
    </contour>
  </outline>
</glyph>
<glyph name="slash" format="1">
  <advance width="909"/>
  <unicode hex="002F"/>
  <outline>
    <contour>
      <point x="869.0" y="191" type="line"/>
      <point x="894.0" y="188"/>
      <point x="905.0" y="202"/>
      <point x="905.0" y="227" type="curve" smooth="yes"/>
      <point x="905.0" y="372" type="line" smooth="yes"/>
      <point x="905.0" y="397"/>
      <point x="894.0" y="405"/>
      <point x="869.0" y="408" type="curve" smooth="yes"/>
      <point x="41.0" y="528" type="line" smooth="yes"/>
      <point x="16.0" y="531"/>
      <point x="5.0" y="517"/>
      <point x="5.0" y="492" type="curve" smooth="yes"/>
      <point x="5.0" y="347" type="line" smooth="yes"/>
      <point x="5.0" y="322"/>
      <point x="16.0" y="314"/>
      <point x="41.0" y="311" type="curve" smooth="yes"/>
    </contour>
  </outline>
</glyph>
<glyph name="zero" format="2">
  <advance width="864"/>
  <unicode hex="0030"/>
  <anchor x="45.0" y="365.0" name="top"/>
  <anchor x="792.0" y="365.0" name="bottom"/>
  <outline>
    <contour>
      <point x="603.0" y="660" type="curve" smooth="yes"/>
      <point x="262.0" y="660" type="line" smooth="yes"/>
      <point x="140.0" y="660"/>
      <point x="57.0" y="598"/>
      <point x="57.0" y="360" type="curve" smooth="yes"/>
      <point x="57.0" y="122"/>
      <point x="140.0" y="60"/>
      <point x="262.0" y="60" type="curve" smooth="yes"/>
      <point x="603.0" y="60" type="line" smooth="yes"/>
      <point x="725.0" y="60"/>
      <point x="807.0" y="122"/>
      <point x="807.0" y="360" type="curve" smooth="yes"/>
      <point x="807.0" y="598"/>
      <point x="725.0" y="660"/>
    </contour>
    <contour>
      <point x="567.0" y="286" type="curve" smooth="yes"/>
      <point x="298.0" y="286" type="line" smooth="yes"/>
      <point x="272.0" y="286"/>
      <point x="252.0" y="300"/>
      <point x="252.0" y="360" type="curve" smooth="yes"/>
      <point x="252.0" y="420"/>
      <point x="272.0" y="435"/>
      <point x="298.0" y="435" type="curve" smooth="yes"/>
      <point x="567.0" y="435" type="line" smooth="yes"/>
      <point x="594.0" y="435"/>
      <point x="614.0" y="420"/>
      <point x="614.0" y="360" type="curve" smooth="yes"/>
      <point x="614.0" y="300"/>
      <point x="594.0" y="286"/>
    </contour>
  </outline>
</glyph>
<glyph name="one" format="1">
  <advance width="872"/>
  <unicode hex="0031"/>
  <unicode hex="FF11"/>
  <outline>
    <contour>
      <point x="792.0" y="623" type="line" smooth="yes"/>
      <point x="792.0" y="648"/>
      <point x="781.0" y="659"/>
      <point x="756.0" y="659" type="curve"/>
      <point x="635.0" y="659" type="line" smooth="yes"/>
      <point x="610.0" y="659"/>
      <point x="599.0" y="648"/>
      <point x="599.0" y="623" type="curve"/>
      <point x="599.0" y="489" type="line"/>
      <point x="108.0" y="489" type="line" smooth="yes"/>
      <point x="83.0" y="489"/>
      <point x="72.0" y="478"/>
      <point x="72.0" y="453" type="curve" smooth="yes"/>
      <point x="72.0" y="113" type="line" smooth="yes"/>
      <point x="72.0" y="88"/>
      <point x="83.0" y="77"/>
      <point x="108.0" y="77" type="curve" smooth="yes"/>
      <point x="229.0" y="77" type="line" smooth="yes"/>
      <point x="254.0" y="77"/>
      <point x="265.0" y="88"/>
      <point x="265.0" y="113" type="curve" smooth="yes"/>
      <point x="265.0" y="255" type="line"/>
      <point x="599.0" y="255" type="line"/>
      <point x="599.0" y="96" type="line" smooth="yes"/>
      <point x="599.0" y="71"/>
      <point x="610.0" y="60"/>
      <point x="635.0" y="60" type="curve"/>
      <point x="756.0" y="60" type="line"/>
      <point x="781.0" y="60"/>
      <point x="792.0" y="71"/>
      <point x="792.0" y="96" type="curve" smooth="yes"/>
    </contour>
  </outline>
</glyph>
<glyph name="two" format="1">
  <advance width="872"/>
  <unicode hex="0032"/>
  <outline>
    <contour>
      <point x="792.0" y="624" type="line" smooth="yes"/>
      <point x="792.0" y="649"/>
      <point x="781.0" y="660"/>
      <point x="756.0" y="660" type="curve" smooth="yes"/>
      <point x="639.0" y="660" type="line" smooth="yes"/>
      <point x="614.0" y="660"/>
      <point x="603.0" y="649"/>
      <point x="603.0" y="624" type="curve"/>
      <point x="603.0" y="287" type="line"/>
      <point x="577.0" y="287" type="line" smooth="yes"/>
      <point x="555.0" y="287"/>
      <point x="553.0" y="293"/>
      <point x="547.0" y="313" type="curve" smooth="yes"/>
      <point x="504.0" y="503" type="line" smooth="yes"/>
      <point x="482.0" y="602"/>
      <point x="428.0" y="659"/>
      <point x="327.0" y="659" type="curve" smooth="yes"/>
      <point x="238.0" y="659" type="line" smooth="yes"/>
      <point x="130.0" y="659"/>
      <point x="72.0" y="597"/>
      <point x="72.0" y="483" type="curve" smooth="yes"/>
      <point x="72.0" y="116" type="line" smooth="yes"/>
      <point x="72.0" y="91"/>
      <point x="83.0" y="80"/>
      <point x="108.0" y="80" type="curve" smooth="yes"/>
      <point x="227.0" y="80" type="line" smooth="yes"/>
      <point x="252.0" y="80"/>
      <point x="263.0" y="91"/>
      <point x="263.0" y="116" type="curve" smooth="yes"/>
      <point x="263.0" y="405" type="line" smooth="yes"/>
      <point x="263.0" y="425"/>
      <point x="267.0" y="432"/>
      <point x="287.0" y="432" type="curve" smooth="yes"/>
      <point x="309.0" y="432"/>
      <point x="312.0" y="426"/>
      <point x="318.0" y="405" type="curve" smooth="yes"/>
      <point x="360.0" y="217" type="line" smooth="yes"/>
      <point x="388.0" y="125"/>
      <point x="424.0" y="60"/>
      <point x="579.0" y="60" type="curve" smooth="yes"/>
      <point x="756.0" y="60" type="line" smooth="yes"/>
      <point x="781.0" y="60"/>
      <point x="792.0" y="71"/>
      <point x="792.0" y="96" type="curve" smooth="yes"/>
    </contour>
  </outline>
</glyph>
<glyph name="three" format="1">
  <advance width="864"/>
  <unicode hex="0033"/>
  <unicode hex="FF13"/>
  <outline>
    <contour>
      <point x="603.0" y="96" type="line" smooth="yes"/>
      <point x="603.0" y="71"/>
      <point x="614.0" y="60"/>
      <point x="639.0" y="60" type="curve" smooth="yes"/>
      <point x="756.0" y="60" type="line" smooth="yes"/>
      <point x="781.0" y="60"/>
      <point x="792.0" y="71"/>
      <point x="792.0" y="96" type="curve" smooth="yes"/>
      <point x="792.0" y="468" type="line" smooth="yes"/>
      <point x="792.0" y="596"/>
      <point x="729.0" y="662"/>
      <point x="626.0" y="662" type="curve" smooth="yes"/>
      <point x="526.0" y="662" type="line" smooth="yes"/>
      <point x="438.0" y="662"/>
      <point x="392.0" y="631"/>
      <point x="381.0" y="536" type="curve"/>
      <point x="362.0" y="580"/>
      <point x="324.0" y="595"/>
      <point x="273.0" y="595" type="curve" smooth="yes"/>
      <point x="215.0" y="595" type="line" smooth="yes"/>
      <point x="127.0" y="595"/>
      <point x="72.0" y="542"/>
      <point x="72.0" y="431" type="curve" smooth="yes"/>
      <point x="72.0" y="96" type="line" smooth="yes"/>
      <point x="72.0" y="71"/>
      <point x="83.0" y="60"/>
      <point x="108.0" y="60" type="curve" smooth="yes"/>
      <point x="227.0" y="60" type="line" smooth="yes"/>
      <point x="252.0" y="60"/>
      <point x="263.0" y="71"/>
      <point x="263.0" y="96" type="curve" smooth="yes"/>
      <point x="263.0" y="338" type="line" smooth="yes"/>
      <point x="263.0" y="370"/>
      <point x="277.0" y="376"/>
      <point x="293.0" y="376" type="curve" smooth="yes"/>
      <point x="308.0" y="376" type="line" smooth="yes"/>
      <point x="324.0" y="376"/>
      <point x="338.0" y="370"/>
      <point x="338.0" y="338" type="curve" smooth="yes"/>
      <point x="338.0" y="177" type="line" smooth="yes"/>
      <point x="338.0" y="152"/>
      <point x="349.0" y="141"/>
      <point x="374.0" y="141" type="curve" smooth="yes"/>
      <point x="481.0" y="141" type="line" smooth="yes"/>
      <point x="506.0" y="141"/>
      <point x="517.0" y="152"/>
      <point x="517.0" y="177" type="curve" smooth="yes"/>
      <point x="517.0" y="403" type="line" smooth="yes"/>
      <point x="517.0" y="435"/>
      <point x="530.0" y="441"/>
      <point x="546.0" y="441" type="curve" smooth="yes"/>
      <point x="573.0" y="441" type="line" smooth="yes"/>
      <point x="589.0" y="441"/>
      <point x="603.0" y="435"/>
      <point x="603.0" y="403" type="curve" smooth="yes"/>
    </contour>
  </outline>
</glyph>
<glyph name="four" format="2">
  <advance width="842"/>
  <unicode hex="0034"/>
  <outline>
    <contour>
      <point x="620.0" y="434" type="line"/>
      <point x="751.0" y="434" type="line" smooth="yes"/>
      <point x="776.0" y="434"/>
      <point x="787.0" y="445"/>
      <point x="787.0" y="470" type="curve" smooth="yes"/>
      <point x="787.0" y="624" type="line" smooth="yes"/>
      <point x="787.0" y="649"/>
      <point x="776.0" y="660"/>
      <point x="751.0" y="660" type="curve" smooth="yes"/>
      <point x="103.0" y="660" type="line" smooth="yes"/>
      <point x="78.0" y="660"/>
      <point x="67.0" y="649"/>
      <point x="67.0" y="624" type="curve" smooth="yes"/>
      <point x="67.0" y="470" type="line" smooth="yes"/>
      <point x="67.0" y="445"/>
      <point x="78.0" y="434"/>
      <point x="103.0" y="434" type="curve" smooth="yes"/>
      <point x="411.0" y="434" type="line"/>
      <point x="411.0" y="318" type="line" smooth="yes"/>
      <point x="411.0" y="299"/>
      <point x="398.0" y="287"/>
      <point x="377.0" y="287" type="curve" smooth="yes"/>
      <point x="103.0" y="287" type="line" smooth="yes"/>
      <point x="78.0" y="287"/>
      <point x="67.0" y="276"/>
      <point x="67.0" y="251" type="curve" smooth="yes"/>
      <point x="67.0" y="96" type="line" smooth="yes"/>
      <point x="67.0" y="71"/>
      <point x="78.0" y="60"/>
      <point x="103.0" y="60" type="curve" smooth="yes"/>
      <point x="454.0" y="60" type="line" smooth="yes"/>
      <point x="568.0" y="60"/>
      <point x="620.0" y="112"/>
      <point x="620.0" y="242" type="curve" smooth="yes"/>
    </contour>
  </outline>
</glyph>
<glyph name="five" format="1">
  <advance width="872"/>
  <unicode hex="0035"/>
  <unicode hex="FF15"/>
  <outline>
    <contour>
      <point x="800.0" y="467" type="line" smooth="yes"/>
      <point x="800.0" y="587"/>
      <point x="736.0" y="662"/>
      <point x="634.0" y="662" type="curve" smooth="yes"/>
      <point x="495.0" y="662" type="line" smooth="yes"/>
      <point x="389.0" y="662"/>
      <point x="336.0" y="595"/>
      <point x="336.0" y="487" type="curve" smooth="yes"/>
      <point x="336.0" y="297" type="line"/>
      <point x="271.0" y="297" type="line"/>
      <point x="271.0" y="590" type="line" smooth="yes"/>
      <point x="271.0" y="615"/>
      <point x="260.0" y="626"/>
      <point x="235.0" y="626" type="curve" smooth="yes"/>
      <point x="116.0" y="626" type="line" smooth="yes"/>
      <point x="91.0" y="626"/>
      <point x="80.0" y="615"/>
      <point x="80.0" y="590" type="curve" smooth="yes"/>
      <point x="80.0" y="106" type="line" smooth="yes"/>
      <point x="80.0" y="81"/>
      <point x="91.0" y="70"/>
      <point x="116.0" y="70" type="curve" smooth="yes"/>
      <point x="490.0" y="70" type="line" smooth="yes"/>
      <point x="515.0" y="70"/>
      <point x="526.0" y="81"/>
      <point x="526.0" y="106" type="curve" smooth="yes"/>
      <point x="526.0" y="407" type="line" smooth="yes"/>
      <point x="526.0" y="423"/>
      <point x="533.0" y="434"/>
      <point x="549.0" y="434" type="curve" smooth="yes"/>
      <point x="588.0" y="434" type="line" smooth="yes"/>
      <point x="604.0" y="434"/>
      <point x="611.0" y="423"/>
      <point x="611.0" y="407" type="curve" smooth="yes"/>
      <point x="611.0" y="96" type="line" smooth="yes"/>
      <point x="611.0" y="71"/>
      <point x="622.0" y="60"/>
      <point x="647.0" y="60" type="curve" smooth="yes"/>
      <point x="764.0" y="60" type="line" smooth="yes"/>
      <point x="789.0" y="60"/>
      <point x="800.0" y="71"/>
      <point x="800.0" y="96" type="curve" smooth="yes"/>
    </contour>
  </outline>
</glyph>
<glyph name="six" format="1">
  <advance width="859"/>
  <unicode hex="0036"/>
  <unicode hex="FF16"/>
  <outline>
    <contour>
      <point x="600.0" y="55" type="line" smooth="yes"/>
      <point x="722.0" y="55"/>
      <point x="802.0" y="116"/>
      <point x="802.0" y="362" type="curve" smooth="yes"/>
      <point x="802.0" y="592"/>
      <point x="722.0" y="665"/>
      <point x="600.0" y="665" type="curve" smooth="yes"/>
      <point x="504.0" y="665" type="line" smooth="yes"/>
      <point x="385.0" y="665"/>
      <point x="324.0" y="612"/>
      <point x="324.0" y="431" type="curve" smooth="yes"/>
      <point x="324.0" y="368"/>
      <point x="331.0" y="319"/>
      <point x="345.0" y="281" type="curve"/>
      <point x="317.0" y="281" type="line" smooth="yes"/>
      <point x="268.0" y="281"/>
      <point x="257.0" y="295"/>
      <point x="257.0" y="344" type="curve" smooth="yes"/>
      <point x="257.0" y="553" type="line" smooth="yes"/>
      <point x="257.0" y="578"/>
      <point x="246.0" y="589"/>
      <point x="221.0" y="589" type="curve" smooth="yes"/>
      <point x="103.0" y="589" type="line" smooth="yes"/>
      <point x="78.0" y="589"/>
      <point x="67.0" y="579"/>
      <point x="67.0" y="553" type="curve" smooth="yes"/>
      <point x="67.0" y="301" type="line" smooth="yes"/>
      <point x="67.0" y="112"/>
      <point x="150.0" y="55"/>
      <point x="272.0" y="55" type="curve" smooth="yes"/>
    </contour>
    <contour>
      <point x="532.0" y="281" type="line" smooth="yes"/>
      <point x="505.0" y="281"/>
      <point x="489.0" y="297"/>
      <point x="489.0" y="355" type="curve" smooth="yes"/>
      <point x="489.0" y="415"/>
      <point x="505.0" y="439"/>
      <point x="532.0" y="439" type="curve" smooth="yes"/>
      <point x="579.0" y="439" type="line" smooth="yes"/>
      <point x="605.0" y="439"/>
      <point x="621.0" y="415"/>
      <point x="621.0" y="355" type="curve" smooth="yes"/>
      <point x="621.0" y="297"/>
      <point x="605.0" y="281"/>
      <point x="580.0" y="281" type="curve" smooth="yes"/>
    </contour>
  </outline>
</glyph>
<glyph name="seven" format="2">
  <advance width="857"/>
  <unicode hex="0037"/>
  <outline>
    <contour>
      <point x="80.0" y="624" type="curve"/>
      <point x="80.0" y="96" type="line" smooth="yes"/>
      <point x="80.0" y="71"/>
      <point x="91.0" y="60"/>
      <point x="116.0" y="60" type="curve" smooth="yes"/>
      <point x="237.0" y="60" type="line" smooth="yes"/>
      <point x="262.0" y="60"/>
      <point x="273.0" y="71"/>
      <point x="273.0" y="96" type="curve" smooth="yes"/>
      <point x="273.0" y="433" type="line"/>
      <point x="363.0" y="433" type="line"/>
      <point x="385.0" y="313" type="line" smooth="yes"/>
      <point x="405.0" y="203"/>
      <point x="456.0" y="157"/>
      <point x="583.0" y="157" type="curve" smooth="yes"/>
      <point x="764.0" y="157" type="line" smooth="yes"/>
      <point x="789.0" y="157"/>
      <point x="800.0" y="168"/>
      <point x="800.0" y="193" type="curve" smooth="yes"/>
      <point x="800.0" y="355" type="line" smooth="yes"/>
      <point x="800.0" y="380"/>
      <point x="789.0" y="391"/>
      <point x="764.0" y="391" type="curve" smooth="yes"/>
      <point x="589.0" y="391" type="line"/>
      <point x="567.0" y="504" type="line" smooth="yes"/>
      <point x="546.0" y="614"/>
      <point x="496.0" y="660"/>
      <point x="369.0" y="660" type="curve" smooth="yes"/>
      <point x="116.0" y="660" type="line" smooth="yes"/>
      <point x="91.0" y="660"/>
      <point x="80.0" y="649"/>
    </contour>
  </outline>
</glyph>
<glyph name="eight" format="1">
  <advance width="864"/>
  <unicode hex="0038"/>
  <unicode hex="FF18"/>
  <outline>
    <contour>
      <point x="536.0" y="666" type="line" smooth="yes"/>
      <point x="442.0" y="666"/>
      <point x="393.0" y="623"/>
      <point x="381.0" y="563" type="curve"/>
      <point x="362.0" y="607"/>
      <point x="324.0" y="622"/>
      <point x="273.0" y="622" type="curve" smooth="yes"/>
      <point x="215.0" y="622" type="line" smooth="yes"/>
      <point x="117.0" y="622"/>
      <point x="57.0" y="563"/>
      <point x="57.0" y="362" type="curve" smooth="yes"/>
      <point x="57.0" y="161"/>
      <point x="117.0" y="99"/>
      <point x="215.0" y="99" type="curve" smooth="yes"/>
      <point x="273.0" y="99" type="line" smooth="yes"/>
      <point x="324.0" y="99"/>
      <point x="362.0" y="114"/>
      <point x="381.0" y="158" type="curve"/>
      <point x="393.0" y="98"/>
      <point x="442.0" y="55"/>
      <point x="536.0" y="55" type="curve" smooth="yes"/>
      <point x="633.0" y="55" type="line" smooth="yes"/>
      <point x="737.0" y="55"/>
      <point x="807.0" y="120"/>
      <point x="807.0" y="361" type="curve" smooth="yes"/>
      <point x="807.0" y="602"/>
      <point x="737.0" y="666"/>
      <point x="633.0" y="666" type="curve" smooth="yes"/>
    </contour>
    <contour>
      <point x="595.0" y="276" type="curve" smooth="yes"/>
      <point x="542.0" y="276" type="line" smooth="yes"/>
      <point x="522.0" y="276"/>
      <point x="506.0" y="289"/>
      <point x="506.0" y="361" type="curve" smooth="yes"/>
      <point x="506.0" y="434"/>
      <point x="522.0" y="445"/>
      <point x="542.0" y="445" type="curve" smooth="yes"/>
      <point x="595.0" y="445" type="line" smooth="yes"/>
      <point x="616.0" y="445"/>
      <point x="632.0" y="434"/>
      <point x="632.0" y="361" type="curve" smooth="yes"/>
      <point x="632.0" y="289"/>
      <point x="616.0" y="276"/>
    </contour>
    <contour>
      <point x="312.0" y="298" type="curve"/>
      <point x="268.0" y="298" type="line" smooth="yes"/>
      <point x="248.0" y="298"/>
      <point x="232.0" y="305"/>
      <point x="232.0" y="361" type="curve" smooth="yes"/>
      <point x="232.0" y="418"/>
      <point x="248.0" y="423"/>
      <point x="268.0" y="423" type="curve" smooth="yes"/>
      <point x="312.0" y="423" type="line" smooth="yes"/>
      <point x="333.0" y="423"/>
      <point x="349.0" y="418"/>
      <point x="349.0" y="361" type="curve" smooth="yes"/>
      <point x="349.0" y="305"/>
      <point x="333.0" y="298"/>
    </contour>
  </outline>
</glyph>
<glyph name="nine" format="1">
  <advance width="860"/>
  <unicode hex="0039"/>
  <unicode hex="FF19"/>
  <outline>
    <contour>
      <point x="535.0" y="289" type="curve" smooth="yes"/>
      <point x="535.0" y="352"/>
      <point x="528.0" y="401"/>
      <point x="514.0" y="439" type="curve"/>
      <point x="542.0" y="439" type="line" smooth="yes"/>
      <point x="591.0" y="439"/>
      <point x="602.0" y="425"/>
      <point x="602.0" y="376" type="curve" smooth="yes"/>
      <point x="602.0" y="167" type="line" smooth="yes"/>
      <point x="602.0" y="142"/>
      <point x="613.0" y="131"/>
      <point x="638.0" y="131" type="curve" smooth="yes"/>
      <point x="756.0" y="131" type="line" smooth="yes"/>
      <point x="781.0" y="131"/>
      <point x="793.0" y="141"/>
      <point x="793.0" y="167" type="curve" smooth="yes"/>
      <point x="793.0" y="419" type="line" smooth="yes"/>
      <point x="793.0" y="608"/>
      <point x="709.0" y="665"/>
      <point x="587.0" y="665" type="curve" smooth="yes"/>
      <point x="259.0" y="665" type="line" smooth="yes"/>
      <point x="137.0" y="665"/>
      <point x="57.0" y="604"/>
      <point x="57.0" y="358" type="curve" smooth="yes"/>
      <point x="57.0" y="128"/>
      <point x="137.0" y="55"/>
      <point x="259.0" y="55" type="curve" smooth="yes"/>
      <point x="355.0" y="55" type="line" smooth="yes"/>
      <point x="474.0" y="55"/>
      <point x="535.0" y="108"/>
    </contour>
    <contour>
      <point x="327.0" y="439" type="line" smooth="yes"/>
      <point x="354.0" y="439"/>
      <point x="370.0" y="423"/>
      <point x="370.0" y="365" type="curve" smooth="yes"/>
      <point x="370.0" y="305"/>
      <point x="354.0" y="281"/>
      <point x="327.0" y="281" type="curve" smooth="yes"/>
      <point x="280.0" y="281" type="line" smooth="yes"/>
      <point x="254.0" y="281"/>
      <point x="238.0" y="305"/>
      <point x="238.0" y="365" type="curve" smooth="yes"/>
      <point x="238.0" y="423"/>
      <point x="254.0" y="439"/>
      <point x="279.0" y="439" type="curve" smooth="yes"/>
    </contour>
  </outline>
</glyph>
<glyph name="colon" format="1">
  <advance width="784"/>
  <unicode hex="003A"/>
  <unicode hex="FF1A"/>
  <outline>
    <contour>
      <point x="350.0" y="461" type="line" smooth="yes"/>
      <point x="350.0" y="486"/>
      <point x="339.0" y="497"/>
      <point x="314.0" y="497" type="curve" smooth="yes"/>
      <point x="111.0" y="497" type="line" smooth="yes"/>
      <point x="85.0" y="497"/>
      <point x="75.0" y="486"/>
      <point x="75.0" y="461" type="curve" smooth="yes"/>
      <point x="75.0" y="259" type="line" smooth="yes"/>
      <point x="75.0" y="234"/>
      <point x="85.0" y="223"/>
      <point x="111.0" y="223" type="curve"/>
      <point x="314.0" y="223" type="line"/>
      <point x="339.0" y="223"/>
      <point x="350.0" y="234"/>
      <point x="350.0" y="259" type="curve" smooth="yes"/>
    </contour>
    <contour>
      <point x="705.0" y="461" type="line" smooth="yes"/>
      <point x="705.0" y="486"/>
      <point x="694.0" y="497"/>
      <point x="669.0" y="497" type="curve" smooth="yes"/>
      <point x="466.0" y="497" type="line" smooth="yes"/>
      <point x="440.0" y="497"/>
      <point x="430.0" y="486"/>
      <point x="430.0" y="461" type="curve" smooth="yes"/>
      <point x="430.0" y="259" type="line" smooth="yes"/>
      <point x="430.0" y="234"/>
      <point x="440.0" y="223"/>
      <point x="466.0" y="223" type="curve"/>
      <point x="669.0" y="223" type="line"/>
      <point x="694.0" y="223"/>
      <point x="705.0" y="234"/>
      <point x="705.0" y="259" type="curve" smooth="yes"/>
    </contour>
  </outline>
</glyph>
<glyph name="semicolon" format="1">
  <advance width="859"/>
  <unicode hex="003B"/>
  <unicode hex="FF1B"/>
  <outline>
    <contour>
      <point x="350.0" y="461" type="line" smooth="yes"/>
      <point x="350.0" y="486"/>
      <point x="339.0" y="497"/>
      <point x="314.0" y="497" type="curve" smooth="yes"/>
      <point x="111.0" y="497" type="line" smooth="yes"/>
      <point x="85.0" y="497"/>
      <point x="75.0" y="486"/>
      <point x="75.0" y="461" type="curve" smooth="yes"/>
      <point x="75.0" y="259" type="line" smooth="yes"/>
      <point x="75.0" y="234"/>
      <point x="85.0" y="223"/>
      <point x="111.0" y="223" type="curve"/>
      <point x="314.0" y="223" type="line"/>
      <point x="339.0" y="223"/>
      <point x="350.0" y="234"/>
      <point x="350.0" y="259" type="curve" smooth="yes"/>
    </contour>
    <contour>
      <point x="797.0" y="349" type="line" smooth="yes"/>
      <point x="797.0" y="439"/>
      <point x="748.0" y="497"/>
      <point x="646.0" y="497" type="curve" smooth="yes"/>
      <point x="458.0" y="497" type="line" smooth="yes"/>
      <point x="433.0" y="497"/>
      <point x="422.0" y="486"/>
      <point x="422.0" y="461" type="curve" smooth="yes"/>
      <point x="422.0" y="259" type="line" smooth="yes"/>
      <point x="422.0" y="234"/>
      <point x="433.0" y="223"/>
      <point x="458.0" y="223" type="curve" smooth="yes"/>
      <point x="606.0" y="223" type="line" smooth="yes"/>
      <point x="631.0" y="223"/>
      <point x="642.0" y="234"/>
      <point x="642.0" y="259" type="curve" smooth="yes"/>
      <point x="642.0" y="368" type="line"/>
      <point x="657.0" y="368" type="line" smooth="yes"/>
      <point x="675.0" y="368"/>
      <point x="685.0" y="359"/>
      <point x="685.0" y="341" type="curve" smooth="yes"/>
      <point x="685.0" y="272" type="line" smooth="yes"/>
      <point x="685.0" y="247"/>
      <point x="696.0" y="236"/>
      <point x="721.0" y="236" type="curve" smooth="yes"/>
      <point x="761.0" y="236" type="line" smooth="yes"/>
      <point x="787.0" y="236"/>
      <point x="797.0" y="247"/>
      <point x="797.0" y="272" type="curve" smooth="yes"/>
    </contour>
  </outline>
</glyph>
<glyph name="less" format="1">
  <advance width="726"/>
  <unicode hex="003C"/>
  <outline>
    <contour>
      <point x="663.0" y="591" type="line" smooth="yes"/>
      <point x="668.0" y="616"/>
      <point x="658.0" y="627"/>
      <point x="632.0" y="627" type="curve" smooth="yes"/>
      <point x="500.0" y="627" type="line" smooth="yes"/>
      <point x="474.0" y="627"/>
      <point x="463.0" y="616"/>
      <point x="459.0" y="591" type="curve" smooth="yes"/>
      <point x="382.0" y="304" type="line" smooth="yes"/>
      <point x="379.0" y="290"/>
      <point x="375.0" y="287"/>
      <point x="363.0" y="287" type="curve" smooth="yes"/>
      <point x="351.0" y="287"/>
      <point x="347.0" y="290"/>
      <point x="344.0" y="304" type="curve" smooth="yes"/>
      <point x="267.0" y="591" type="line" smooth="yes"/>
      <point x="263.0" y="616"/>
      <point x="252.0" y="627"/>
      <point x="226.0" y="627" type="curve" smooth="yes"/>
      <point x="94.0" y="627" type="line" smooth="yes"/>
      <point x="68.0" y="627"/>
      <point x="58.0" y="616"/>
      <point x="63.0" y="591" type="curve" smooth="yes"/>
      <point x="172.0" y="210" type="line" smooth="yes"/>
      <point x="196.0" y="127"/>
      <point x="228.0" y="83"/>
      <point x="327.0" y="83" type="curve" smooth="yes"/>
      <point x="399.0" y="83" type="line" smooth="yes"/>
      <point x="498.0" y="83"/>
      <point x="530.0" y="127"/>
      <point x="554.0" y="210" type="curve"/>
    </contour>
  </outline>
</glyph>
<glyph name="equal" format="1">
  <advance width="646"/>
  <unicode hex="003D"/>
  <outline>
    <contour>
      <point x="566.0" y="99" type="curve"/>
      <point x="566.0" y="621" type="line" smooth="yes"/>
      <point x="566.0" y="646"/>
      <point x="556.0" y="657"/>
      <point x="530.0" y="657" type="curve" smooth="yes"/>
      <point x="416.0" y="657" type="line" smooth="yes"/>
      <point x="390.0" y="657"/>
      <point x="380.0" y="646"/>
      <point x="380.0" y="621" type="curve" smooth="yes"/>
      <point x="380.0" y="99" type="line" smooth="yes"/>
      <point x="380.0" y="74"/>
      <point x="391.0" y="63"/>
      <point x="416.0" y="63" type="curve" smooth="yes"/>
      <point x="530.0" y="63" type="line" smooth="yes"/>
      <point x="556.0" y="63"/>
      <point x="566.0" y="74"/>
    </contour>
    <contour>
      <point x="266.0" y="99" type="curve"/>
      <point x="266.0" y="621" type="line" smooth="yes"/>
      <point x="266.0" y="646"/>
      <point x="256.0" y="657"/>
      <point x="230.0" y="657" type="curve" smooth="yes"/>
      <point x="116.0" y="657" type="line" smooth="yes"/>
      <point x="90.0" y="657"/>
      <point x="80.0" y="646"/>
      <point x="80.0" y="621" type="curve" smooth="yes"/>
      <point x="80.0" y="99" type="line" smooth="yes"/>
      <point x="80.0" y="74"/>
      <point x="91.0" y="63"/>
      <point x="116.0" y="63" type="curve" smooth="yes"/>
      <point x="230.0" y="63" type="line" smooth="yes"/>
      <point x="256.0" y="63"/>
      <point x="266.0" y="74"/>
    </contour>
  </outline>
</glyph>
<glyph name="greater" format="1">
  <advance width="726"/>
  <unicode hex="003E"/>
  <outline>
    <contour>
      <point x="554.0" y="510" type="line"/>
      <point x="530.0" y="593"/>
      <point x="498.0" y="637"/>
      <point x="399.0" y="637" type="curve" smooth="yes"/>
      <point x="327.0" y="637" type="line" smooth="yes"/>
      <point x="228.0" y="637"/>
      <point x="196.0" y="593"/>
      <point x="172.0" y="510" type="curve" smooth="yes"/>
      <point x="63.0" y="129" type="line" smooth="yes"/>
      <point x="58.0" y="104"/>
      <point x="68.0" y="93"/>
      <point x="94.0" y="93" type="curve" smooth="yes"/>
      <point x="226.0" y="93" type="line" smooth="yes"/>
      <point x="252.0" y="93"/>
      <point x="263.0" y="104"/>
      <point x="267.0" y="129" type="curve" smooth="yes"/>
      <point x="344.0" y="416" type="line" smooth="yes"/>
      <point x="347.0" y="430"/>
      <point x="351.0" y="433"/>
      <point x="363.0" y="433" type="curve" smooth="yes"/>
      <point x="375.0" y="433"/>
      <point x="379.0" y="430"/>
      <point x="382.0" y="416" type="curve" smooth="yes"/>
      <point x="459.0" y="129" type="line" smooth="yes"/>
      <point x="463.0" y="104"/>
      <point x="474.0" y="93"/>
      <point x="500.0" y="93" type="curve" smooth="yes"/>
      <point x="632.0" y="93" type="line" smooth="yes"/>
      <point x="658.0" y="93"/>
      <point x="668.0" y="104"/>
      <point x="663.0" y="129" type="curve" smooth="yes"/>
    </contour>
  </outline>
</glyph>
<glyph name="question" format="1">
  <advance width="847"/>
  <unicode hex="003F"/>
  <unicode hex="FF1F"/>
  <outline>
    <contour>
      <point x="519.0" y="488" type="line" smooth="yes"/>
      <point x="506.0" y="583"/>
      <point x="465.0" y="643"/>
      <point x="353.0" y="643" type="curve" smooth="yes"/>
      <point x="248.0" y="643" type="line" smooth="yes"/>
      <point x="134.0" y="643"/>
      <point x="72.0" y="566"/>
      <point x="72.0" y="436" type="curve" smooth="yes"/>
      <point x="72.0" y="113" type="line" smooth="yes"/>
      <point x="72.0" y="88"/>
      <point x="83.0" y="77"/>
      <point x="108.0" y="77" type="curve"/>
      <point x="229.0" y="77" type="line" smooth="yes"/>
      <point x="255.0" y="77"/>
      <point x="265.0" y="88"/>
      <point x="265.0" y="113" type="curve" smooth="yes"/>
      <point x="265.0" y="389" type="line" smooth="yes"/>
      <point x="265.0" y="406"/>
      <point x="274.0" y="416"/>
      <point x="293.0" y="416" type="curve" smooth="yes"/>
      <point x="313.0" y="416"/>
      <point x="321.0" y="409"/>
      <point x="324.0" y="389" type="curve" smooth="yes"/>
      <point x="352.0" y="190" type="line" smooth="yes"/>
      <point x="355.0" y="165"/>
      <point x="367.0" y="153"/>
      <point x="393.0" y="157" type="curve" smooth="yes"/>
      <point x="525.0" y="178" type="line" smooth="yes"/>
      <point x="550.0" y="182"/>
      <point x="559.0" y="192"/>
      <point x="556.0" y="217" type="curve" smooth="yes"/>
    </contour>
    <contour>
      <point x="792.0" y="376" type="line" smooth="yes"/>
      <point x="792.0" y="401"/>
      <point x="781.0" y="412"/>
      <point x="756.0" y="412" type="curve" smooth="yes"/>
      <point x="625.0" y="412" type="line" smooth="yes"/>
      <point x="599.0" y="412"/>
      <point x="589.0" y="401"/>
      <point x="589.0" y="376" type="curve" smooth="yes"/>
      <point x="589.0" y="193" type="line" smooth="yes"/>
      <point x="589.0" y="167"/>
      <point x="599.0" y="157"/>
      <point x="625.0" y="157" type="curve" smooth="yes"/>
      <point x="756.0" y="157" type="line" smooth="yes"/>
      <point x="781.0" y="157"/>
      <point x="792.0" y="167"/>
      <point x="792.0" y="193" type="curve" smooth="yes"/>
    </contour>
  </outline>
</glyph>
<glyph name="at" format="2">
  <advance width="1026"/>
  <unicode hex="0040"/>
  <outline>
    <contour>
      <point x="964.0" y="360" type="curve" smooth="yes"/>
      <point x="964.0" y="550" type="line" smooth="yes"/>
      <point x="964.0" y="575"/>
      <point x="955.0" y="584"/>
      <point x="930.0" y="584" type="curve" smooth="yes"/>
      <point x="902.0" y="584" type="line" smooth="yes"/>
      <point x="877.0" y="584"/>
      <point x="868.0" y="575"/>
      <point x="868.0" y="550" type="curve" smooth="yes"/>
      <point x="868.0" y="360" type="line" smooth="yes"/>
      <point x="868.0" y="140"/>
      <point x="809.0" y="86"/>
      <point x="723.0" y="86" type="curve" smooth="yes"/>
      <point x="305.0" y="86" type="line" smooth="yes"/>
      <point x="218.0" y="86"/>
      <point x="158.0" y="140"/>
      <point x="158.0" y="360" type="curve" smooth="yes"/>
      <point x="158.0" y="580"/>
      <point x="218.0" y="633"/>
      <point x="305.0" y="633" type="curve" smooth="yes"/>
      <point x="571.0" y="633" type="line" smooth="yes"/>
      <point x="624.0" y="633"/>
      <point x="662.0" y="623"/>
      <point x="662.0" y="571" type="curve"/>
      <point x="313.0" y="571" type="line" smooth="yes"/>
      <point x="295.0" y="571"/>
      <point x="287.0" y="563"/>
      <point x="287.0" y="545" type="curve" smooth="yes"/>
      <point x="287.0" y="320" type="line" smooth="yes"/>
      <point x="287.0" y="184"/>
      <point x="346.0" y="144"/>
      <point x="434.0" y="144" type="curve" smooth="yes"/>
      <point x="627.0" y="144" type="line" smooth="yes"/>
      <point x="714.0" y="144"/>
      <point x="773.0" y="184"/>
      <point x="773.0" y="320" type="curve" smooth="yes"/>
      <point x="773.0" y="509" type="line" smooth="yes"/>
      <point x="773.0" y="697"/>
      <point x="691.0" y="733"/>
      <point x="569.0" y="733" type="curve" smooth="yes"/>
      <point x="309.0" y="733" type="line" smooth="yes"/>
      <point x="162.0" y="733"/>
      <point x="62.0" y="661"/>
      <point x="62.0" y="360" type="curve" smooth="yes"/>
      <point x="62.0" y="60"/>
      <point x="162.0" y="-14"/>
      <point x="309.0" y="-14" type="curve" smooth="yes"/>
      <point x="719.0" y="-14" type="line" smooth="yes"/>
      <point x="865.0" y="-14"/>
      <point x="964.0" y="60"/>
    </contour>
    <contour>
      <point x="602.0" y="307" type="curve" smooth="yes"/>
      <point x="451.0" y="307" type="line" smooth="yes"/>
      <point x="433.0" y="307"/>
      <point x="415.0" y="313"/>
      <point x="415.0" y="351" type="curve" smooth="yes"/>
      <point x="415.0" y="408" type="line"/>
      <point x="636.0" y="408" type="line"/>
      <point x="636.0" y="341" type="line"/>
      <point x="636.0" y="314"/>
      <point x="622.0" y="307"/>
    </contour>
  </outline>
</glyph>
<glyph name="A" format="1">
  <advance width="849"/>
  <unicode hex="0041"/>
  <unicode hex="FF21"/>
  <outline>
    <contour>
      <point x="746.0" y="59" type="line" smooth="yes"/>
      <point x="771.0" y="59"/>
      <point x="782.0" y="69"/>
      <point x="782.0" y="95" type="curve" smooth="yes"/>
      <point x="782.0" y="242" type="line" smooth="yes"/>
      <point x="782.0" y="267"/>
      <point x="771.0" y="278"/>
      <point x="746.0" y="278" type="curve" smooth="yes"/>
      <point x="606.0" y="278" type="line"/>
      <point x="606.0" y="435" type="line"/>
      <point x="746.0" y="435" type="line" smooth="yes"/>
      <point x="771.0" y="435"/>
      <point x="782.0" y="449"/>
      <point x="782.0" y="474" type="curve" smooth="yes"/>
      <point x="782.0" y="625" type="line" smooth="yes"/>
      <point x="782.0" y="650"/>
      <point x="771.0" y="661"/>
      <point x="746.0" y="661" type="curve" smooth="yes"/>
      <point x="482.0" y="661" type="line" smooth="yes"/>
      <point x="413.0" y="661"/>
      <point x="398.0" y="651"/>
      <point x="322.0" y="622" type="curve"/>
      <point x="95.0" y="535" type="line" smooth="yes"/>
      <point x="70.0" y="526"/>
      <point x="62.0" y="511"/>
      <point x="62.0" y="485" type="curve" smooth="yes"/>
      <point x="62.0" y="226" type="line"/>
      <point x="62.0" y="200"/>
      <point x="70.0" y="184"/>
      <point x="95.0" y="175" type="curve" smooth="yes"/>
      <point x="322.0" y="98" type="line"/>
      <point x="398.0" y="69"/>
      <point x="413.0" y="59"/>
      <point x="482.0" y="59" type="curve" smooth="yes"/>
    </contour>
    <contour>
      <point x="272.0" y="335" type="line"/>
      <point x="259.0" y="341"/>
      <point x="255.0" y="343"/>
      <point x="255.0" y="354" type="curve" smooth="yes"/>
      <point x="255.0" y="359" type="line" smooth="yes"/>
      <point x="255.0" y="370"/>
      <point x="259.0" y="372"/>
      <point x="272.0" y="378" type="curve"/>
      <point x="424.0" y="425" type="line"/>
      <point x="424.0" y="288" type="line"/>
    </contour>
  </outline>
</glyph>
<glyph name="B" format="1">
  <advance width="861"/>
  <unicode hex="0042"/>
  <unicode hex="FF22"/>
  <outline>
    <contour>
      <point x="789.0" y="472" type="line" smooth="yes"/>
      <point x="789.0" y="600"/>
      <point x="726.0" y="666"/>
      <point x="625.0" y="666" type="curve" smooth="yes"/>
      <point x="533.0" y="666" type="line" smooth="yes"/>
      <point x="439.0" y="666"/>
      <point x="385.0" y="612"/>
      <point x="378.0" y="540" type="curve"/>
      <point x="359.0" y="584"/>
      <point x="321.0" y="599"/>
      <point x="270.0" y="599" type="curve" smooth="yes"/>
      <point x="222.0" y="599" type="line" smooth="yes"/>
      <point x="134.0" y="599"/>
      <point x="69.0" y="543"/>
      <point x="69.0" y="407" type="curve" smooth="yes"/>
      <point x="69.0" y="97" type="line" smooth="yes"/>
      <point x="69.0" y="72"/>
      <point x="80.0" y="61"/>
      <point x="105.0" y="61" type="curve"/>
      <point x="753.0" y="61" type="line"/>
      <point x="778.0" y="61"/>
      <point x="789.0" y="72"/>
      <point x="789.0" y="97" type="curve" smooth="yes"/>
    </contour>
    <contour>
      <point x="501.0" y="286" type="line"/>
      <point x="501.0" y="407" type="line" smooth="yes"/>
      <point x="501.0" y="439"/>
      <point x="519.0" y="445"/>
      <point x="540.0" y="445" type="curve" smooth="yes"/>
      <point x="579.0" y="445" type="line" smooth="yes"/>
      <point x="600.0" y="445"/>
      <point x="619.0" y="439"/>
      <point x="619.0" y="407" type="curve" smooth="yes"/>
      <point x="619.0" y="286" type="line"/>
    </contour>
    <contour>
      <point x="239.0" y="286" type="line"/>
      <point x="239.0" y="362" type="line" smooth="yes"/>
      <point x="239.0" y="394"/>
      <point x="258.0" y="400"/>
      <point x="279.0" y="400" type="curve" smooth="yes"/>
      <point x="307.0" y="400" type="line" smooth="yes"/>
      <point x="328.0" y="400"/>
      <point x="347.0" y="394"/>
      <point x="347.0" y="362" type="curve" smooth="yes"/>
      <point x="347.0" y="286" type="line"/>
    </contour>
  </outline>
</glyph>
<glyph name="C" format="1">
  <advance width="864"/>
  <unicode hex="0043"/>
  <unicode hex="FF23"/>
  <outline>
    <contour>
      <point x="792.0" y="615" type="line" smooth="yes"/>
      <point x="792.0" y="640"/>
      <point x="781.0" y="651"/>
      <point x="756.0" y="651" type="curve" smooth="yes"/>
      <point x="637.0" y="651" type="line" smooth="yes"/>
      <point x="612.0" y="651"/>
      <point x="601.0" y="640"/>
      <point x="601.0" y="615" type="curve" smooth="yes"/>
      <point x="601.0" y="345" type="line" smooth="yes"/>
      <point x="601.0" y="293"/>
      <point x="581.0" y="284"/>
      <point x="553.0" y="284" type="curve" smooth="yes"/>
      <point x="315.0" y="284" type="line" smooth="yes"/>
      <point x="289.0" y="284"/>
      <point x="265.0" y="293"/>
      <point x="265.0" y="345" type="curve" smooth="yes"/>
      <point x="265.0" y="615" type="line" smooth="yes"/>
      <point x="265.0" y="640"/>
      <point x="254.0" y="651"/>
      <point x="229.0" y="651" type="curve" smooth="yes"/>
      <point x="108.0" y="651" type="line" smooth="yes"/>
      <point x="83.0" y="651"/>
      <point x="72.0" y="640"/>
      <point x="72.0" y="615" type="curve" smooth="yes"/>
      <point x="72.0" y="302" type="line" smooth="yes"/>
      <point x="72.0" y="113"/>
      <point x="155.0" y="56"/>
      <point x="277.0" y="56" type="curve" smooth="yes"/>
      <point x="588.0" y="56" type="line" smooth="yes"/>
      <point x="709.0" y="56"/>
      <point x="792.0" y="113"/>
      <point x="792.0" y="302" type="curve" smooth="yes"/>
    </contour>
  </outline>
</glyph>
<glyph name="D" format="1">
  <advance width="864"/>
  <unicode hex="0044"/>
  <unicode hex="FF24"/>
  <outline>
    <contour>
      <point x="792.0" y="419" type="line" smooth="yes"/>
      <point x="792.0" y="608"/>
      <point x="709.0" y="665"/>
      <point x="588.0" y="665" type="curve" smooth="yes"/>
      <point x="276.0" y="665" type="line" smooth="yes"/>
      <point x="155.0" y="665"/>
      <point x="72.0" y="608"/>
      <point x="72.0" y="419" type="curve" smooth="yes"/>
      <point x="72.0" y="96" type="line" smooth="yes"/>
      <point x="72.0" y="71"/>
      <point x="83.0" y="60"/>
      <point x="108.0" y="60" type="curve"/>
      <point x="756.0" y="60" type="line"/>
      <point x="781.0" y="60"/>
      <point x="792.0" y="71"/>
      <point x="792.0" y="96" type="curve" smooth="yes"/>
    </contour>
    <contour>
      <point x="263.0" y="287" type="line"/>
      <point x="263.0" y="392" type="line" smooth="yes"/>
      <point x="263.0" y="432"/>
      <point x="285.0" y="439"/>
      <point x="311.0" y="439" type="curve" smooth="yes"/>
      <point x="554.0" y="439" type="line" smooth="yes"/>
      <point x="581.0" y="439"/>
      <point x="603.0" y="432"/>
      <point x="603.0" y="392" type="curve" smooth="yes"/>
      <point x="603.0" y="287" type="line"/>
    </contour>
  </outline>
</glyph>
<glyph name="E" format="1">
  <advance width="880"/>
  <unicode hex="0045"/>
  <unicode hex="FF25"/>
  <outline>
    <contour>
      <point x="800.0" y="615" type="line" smooth="yes"/>
      <point x="800.0" y="640"/>
      <point x="789.0" y="651"/>
      <point x="764.0" y="651" type="curve" smooth="yes"/>
      <point x="647.0" y="651" type="line" smooth="yes"/>
      <point x="622.0" y="651"/>
      <point x="611.0" y="640"/>
      <point x="611.0" y="615" type="curve" smooth="yes"/>
      <point x="611.0" y="285" type="line"/>
      <point x="525.0" y="285" type="line"/>
      <point x="525.0" y="534" type="line" smooth="yes"/>
      <point x="525.0" y="559"/>
      <point x="514.0" y="570"/>
      <point x="489.0" y="570" type="curve" smooth="yes"/>
      <point x="382.0" y="570" type="line" smooth="yes"/>
      <point x="356.0" y="570"/>
      <point x="346.0" y="559"/>
      <point x="346.0" y="534" type="curve" smooth="yes"/>
      <point x="346.0" y="285" type="line"/>
      <point x="269.0" y="285" type="line"/>
      <point x="269.0" y="615" type="line" smooth="yes"/>
      <point x="269.0" y="640"/>
      <point x="258.0" y="651"/>
      <point x="233.0" y="651" type="curve" smooth="yes"/>
      <point x="116.0" y="651" type="line" smooth="yes"/>
      <point x="91.0" y="651"/>
      <point x="80.0" y="640"/>
      <point x="80.0" y="615" type="curve" smooth="yes"/>
      <point x="80.0" y="97" type="line" smooth="yes"/>
      <point x="80.0" y="72"/>
      <point x="91.0" y="61"/>
      <point x="116.0" y="61" type="curve"/>
      <point x="764.0" y="61" type="line"/>
      <point x="789.0" y="61"/>
      <point x="800.0" y="72"/>
      <point x="800.0" y="97" type="curve" smooth="yes"/>
    </contour>
  </outline>
</glyph>
<glyph name="F" format="1">
  <advance width="856"/>
  <unicode hex="0046"/>
  <outline>
    <contour>
      <point x="801.0" y="252" type="line" smooth="yes"/>
      <point x="801.0" y="277"/>
      <point x="789.0" y="288"/>
      <point x="764.0" y="288" type="curve" smooth="yes"/>
      <point x="567.0" y="288" type="line"/>
      <point x="567.0" y="534" type="line" smooth="yes"/>
      <point x="567.0" y="559"/>
      <point x="556.0" y="570"/>
      <point x="531.0" y="570" type="curve" smooth="yes"/>
      <point x="411.0" y="570" type="line" smooth="yes"/>
      <point x="386.0" y="570"/>
      <point x="375.0" y="559"/>
      <point x="375.0" y="534" type="curve" smooth="yes"/>
      <point x="375.0" y="288" type="line"/>
      <point x="271.0" y="288" type="line"/>
      <point x="271.0" y="615" type="line" smooth="yes"/>
      <point x="271.0" y="640"/>
      <point x="260.0" y="651"/>
      <point x="235.0" y="651" type="curve" smooth="yes"/>
      <point x="116.0" y="651" type="line" smooth="yes"/>
      <point x="91.0" y="651"/>
      <point x="80.0" y="640"/>
      <point x="80.0" y="615" type="curve" smooth="yes"/>
      <point x="80.0" y="97" type="line" smooth="yes"/>
      <point x="80.0" y="72"/>
      <point x="91.0" y="61"/>
      <point x="116.0" y="61" type="curve"/>
      <point x="764.0" y="61" type="line"/>
      <point x="789.0" y="61"/>
      <point x="801.0" y="72"/>
      <point x="801.0" y="97" type="curve" smooth="yes"/>
    </contour>
  </outline>
</glyph>
<glyph name="G" format="1">
  <advance width="859"/>
  <unicode hex="0047"/>
  <unicode hex="FF27"/>
  <outline>
    <contour>
      <point x="787.0" y="624" type="line" smooth="yes"/>
      <point x="787.0" y="649"/>
      <point x="776.0" y="660"/>
      <point x="751.0" y="660" type="curve" smooth="yes"/>
      <point x="442.0" y="660" type="line" smooth="yes"/>
      <point x="417.0" y="660"/>
      <point x="406.0" y="649"/>
      <point x="406.0" y="624" type="curve" smooth="yes"/>
      <point x="406.0" y="469" type="line" smooth="yes"/>
      <point x="406.0" y="444"/>
      <point x="417.0" y="433"/>
      <point x="442.0" y="433" type="curve" smooth="yes"/>
      <point x="598.0" y="433" type="line"/>
      <point x="598.0" y="328" type="line" smooth="yes"/>
      <point x="598.0" y="288"/>
      <point x="576.0" y="282"/>
      <point x="549.0" y="282" type="curve" smooth="yes"/>
      <point x="310.0" y="282" type="line" smooth="yes"/>
      <point x="284.0" y="282"/>
      <point x="260.0" y="291"/>
      <point x="260.0" y="343" type="curve" smooth="yes"/>
      <point x="260.0" y="559" type="line" smooth="yes"/>
      <point x="260.0" y="584"/>
      <point x="249.0" y="595"/>
      <point x="224.0" y="595" type="curve" smooth="yes"/>
      <point x="103.0" y="595" type="line" smooth="yes"/>
      <point x="78.0" y="595"/>
      <point x="67.0" y="584"/>
      <point x="67.0" y="559" type="curve" smooth="yes"/>
      <point x="67.0" y="301" type="line" smooth="yes"/>
      <point x="67.0" y="112"/>
      <point x="150.0" y="55"/>
      <point x="271.0" y="55" type="curve" smooth="yes"/>
      <point x="583.0" y="55" type="line" smooth="yes"/>
      <point x="704.0" y="55"/>
      <point x="787.0" y="112"/>
      <point x="787.0" y="301" type="curve" smooth="yes"/>
    </contour>
    <contour>
      <point x="40.0" y="351.0" type="move" name="top"/>
    </contour>
    <contour>
      <point x="787.0" y="351.0" type="move" name="bottom"/>
    </contour>
  </outline>
</glyph>
<glyph name="I" format="2">
  <advance width="880"/>
  <unicode hex="0049"/>
  <outline>
    <contour>
      <point x="800.0" y="105" type="curve" smooth="yes"/>
      <point x="800.0" y="615" type="line" smooth="yes"/>
      <point x="800.0" y="640"/>
      <point x="789.0" y="651"/>
      <point x="764.0" y="651" type="curve" smooth="yes"/>
      <point x="645.0" y="651" type="line" smooth="yes"/>
      <point x="620.0" y="651"/>
      <point x="609.0" y="640"/>
      <point x="609.0" y="615" type="curve" smooth="yes"/>
      <point x="609.0" y="481" type="line"/>
      <point x="273.0" y="481" type="line"/>
      <point x="273.0" y="615" type="line" smooth="yes"/>
      <point x="273.0" y="640"/>
      <point x="262.0" y="651"/>
      <point x="237.0" y="651" type="curve" smooth="yes"/>
      <point x="116.0" y="651" type="line" smooth="yes"/>
      <point x="91.0" y="651"/>
      <point x="80.0" y="640"/>
      <point x="80.0" y="615" type="curve" smooth="yes"/>
      <point x="80.0" y="105" type="line" smooth="yes"/>
      <point x="80.0" y="80"/>
      <point x="91.0" y="69"/>
      <point x="116.0" y="69" type="curve"/>
      <point x="237.0" y="69" type="line"/>
      <point x="262.0" y="69"/>
      <point x="273.0" y="80"/>
      <point x="273.0" y="105" type="curve" smooth="yes"/>
      <point x="273.0" y="239" type="line"/>
      <point x="609.0" y="239" type="line"/>
      <point x="609.0" y="105" type="line" smooth="yes"/>
      <point x="609.0" y="80"/>
      <point x="620.0" y="69"/>
      <point x="645.0" y="69" type="curve"/>
      <point x="764.0" y="69" type="line"/>
      <point x="789.0" y="69"/>
      <point x="800.0" y="80"/>
    </contour>
  </outline>
</glyph>
<glyph name="K" format="1">
  <advance width="854"/>
  <unicode hex="004B"/>
  <unicode hex="FF2B"/>
  <outline>
    <contour>
      <point x="787.0" y="252" type="line" smooth="yes"/>
      <point x="787.0" y="277"/>
      <point x="776.0" y="288"/>
      <point x="751.0" y="288" type="curve" smooth="yes"/>
      <point x="522.0" y="288" type="line"/>
      <point x="522.0" y="403" type="line" smooth="yes"/>
      <point x="522.0" y="424"/>
      <point x="534.0" y="435"/>
      <point x="556.0" y="435" type="curve" smooth="yes"/>
      <point x="751.0" y="435" type="line" smooth="yes"/>
      <point x="776.0" y="435"/>
      <point x="787.0" y="446"/>
      <point x="787.0" y="471" type="curve" smooth="yes"/>
      <point x="787.0" y="625" type="line" smooth="yes"/>
      <point x="787.0" y="650"/>
      <point x="776.0" y="661"/>
      <point x="751.0" y="661" type="curve" smooth="yes"/>
      <point x="469.0" y="661" type="line" smooth="yes"/>
      <point x="389.0" y="661"/>
      <point x="337.0" y="613"/>
      <point x="333.0" y="538" type="curve"/>
      <point x="100.0" y="640" type="line" smooth="yes"/>
      <point x="79.0" y="649"/>
      <point x="67.0" y="641"/>
      <point x="67.0" y="618" type="curve" smooth="yes"/>
      <point x="67.0" y="464" type="line" smooth="yes"/>
      <point x="67.0" y="438"/>
      <point x="76.0" y="424"/>
      <point x="100.0" y="414" type="curve" smooth="yes"/>
      <point x="333.0" y="311" type="line"/>
      <point x="333.0" y="288" type="line"/>
      <point x="103.0" y="288" type="line" smooth="yes"/>
      <point x="78.0" y="288"/>
      <point x="67.0" y="277"/>
      <point x="67.0" y="252" type="curve" smooth="yes"/>
      <point x="67.0" y="97" type="line" smooth="yes"/>
      <point x="67.0" y="72"/>
      <point x="78.0" y="61"/>
      <point x="103.0" y="61" type="curve"/>
      <point x="751.0" y="61" type="line"/>
      <point x="776.0" y="61"/>
      <point x="787.0" y="72"/>
      <point x="787.0" y="97" type="curve" smooth="yes"/>
    </contour>
  </outline>
</glyph>
<glyph name="L" format="1">
  <advance width="855"/>
  <unicode hex="004C"/>
  <unicode hex="FF2C"/>
  <outline>
    <contour>
      <point x="775.0" y="625" type="line" smooth="yes"/>
      <point x="775.0" y="650"/>
      <point x="764.0" y="661"/>
      <point x="739.0" y="661" type="curve" smooth="yes"/>
      <point x="424.0" y="661" type="line" smooth="yes"/>
      <point x="399.0" y="661"/>
      <point x="388.0" y="650"/>
      <point x="388.0" y="625" type="curve" smooth="yes"/>
      <point x="388.0" y="480" type="line" smooth="yes"/>
      <point x="388.0" y="455"/>
      <point x="399.0" y="444"/>
      <point x="424.0" y="444" type="curve" smooth="yes"/>
      <point x="586.0" y="444" type="line"/>
      <point x="586.0" y="288" type="line"/>
      <point x="91.0" y="288" type="line" smooth="yes"/>
      <point x="66.0" y="288"/>
      <point x="55.0" y="277"/>
      <point x="55.0" y="252" type="curve" smooth="yes"/>
      <point x="55.0" y="97" type="line" smooth="yes"/>
      <point x="55.0" y="72"/>
      <point x="66.0" y="61"/>
      <point x="91.0" y="61" type="curve"/>
      <point x="739.0" y="61" type="line"/>
      <point x="764.0" y="61"/>
      <point x="775.0" y="72"/>
      <point x="775.0" y="97" type="curve" smooth="yes"/>
    </contour>
  </outline>
</glyph>
<glyph name="M" format="1">
  <advance width="854"/>
  <unicode hex="004D"/>
  <unicode hex="FF2D"/>
  <outline>
    <contour>
      <point x="787.0" y="207" type="line" smooth="yes"/>
      <point x="787.0" y="232"/>
      <point x="776.0" y="243"/>
      <point x="751.0" y="243" type="curve" smooth="yes"/>
      <point x="458.0" y="246" type="line"/>
      <point x="416.0" y="246" type="line"/>
      <point x="526.0" y="285" type="line"/>
      <point x="549.0" y="298"/>
      <point x="558.0" y="312"/>
      <point x="558.0" y="338" type="curve" smooth="yes"/>
      <point x="558.0" y="365" type="line" smooth="yes"/>
      <point x="558.0" y="391"/>
      <point x="549.0" y="405"/>
      <point x="526.0" y="418" type="curve"/>
      <point x="416.0" y="456" type="line"/>
      <point x="458.0" y="456" type="line"/>
      <point x="751.0" y="460" type="line" smooth="yes"/>
      <point x="776.0" y="460"/>
      <point x="787.0" y="471"/>
      <point x="787.0" y="496" type="curve" smooth="yes"/>
      <point x="787.0" y="647" type="line" smooth="yes"/>
      <point x="787.0" y="673"/>
      <point x="776.0" y="683"/>
      <point x="751.0" y="683" type="curve" smooth="yes"/>
      <point x="103.0" y="679" type="line" smooth="yes"/>
      <point x="78.0" y="679"/>
      <point x="67.0" y="669"/>
      <point x="67.0" y="643" type="curve" smooth="yes"/>
      <point x="67.0" y="503" type="line" smooth="yes"/>
      <point x="67.0" y="477"/>
      <point x="75.0" y="461"/>
      <point x="97.0" y="447" type="curve"/>
      <point x="273.0" y="369" type="line"/>
      <point x="273.0" y="345" type="line"/>
      <point x="97.0" y="275" type="line"/>
      <point x="74.0" y="262"/>
      <point x="67.0" y="236"/>
      <point x="67.0" y="210" type="curve" smooth="yes"/>
      <point x="67.0" y="79" type="line" smooth="yes"/>
      <point x="67.0" y="54"/>
      <point x="78.0" y="43"/>
      <point x="103.0" y="43" type="curve" smooth="yes"/>
      <point x="751.0" y="39" type="line" smooth="yes"/>
      <point x="776.0" y="39"/>
      <point x="787.0" y="50"/>
      <point x="787.0" y="75" type="curve" smooth="yes"/>
    </contour>
  </outline>
</glyph>
<glyph name="N" format="1">
  <advance width="854"/>
  <unicode hex="004E"/>
  <unicode hex="FF2E"/>
  <outline>
    <contour>
      <point x="787.0" y="246" type="line" smooth="yes"/>
      <point x="787.0" y="271"/>
      <point x="776.0" y="282"/>
      <point x="751.0" y="282" type="curve" smooth="yes"/>
      <point x="421.0" y="282" type="line"/>
      <point x="628.0" y="439" type="line"/>
      <point x="751.0" y="439" type="line" smooth="yes"/>
      <point x="776.0" y="439"/>
      <point x="787.0" y="450"/>
      <point x="787.0" y="475" type="curve" smooth="yes"/>
      <point x="787.0" y="625" type="line" smooth="yes"/>
      <point x="787.0" y="650"/>
      <point x="776.0" y="661"/>
      <point x="751.0" y="661" type="curve" smooth="yes"/>
      <point x="103.0" y="661" type="line" smooth="yes"/>
      <point x="78.0" y="661"/>
      <point x="67.0" y="650"/>
      <point x="67.0" y="625" type="curve" smooth="yes"/>
      <point x="67.0" y="475" type="line" smooth="yes"/>
      <point x="67.0" y="450"/>
      <point x="78.0" y="439"/>
      <point x="103.0" y="439" type="curve" smooth="yes"/>
      <point x="316.0" y="439" type="line"/>
      <point x="94.0" y="259" type="line" smooth="yes"/>
      <point x="74.0" y="242"/>
      <point x="67.0" y="226"/>
      <point x="67.0" y="200" type="curve" smooth="yes"/>
      <point x="67.0" y="96" type="line" smooth="yes"/>
      <point x="67.0" y="71"/>
      <point x="78.0" y="60"/>
      <point x="103.0" y="60" type="curve"/>
      <point x="751.0" y="60" type="line"/>
      <point x="776.0" y="60"/>
      <point x="787.0" y="71"/>
      <point x="787.0" y="96" type="curve" smooth="yes"/>
    </contour>
  </outline>
</glyph>
<glyph name="O" format="1">
  <advance width="864"/>
  <unicode hex="004F"/>
  <unicode hex="FF2F"/>
  <outline>
    <contour>
      <point x="603.0" y="664" type="curve" smooth="yes"/>
      <point x="262.0" y="664" type="line" smooth="yes"/>
      <point x="140.0" y="664"/>
      <point x="57.0" y="605"/>
      <point x="57.0" y="360" type="curve" smooth="yes"/>
      <point x="57.0" y="115"/>
      <point x="140.0" y="56"/>
      <point x="262.0" y="56" type="curve" smooth="yes"/>
      <point x="603.0" y="56" type="line" smooth="yes"/>
      <point x="725.0" y="56"/>
      <point x="807.0" y="115"/>
      <point x="807.0" y="360" type="curve" smooth="yes"/>
      <point x="807.0" y="605"/>
      <point x="725.0" y="664"/>
    </contour>
    <contour>
      <point x="567.0" y="283" type="curve" smooth="yes"/>
      <point x="298.0" y="283" type="line" smooth="yes"/>
      <point x="272.0" y="283"/>
      <point x="252.0" y="294"/>
      <point x="252.0" y="360" type="curve" smooth="yes"/>
      <point x="252.0" y="427"/>
      <point x="272.0" y="438"/>
      <point x="298.0" y="438" type="curve" smooth="yes"/>
      <point x="567.0" y="438" type="line" smooth="yes"/>
      <point x="594.0" y="438"/>
      <point x="614.0" y="427"/>
      <point x="614.0" y="360" type="curve" smooth="yes"/>
      <point x="614.0" y="294"/>
      <point x="594.0" y="283"/>
    </contour>
  </outline>
</glyph>
<glyph name="P" format="1">
  <advance width="847"/>
  <unicode hex="0050"/>
  <outline>
    <contour>
      <point x="792.0" y="251" type="line" smooth="yes"/>
      <point x="792.0" y="276"/>
      <point x="781.0" y="287"/>
      <point x="756.0" y="287" type="curve" smooth="yes"/>
      <point x="590.0" y="287" type="line"/>
      <point x="590.0" y="428" type="line" smooth="yes"/>
      <point x="590.0" y="610"/>
      <point x="511.0" y="664"/>
      <point x="395.0" y="664" type="curve" smooth="yes"/>
      <point x="267.0" y="664" type="line" smooth="yes"/>
      <point x="151.0" y="664"/>
      <point x="72.0" y="610"/>
      <point x="72.0" y="428" type="curve" smooth="yes"/>
      <point x="72.0" y="96" type="line" smooth="yes"/>
      <point x="72.0" y="71"/>
      <point x="83.0" y="60"/>
      <point x="108.0" y="60" type="curve"/>
      <point x="756.0" y="60" type="line"/>
      <point x="781.0" y="60"/>
      <point x="792.0" y="71"/>
      <point x="792.0" y="96" type="curve" smooth="yes"/>
    </contour>
    <contour>
      <point x="259.0" y="285" type="line"/>
      <point x="259.0" y="401" type="line" smooth="yes"/>
      <point x="259.0" y="440"/>
      <point x="282.0" y="448"/>
      <point x="308.0" y="448" type="curve" smooth="yes"/>
      <point x="361.0" y="448" type="line" smooth="yes"/>
      <point x="387.0" y="448"/>
      <point x="410.0" y="440"/>
      <point x="410.0" y="401" type="curve" smooth="yes"/>
      <point x="410.0" y="285" type="line"/>
    </contour>
  </outline>
</glyph>
<glyph name="Q" format="1">
  <advance width="934"/>
  <unicode hex="0051"/>
  <unicode hex="FF31"/>
  <outline>
    <contour>
      <point x="572.0" y="283" type="curve"/>
      <point x="299.0" y="283" type="line" smooth="yes"/>
      <point x="273.0" y="283"/>
      <point x="253.0" y="294"/>
      <point x="253.0" y="360" type="curve" smooth="yes"/>
      <point x="253.0" y="427"/>
      <point x="273.0" y="438"/>
      <point x="299.0" y="438" type="curve" smooth="yes"/>
      <point x="572.0" y="438" type="line" smooth="yes"/>
      <point x="599.0" y="438"/>
      <point x="619.0" y="427"/>
      <point x="619.0" y="360" type="curve" smooth="yes"/>
      <point x="619.0" y="294"/>
      <point x="599.0" y="283"/>
    </contour>
    <contour>
      <point x="846.0" y="246" type="line" smooth="yes"/>
      <point x="871.0" y="246"/>
      <point x="882.0" y="257"/>
      <point x="882.0" y="282" type="curve" smooth="yes"/>
      <point x="882.0" y="436" type="line" smooth="yes"/>
      <point x="882.0" y="461"/>
      <point x="871.0" y="472"/>
      <point x="846.0" y="472" type="curve" smooth="yes"/>
      <point x="791.0" y="472" type="line"/>
      <point x="768.0" y="624"/>
      <point x="695.0" y="664"/>
      <point x="594.0" y="664" type="curve" smooth="yes"/>
      <point x="262.0" y="664" type="line" smooth="yes"/>
      <point x="140.0" y="664"/>
      <point x="57.0" y="605"/>
      <point x="57.0" y="360" type="curve" smooth="yes"/>
      <point x="57.0" y="115"/>
      <point x="140.0" y="56"/>
      <point x="262.0" y="56" type="curve" smooth="yes"/>
      <point x="594.0" y="56" type="line" smooth="yes"/>
      <point x="694.0" y="56"/>
      <point x="767.0" y="96"/>
      <point x="790.0" y="246" type="curve"/>
    </contour>
  </outline>
</glyph>
<glyph name="R" format="1">
  <advance width="859"/>
  <unicode hex="0052"/>
  <unicode hex="FF32"/>
  <outline>
    <contour>
      <point x="792.0" y="250" type="line" smooth="yes"/>
      <point x="792.0" y="275"/>
      <point x="781.0" y="286"/>
      <point x="756.0" y="286" type="curve" smooth="yes"/>
      <point x="560.0" y="286" type="line"/>
      <point x="560.0" y="405" type="line" smooth="yes"/>
      <point x="560.0" y="433"/>
      <point x="573.0" y="443"/>
      <point x="603.0" y="443" type="curve" smooth="yes"/>
      <point x="756.0" y="443" type="line" smooth="yes"/>
      <point x="781.0" y="443"/>
      <point x="792.0" y="454"/>
      <point x="792.0" y="479" type="curve" smooth="yes"/>
      <point x="792.0" y="634" type="line" smooth="yes"/>
      <point x="792.0" y="659"/>
      <point x="781.0" y="670"/>
      <point x="756.0" y="670" type="curve" smooth="yes"/>
      <point x="544.0" y="670" type="line" smooth="yes"/>
      <point x="460.0" y="670"/>
      <point x="407.0" y="620"/>
      <point x="399.0" y="559" type="curve"/>
      <point x="381.0" y="601"/>
      <point x="341.0" y="615"/>
      <point x="285.0" y="615" type="curve" smooth="yes"/>
      <point x="239.0" y="615" type="line" smooth="yes"/>
      <point x="140.0" y="615"/>
      <point x="72.0" y="568"/>
      <point x="72.0" y="418" type="curve" smooth="yes"/>
      <point x="72.0" y="96" type="line" smooth="yes"/>
      <point x="72.0" y="71"/>
      <point x="83.0" y="60"/>
      <point x="108.0" y="60" type="curve" smooth="yes"/>
      <point x="756.0" y="60" type="line" smooth="yes"/>
      <point x="781.0" y="60"/>
      <point x="792.0" y="71"/>
      <point x="792.0" y="96" type="curve" smooth="yes"/>
    </contour>
    <contour>
      <point x="252" y="286" type="line"/>
      <point x="252" y="350" type="line" smooth="yes"/>
      <point x="252" y="385"/>
      <point x="272" y="394"/>
      <point x="299" y="394" type="curve" smooth="yes"/>
      <point x="333" y="394" type="line" smooth="yes"/>
      <point x="360" y="394"/>
      <point x="380" y="385"/>
      <point x="380" y="350" type="curve" smooth="yes"/>
      <point x="380" y="286" type="line"/>
    </contour>
  </outline>
</glyph>
<glyph name="S" format="1">
  <advance width="864"/>
  <unicode hex="0053"/>
  <unicode hex="FF33"/>
  <outline>
    <contour>
      <point x="792.0" y="454" type="line" smooth="yes"/>
      <point x="792.0" y="583"/>
      <point x="730.0" y="661"/>
      <point x="616.0" y="661" type="curve" smooth="yes"/>
      <point x="511.0" y="661" type="line" smooth="yes"/>
      <point x="399.0" y="661"/>
      <point x="359.0" y="599"/>
      <point x="345.0" y="505" type="curve" smooth="yes"/>
      <point x="325.0" y="314" type="line" smooth="yes"/>
      <point x="323.0" y="297"/>
      <point x="311.0" y="287"/>
      <point x="293.0" y="287" type="curve" smooth="yes"/>
      <point x="275.0" y="287"/>
      <point x="263.0" y="297"/>
      <point x="263.0" y="314" type="curve" smooth="yes"/>
      <point x="263.0" y="599" type="line" smooth="yes"/>
      <point x="263.0" y="624"/>
      <point x="252.0" y="635"/>
      <point x="227.0" y="635" type="curve" smooth="yes"/>
      <point x="108.0" y="635" type="line" smooth="yes"/>
      <point x="83.0" y="635"/>
      <point x="72.0" y="624"/>
      <point x="72.0" y="599" type="curve" smooth="yes"/>
      <point x="72.0" y="267" type="line" smooth="yes"/>
      <point x="72.0" y="137"/>
      <point x="134.0" y="60"/>
      <point x="248.0" y="60" type="curve" smooth="yes"/>
      <point x="353.0" y="60" type="line" smooth="yes"/>
      <point x="465.0" y="60"/>
      <point x="505.0" y="121"/>
      <point x="519.0" y="215" type="curve" smooth="yes"/>
      <point x="540.0" y="407" type="line" smooth="yes"/>
      <point x="542.0" y="424"/>
      <point x="551.0" y="433"/>
      <point x="574.0" y="433" type="curve" smooth="yes"/>
      <point x="590.0" y="433"/>
      <point x="603.0" y="424"/>
      <point x="603.0" y="407" type="curve" smooth="yes"/>
      <point x="603.0" y="96" type="line" smooth="yes"/>
      <point x="603.0" y="71"/>
      <point x="614.0" y="60"/>
      <point x="639.0" y="60" type="curve" smooth="yes"/>
      <point x="756.0" y="60" type="line" smooth="yes"/>
      <point x="781.0" y="60"/>
      <point x="792.0" y="71"/>
      <point x="792.0" y="96" type="curve" smooth="yes"/>
    </contour>
  </outline>
</glyph>
<glyph name="T" format="1">
  <advance width="855"/>
  <unicode hex="0054"/>
  <unicode hex="FF34"/>
  <outline>
    <contour>
      <point x="800.0" y="444" type="line" smooth="yes"/>
      <point x="800.0" y="469"/>
      <point x="789.0" y="480"/>
      <point x="764.0" y="480" type="curve" smooth="yes"/>
      <point x="273.0" y="480" type="line"/>
      <point x="273.0" y="624" type="line" smooth="yes"/>
      <point x="273.0" y="649"/>
      <point x="262.0" y="660"/>
      <point x="237.0" y="660" type="curve" smooth="yes"/>
      <point x="116.0" y="660" type="line" smooth="yes"/>
      <point x="91.0" y="660"/>
      <point x="80.0" y="649"/>
      <point x="80.0" y="624" type="curve" smooth="yes"/>
      <point x="80.0" y="96" type="line" smooth="yes"/>
      <point x="80.0" y="71"/>
      <point x="91.0" y="60"/>
      <point x="116.0" y="60" type="curve" smooth="yes"/>
      <point x="237.0" y="60" type="line" smooth="yes"/>
      <point x="262.0" y="60"/>
      <point x="273.0" y="71"/>
      <point x="273.0" y="96" type="curve" smooth="yes"/>
      <point x="273.0" y="240" type="line"/>
      <point x="764.0" y="240" type="line" smooth="yes"/>
      <point x="789.0" y="240"/>
      <point x="800.0" y="251"/>
      <point x="800.0" y="276" type="curve" smooth="yes"/>
    </contour>
  </outline>
</glyph>
<glyph name="U" format="1">
  <advance width="859"/>
  <unicode hex="0055"/>
  <unicode hex="FF35"/>
  <outline>
    <contour>
      <point x="598.0" y="660" type="curve" smooth="yes"/>
      <point x="103.0" y="660" type="line" smooth="yes"/>
      <point x="78.0" y="660"/>
      <point x="67.0" y="649"/>
      <point x="67.0" y="624" type="curve" smooth="yes"/>
      <point x="67.0" y="472" type="line" smooth="yes"/>
      <point x="67.0" y="446"/>
      <point x="78.0" y="436"/>
      <point x="103.0" y="436" type="curve" smooth="yes"/>
      <point x="559.0" y="436" type="line" smooth="yes"/>
      <point x="586.0" y="436"/>
      <point x="606.0" y="424"/>
      <point x="606.0" y="362" type="curve" smooth="yes"/>
      <point x="606.0" y="301"/>
      <point x="586.0" y="289"/>
      <point x="559.0" y="289" type="curve" smooth="yes"/>
      <point x="103.0" y="289" type="line" smooth="yes"/>
      <point x="78.0" y="289"/>
      <point x="67.0" y="278"/>
      <point x="67.0" y="253" type="curve" smooth="yes"/>
      <point x="67.0" y="96" type="line" smooth="yes"/>
      <point x="67.0" y="71"/>
      <point x="78.0" y="60"/>
      <point x="103.0" y="60" type="curve"/>
      <point x="598.0" y="60" type="line" smooth="yes"/>
      <point x="720.0" y="60"/>
      <point x="802.0" y="120"/>
      <point x="802.0" y="360" type="curve" smooth="yes"/>
      <point x="802.0" y="600"/>
      <point x="720.0" y="660"/>
    </contour>
  </outline>
</glyph>
<glyph name="V" format="1">
  <advance width="849"/>
  <unicode hex="0056"/>
  <unicode hex="FF36"/>
  <outline>
    <contour>
      <point x="787.0" y="487" type="line" smooth="yes"/>
      <point x="787.0" y="517"/>
      <point x="779.0" y="531"/>
      <point x="754.0" y="541" type="curve" smooth="yes"/>
      <point x="509.0" y="639" type="line" smooth="yes"/>
      <point x="449.0" y="663"/>
      <point x="430.0" y="661"/>
      <point x="367.0" y="661" type="curve" smooth="yes"/>
      <point x="103.0" y="661" type="line" smooth="yes"/>
      <point x="78.0" y="661"/>
      <point x="67.0" y="651"/>
      <point x="67.0" y="625" type="curve" smooth="yes"/>
      <point x="67.0" y="476" type="line" smooth="yes"/>
      <point x="67.0" y="451"/>
      <point x="78.0" y="440"/>
      <point x="103.0" y="440" type="curve" smooth="yes"/>
      <point x="378.0" y="440" type="line" smooth="yes"/>
      <point x="392.0" y="440"/>
      <point x="404.0" y="438"/>
      <point x="419.0" y="432" type="curve" smooth="yes"/>
      <point x="560.0" y="389" type="line" smooth="yes"/>
      <point x="573.0" y="384"/>
      <point x="577.0" y="381"/>
      <point x="577.0" y="370" type="curve" smooth="yes"/>
      <point x="577.0" y="355" type="line" smooth="yes"/>
      <point x="577.0" y="344"/>
      <point x="573.0" y="341"/>
      <point x="560.0" y="336" type="curve" smooth="yes"/>
      <point x="420.0" y="293" type="line" smooth="yes"/>
      <point x="405.0" y="287"/>
      <point x="393.0" y="285"/>
      <point x="379.0" y="285" type="curve" smooth="yes"/>
      <point x="103.0" y="285" type="line" smooth="yes"/>
      <point x="78.0" y="285"/>
      <point x="67.0" y="271"/>
      <point x="67.0" y="246" type="curve" smooth="yes"/>
      <point x="67.0" y="95" type="line" smooth="yes"/>
      <point x="67.0" y="70"/>
      <point x="78.0" y="59"/>
      <point x="103.0" y="59" type="curve" smooth="yes"/>
      <point x="367.0" y="59" type="line" smooth="yes"/>
      <point x="430.0" y="59"/>
      <point x="449.0" y="67"/>
      <point x="509.0" y="91" type="curve" smooth="yes"/>
      <point x="754.0" y="179" type="line" smooth="yes"/>
      <point x="779.0" y="189"/>
      <point x="787.0" y="204"/>
      <point x="787.0" y="234" type="curve" smooth="yes"/>
    </contour>
  </outline>
</glyph>
<glyph name="W" format="1">
  <advance width="854"/>
  <unicode hex="0057"/>
  <unicode hex="FF37"/>
  <outline>
    <contour>
      <point x="67.0" y="513" type="line" smooth="yes"/>
      <point x="67.0" y="488"/>
      <point x="78.0" y="482"/>
      <point x="103.0" y="482" type="curve" smooth="yes"/>
      <point x="415.0" y="479" type="line"/>
      <point x="446.0" y="479" type="line"/>
      <point x="328.0" y="439" type="line"/>
      <point x="306.0" y="426"/>
      <point x="297.0" y="412"/>
      <point x="297.0" y="386" type="curve" smooth="yes"/>
      <point x="297.0" y="355" type="line" smooth="yes"/>
      <point x="297.0" y="329"/>
      <point x="306.0" y="315"/>
      <point x="328.0" y="302" type="curve"/>
      <point x="446.0" y="262" type="line"/>
      <point x="415.0" y="262" type="line"/>
      <point x="103.0" y="258" type="line" smooth="yes"/>
      <point x="78.0" y="258"/>
      <point x="67.0" y="247"/>
      <point x="67.0" y="222" type="curve" smooth="yes"/>
      <point x="67.0" y="74" type="line" smooth="yes"/>
      <point x="67.0" y="49"/>
      <point x="78.0" y="38"/>
      <point x="103.0" y="38" type="curve" smooth="yes"/>
      <point x="469.0" y="42" type="line"/>
      <point x="531.0" y="42"/>
      <point x="545.0" y="42"/>
      <point x="613.0" y="60" type="curve" smooth="yes"/>
      <point x="751.0" y="96" type="line" smooth="yes"/>
      <point x="775.0" y="102"/>
      <point x="787.0" y="117"/>
      <point x="787.0" y="142" type="curve" smooth="yes"/>
      <point x="787.0" y="250" type="line" smooth="yes"/>
      <point x="787.0" y="281"/>
      <point x="777.0" y="294"/>
      <point x="757.0" y="300" type="curve" smooth="yes"/>
      <point x="581.0" y="353" type="line"/>
      <point x="581.0" y="377" type="line"/>
      <point x="757.0" y="430" type="line" smooth="yes"/>
      <point x="778.0" y="436"/>
      <point x="787.0" y="449"/>
      <point x="787.0" y="480" type="curve" smooth="yes"/>
      <point x="787.0" y="580" type="line" smooth="yes"/>
      <point x="787.0" y="605"/>
      <point x="775.0" y="618"/>
      <point x="751.0" y="624" type="curve" smooth="yes"/>
      <point x="615.0" y="660" type="line" smooth="yes"/>
      <point x="547.0" y="678"/>
      <point x="532.0" y="678"/>
      <point x="471.0" y="678" type="curve"/>
      <point x="103.0" y="682" type="line" smooth="yes"/>
      <point x="78.0" y="682"/>
      <point x="67.0" y="672"/>
      <point x="67.0" y="646" type="curve" smooth="yes"/>
    </contour>
    <contour>
      <point x="40.0" y="365.0" type="move" name="top"/>
    </contour>
    <contour>
      <point x="787.0" y="365.0" type="move" name="bottom"/>
    </contour>
  </outline>
</glyph>
<glyph name="X" format="1">
  <advance width="854"/>
  <unicode hex="0058"/>
  <unicode hex="FF38"/>
  <outline>
    <contour>
      <point x="751.0" y="284" type="curve" smooth="yes"/>
      <point x="652.0" y="284" type="line" smooth="yes"/>
      <point x="638.0" y="284"/>
      <point x="624.0" y="285"/>
      <point x="610.0" y="293" type="curve" smooth="yes"/>
      <point x="547.0" y="330" type="line" smooth="yes"/>
      <point x="535.0" y="337"/>
      <point x="530.0" y="343"/>
      <point x="530.0" y="354" type="curve" smooth="yes"/>
      <point x="530.0" y="368" type="line" smooth="yes"/>
      <point x="530.0" y="379"/>
      <point x="534.0" y="385"/>
      <point x="547.0" y="392" type="curve" smooth="yes"/>
      <point x="610.0" y="427" type="line" smooth="yes"/>
      <point x="625.0" y="435"/>
      <point x="638.0" y="436"/>
      <point x="652.0" y="436" type="curve" smooth="yes"/>
      <point x="751.0" y="436" type="line" smooth="yes"/>
      <point x="776.0" y="436"/>
      <point x="787.0" y="447"/>
      <point x="787.0" y="472" type="curve" smooth="yes"/>
      <point x="787.0" y="624" type="line" smooth="yes"/>
      <point x="787.0" y="649"/>
      <point x="776.0" y="660"/>
      <point x="751.0" y="660" type="curve" smooth="yes"/>
      <point x="644.0" y="660" type="line" smooth="yes"/>
      <point x="582.0" y="660"/>
      <point x="564.0" y="648"/>
      <point x="521.0" y="622" type="curve" smooth="yes"/>
      <point x="413.0" y="556" type="line"/>
      <point x="303.0" y="622" type="line" smooth="yes"/>
      <point x="260.0" y="648"/>
      <point x="242.0" y="660"/>
      <point x="180.0" y="660" type="curve" smooth="yes"/>
      <point x="103.0" y="660" type="line" smooth="yes"/>
      <point x="78.0" y="660"/>
      <point x="67.0" y="649"/>
      <point x="67.0" y="624" type="curve" smooth="yes"/>
      <point x="67.0" y="472" type="line" smooth="yes"/>
      <point x="67.0" y="447"/>
      <point x="78.0" y="436"/>
      <point x="103.0" y="436" type="curve" smooth="yes"/>
      <point x="172.0" y="436" type="line" smooth="yes"/>
      <point x="186.0" y="436"/>
      <point x="200.0" y="435"/>
      <point x="214.0" y="427" type="curve" smooth="yes"/>
      <point x="277.0" y="391" type="line" smooth="yes"/>
      <point x="289.0" y="384"/>
      <point x="294.0" y="378"/>
      <point x="294.0" y="367" type="curve" smooth="yes"/>
      <point x="294.0" y="355" type="line" smooth="yes"/>
      <point x="294.0" y="344"/>
      <point x="288.0" y="337"/>
      <point x="277.0" y="331" type="curve" smooth="yes"/>
      <point x="214.0" y="295" type="line" smooth="yes"/>
      <point x="201.0" y="287"/>
      <point x="186.0" y="286"/>
      <point x="172.0" y="286" type="curve" smooth="yes"/>
      <point x="103.0" y="286" type="line" smooth="yes"/>
      <point x="78.0" y="286"/>
      <point x="67.0" y="275"/>
      <point x="67.0" y="250" type="curve" smooth="yes"/>
      <point x="67.0" y="96" type="line" smooth="yes"/>
      <point x="67.0" y="71"/>
      <point x="78.0" y="60"/>
      <point x="103.0" y="60" type="curve" smooth="yes"/>
      <point x="180.0" y="60" type="line" smooth="yes"/>
      <point x="242.0" y="60"/>
      <point x="260.0" y="72"/>
      <point x="303.0" y="98" type="curve" smooth="yes"/>
      <point x="412.0" y="164" type="line"/>
      <point x="521.0" y="98" type="line" smooth="yes"/>
      <point x="564.0" y="72"/>
      <point x="582.0" y="60"/>
      <point x="644.0" y="60" type="curve" smooth="yes"/>
      <point x="751.0" y="60" type="line" smooth="yes"/>
      <point x="776.0" y="60"/>
      <point x="787.0" y="71"/>
      <point x="787.0" y="96" type="curve" smooth="yes"/>
      <point x="787.0" y="248" type="line" smooth="yes"/>
      <point x="787.0" y="273"/>
      <point x="776.0" y="284"/>
    </contour>
    <contour>
      <point x="40.0" y="368.0" type="move" name="top"/>
    </contour>
    <contour>
      <point x="787.0" y="368.0" type="move" name="bottom"/>
    </contour>
  </outline>
</glyph>
<glyph name="Y" format="1">
  <advance width="842"/>
  <unicode hex="0059"/>
  <unicode hex="FF39"/>
  <outline>
    <contour>
      <point x="418.0" y="97" type="curve" smooth="yes"/>
      <point x="622.0" y="243" type="line"/>
      <point x="751.0" y="243" type="line" smooth="yes"/>
      <point x="776.0" y="243"/>
      <point x="787.0" y="253"/>
      <point x="787.0" y="279" type="curve" smooth="yes"/>
      <point x="787.0" y="441" type="line" smooth="yes"/>
      <point x="787.0" y="466"/>
      <point x="776.0" y="477"/>
      <point x="751.0" y="477" type="curve" smooth="yes"/>
      <point x="623.0" y="477" type="line"/>
      <point x="418.0" y="623" type="line" smooth="yes"/>
      <point x="377.0" y="653"/>
      <point x="347.0" y="661"/>
      <point x="295.0" y="661" type="curve" smooth="yes"/>
      <point x="103.0" y="661" type="line" smooth="yes"/>
      <point x="78.0" y="661"/>
      <point x="67.0" y="650"/>
      <point x="67.0" y="625" type="curve" smooth="yes"/>
      <point x="67.0" y="476" type="line" smooth="yes"/>
      <point x="67.0" y="451"/>
      <point x="78.0" y="440"/>
      <point x="103.0" y="440" type="curve" smooth="yes"/>
      <point x="267.0" y="440" type="line" smooth="yes"/>
      <point x="281.0" y="440"/>
      <point x="295.0" y="440"/>
      <point x="309.0" y="431" type="curve" smooth="yes"/>
      <point x="381.0" y="391" type="line" smooth="yes"/>
      <point x="393.0" y="384"/>
      <point x="398.0" y="378"/>
      <point x="398.0" y="367" type="curve"/>
      <point x="398.0" y="357" type="line" smooth="yes"/>
      <point x="398.0" y="346"/>
      <point x="393.0" y="340"/>
      <point x="381.0" y="333" type="curve" smooth="yes"/>
      <point x="309.0" y="294" type="line" smooth="yes"/>
      <point x="295.0" y="285"/>
      <point x="281.0" y="285"/>
      <point x="267.0" y="285" type="curve" smooth="yes"/>
      <point x="103.0" y="285" type="line" smooth="yes"/>
      <point x="78.0" y="285"/>
      <point x="67.0" y="274"/>
      <point x="67.0" y="249" type="curve" smooth="yes"/>
      <point x="67.0" y="95" type="line" smooth="yes"/>
      <point x="67.0" y="70"/>
      <point x="78.0" y="59"/>
      <point x="103.0" y="59" type="curve" smooth="yes"/>
      <point x="295.0" y="59" type="line" smooth="yes"/>
      <point x="347.0" y="59"/>
      <point x="377.0" y="66"/>
    </contour>
    <contour>
      <point x="40.0" y="212.0" type="move" name="top"/>
    </contour>
    <contour>
      <point x="40.0" y="212.0" type="move" name="top"/>
    </contour>
    <contour>
      <point x="787.0" y="212.0" type="move" name="bottom"/>
    </contour>
    <contour>
      <point x="787.0" y="212.0" type="move" name="bottom"/>
    </contour>
  </outline>
</glyph>
<glyph name="Z" format="1">
  <advance width="880"/>
  <unicode hex="005A"/>
  <unicode hex="FF3A"/>
  <outline>
    <contour>
      <point x="800.0" y="624" type="line" smooth="yes"/>
      <point x="800.0" y="649"/>
      <point x="789.0" y="660"/>
      <point x="764.0" y="660" type="curve" smooth="yes"/>
      <point x="645.0" y="660" type="line" smooth="yes"/>
      <point x="620.0" y="660"/>
      <point x="609.0" y="649"/>
      <point x="609.0" y="624" type="curve" smooth="yes"/>
      <point x="609.0" y="353" type="line"/>
      <point x="328.0" y="627" type="line" smooth="yes"/>
      <point x="309.0" y="645"/>
      <point x="292.0" y="652"/>
      <point x="265.0" y="652" type="curve" smooth="yes"/>
      <point x="116.0" y="652" type="line" smooth="yes"/>
      <point x="91.0" y="652"/>
      <point x="80.0" y="641"/>
      <point x="80.0" y="616" type="curve" smooth="yes"/>
      <point x="80.0" y="104" type="line" smooth="yes"/>
      <point x="80.0" y="79"/>
      <point x="91.0" y="68"/>
      <point x="116.0" y="68" type="curve"/>
      <point x="237.0" y="68" type="line"/>
      <point x="262.0" y="68"/>
      <point x="273.0" y="79"/>
      <point x="273.0" y="104" type="curve" smooth="yes"/>
      <point x="273.0" y="370" type="line"/>
      <point x="568.0" y="85" type="line" smooth="yes"/>
      <point x="587.0" y="67"/>
      <point x="604.0" y="60"/>
      <point x="630.0" y="60" type="curve"/>
      <point x="764.0" y="60" type="line"/>
      <point x="789.0" y="60"/>
      <point x="800.0" y="71"/>
      <point x="800.0" y="96" type="curve" smooth="yes"/>
    </contour>
  </outline>
</glyph>
<glyph name="bracketleft" format="1">
  <advance width="429"/>
  <unicode hex="005B"/>
  <outline>
    <contour>
      <point x="276.0" y="610" type="line"/>
      <point x="348.0" y="610" type="line" smooth="yes"/>
      <point x="373.0" y="610"/>
      <point x="384.0" y="621"/>
      <point x="384.0" y="646" type="curve" smooth="yes"/>
      <point x="384.0" y="765" type="line" smooth="yes"/>
      <point x="384.0" y="790"/>
      <point x="373.0" y="801"/>
      <point x="348.0" y="801" type="curve" smooth="yes"/>
      <point x="84.0" y="801" type="line" smooth="yes"/>
      <point x="59.0" y="801"/>
      <point x="48.0" y="790"/>
      <point x="48.0" y="765" type="curve" smooth="yes"/>
      <point x="48.0" y="-44" type="line" smooth="yes"/>
      <point x="48.0" y="-69"/>
      <point x="59.0" y="-80"/>
      <point x="84.0" y="-80" type="curve" smooth="yes"/>
      <point x="348.0" y="-80" type="line" smooth="yes"/>
      <point x="373.0" y="-80"/>
      <point x="384.0" y="-69"/>
      <point x="384.0" y="-44" type="curve" smooth="yes"/>
      <point x="384.0" y="78" type="line" smooth="yes"/>
      <point x="384.0" y="103"/>
      <point x="373.0" y="114"/>
      <point x="348.0" y="114" type="curve" smooth="yes"/>
      <point x="276.0" y="114" type="line"/>
    </contour>
  </outline>
</glyph>
<glyph name="backslash" format="1">
  <advance width="909"/>
  <unicode hex="005C"/>
  <outline>
    <contour>
      <point x="41.0" y="408" type="line" smooth="yes"/>
      <point x="16.0" y="405"/>
      <point x="5.0" y="397"/>
      <point x="5.0" y="372" type="curve" smooth="yes"/>
      <point x="5.0" y="227" type="line" smooth="yes"/>
      <point x="5.0" y="202"/>
      <point x="16.0" y="188"/>
      <point x="41.0" y="191" type="curve" smooth="yes"/>
      <point x="869.0" y="311" type="line" smooth="yes"/>
      <point x="894.0" y="314"/>
      <point x="905.0" y="322"/>
      <point x="905.0" y="347" type="curve" smooth="yes"/>
      <point x="905.0" y="492" type="line" smooth="yes"/>
      <point x="905.0" y="517"/>
      <point x="894.0" y="531"/>
      <point x="869.0" y="528" type="curve" smooth="yes"/>
    </contour>
  </outline>
</glyph>
<glyph name="bracketright" format="2">
  <advance width="429"/>
  <unicode hex="005D"/>
  <outline>
    <contour>
      <point x="153.0" y="114" type="line"/>
      <point x="81.0" y="114" type="line" smooth="yes"/>
      <point x="56.0" y="114"/>
      <point x="45.0" y="103"/>
      <point x="45.0" y="78" type="curve" smooth="yes"/>
      <point x="45.0" y="-44" type="line" smooth="yes"/>
      <point x="45.0" y="-69"/>
      <point x="56.0" y="-80"/>
      <point x="81.0" y="-80" type="curve" smooth="yes"/>
      <point x="345.0" y="-80" type="line" smooth="yes"/>
      <point x="370.0" y="-80"/>
      <point x="381.0" y="-69"/>
      <point x="381.0" y="-44" type="curve" smooth="yes"/>
      <point x="381.0" y="765" type="line" smooth="yes"/>
      <point x="381.0" y="790"/>
      <point x="370.0" y="801"/>
      <point x="345.0" y="801" type="curve" smooth="yes"/>
      <point x="81.0" y="801" type="line" smooth="yes"/>
      <point x="56.0" y="801"/>
      <point x="45.0" y="790"/>
      <point x="45.0" y="765" type="curve" smooth="yes"/>
      <point x="45.0" y="646" type="line" smooth="yes"/>
      <point x="45.0" y="621"/>
      <point x="56.0" y="610"/>
      <point x="81.0" y="610" type="curve" smooth="yes"/>
      <point x="153.0" y="610" type="line"/>
    </contour>
  </outline>
</glyph>
<glyph name="asciicircum" format="2">
  <advance width="686"/>
  <unicode hex="005E"/>
  <outline>
    <contour>
      <point x="569.0" y="43" type="line"/>
      <point x="594.0" y="38"/>
      <point x="605.0" y="48"/>
      <point x="605.0" y="73" type="curve" smooth="yes"/>
      <point x="606.0" y="205" type="line" smooth="yes"/>
      <point x="607.0" y="231"/>
      <point x="596.0" y="243"/>
      <point x="571.0" y="246" type="curve" smooth="yes"/>
      <point x="282.0" y="324" type="line" smooth="yes"/>
      <point x="268.0" y="327"/>
      <point x="264.0" y="330"/>
      <point x="265.0" y="343" type="curve" smooth="yes"/>
      <point x="264.0" y="355"/>
      <point x="268.0" y="358"/>
      <point x="282.0" y="361" type="curve" smooth="yes"/>
      <point x="571.0" y="439" type="line" smooth="yes"/>
      <point x="596.0" y="442"/>
      <point x="607.0" y="454"/>
      <point x="606.0" y="480" type="curve" smooth="yes"/>
      <point x="605.0" y="612" type="line" smooth="yes"/>
      <point x="605.0" y="637"/>
      <point x="594.0" y="647"/>
      <point x="569.0" y="642" type="curve" smooth="yes"/>
      <point x="188.0" y="534" type="line" smooth="yes"/>
      <point x="105.0" y="509"/>
      <point x="60.0" y="478"/>
      <point x="60.0" y="379" type="curve" smooth="yes"/>
      <point x="60.0" y="306" type="line" smooth="yes"/>
      <point x="60.0" y="207"/>
      <point x="105.0" y="175"/>
      <point x="188.0" y="151" type="curve" smooth="yes"/>
    </contour>
  </outline>
</glyph>
<glyph name="grave" format="2">
  <advance width="262"/>
  <unicode hex="0060"/>
  <anchor x="241.0" y="360.0" name="_top"/>
  <anchor x="988.0" y="360.0" name="_bottom"/>
  <outline>
    <contour>
      <point x="235.0" y="535" type="line" smooth="yes"/>
      <point x="238.0" y="558"/>
      <point x="225.0" y="569"/>
      <point x="202.0" y="569" type="curve" smooth="yes"/>
      <point x="106.0" y="569" type="line" smooth="yes"/>
      <point x="81.0" y="569"/>
      <point x="73.0" y="558"/>
      <point x="70.0" y="533" type="curve" smooth="yes"/>
      <point x="27.0" y="184" type="line" smooth="yes"/>
      <point x="24.0" y="161"/>
      <point x="37.0" y="150"/>
      <point x="60.0" y="150" type="curve" smooth="yes"/>
      <point x="156.0" y="150" type="line" smooth="yes"/>
      <point x="181.0" y="150"/>
      <point x="189.0" y="161"/>
      <point x="192.0" y="186" type="curve" smooth="yes"/>
    </contour>
  </outline>
</glyph>
<glyph name="braceleft" format="2">
  <advance width="455"/>
  <unicode hex="007B"/>
  <outline>
    <contour>
      <point x="312.0" y="560" type="line"/>
      <point x="312.0" y="595"/>
      <point x="321.0" y="610"/>
      <point x="353.0" y="610" type="curve" smooth="yes"/>
      <point x="374.0" y="610" type="line" smooth="yes"/>
      <point x="399.0" y="610"/>
      <point x="410.0" y="621"/>
      <point x="410.0" y="646" type="curve" smooth="yes"/>
      <point x="410.0" y="765" type="line" smooth="yes"/>
      <point x="410.0" y="790"/>
      <point x="399.0" y="801"/>
      <point x="374.0" y="801" type="curve" smooth="yes"/>
      <point x="330.0" y="801" type="line" smooth="yes"/>
      <point x="141.0" y="801"/>
      <point x="84.0" y="718"/>
      <point x="84.0" y="597" type="curve" smooth="yes"/>
      <point x="84.0" y="467" type="line"/>
      <point x="41.0" y="454"/>
      <point x="20.0" y="428"/>
      <point x="20.0" y="380" type="curve" smooth="yes"/>
      <point x="20.0" y="345" type="line" smooth="yes"/>
      <point x="20.0" y="297"/>
      <point x="41.0" y="272"/>
      <point x="84.0" y="259" type="curve"/>
      <point x="84.0" y="126" type="line" smooth="yes"/>
      <point x="84.0" y="4"/>
      <point x="141.0" y="-80"/>
      <point x="330.0" y="-80" type="curve" smooth="yes"/>
      <point x="374.0" y="-80" type="line" smooth="yes"/>
      <point x="399.0" y="-80"/>
      <point x="410.0" y="-69"/>
      <point x="410.0" y="-44" type="curve" smooth="yes"/>
      <point x="410.0" y="78" type="line" smooth="yes"/>
      <point x="410.0" y="103"/>
      <point x="399.0" y="114"/>
      <point x="374.0" y="114" type="curve" smooth="yes"/>
      <point x="353.0" y="114" type="line" smooth="yes"/>
      <point x="321.0" y="114"/>
      <point x="312.0" y="129"/>
      <point x="312.0" y="164" type="curve" smooth="yes"/>
      <point x="312.0" y="281" type="line" smooth="yes"/>
      <point x="312.0" y="321"/>
      <point x="302.0" y="337"/>
      <point x="267.0" y="343" type="curve" smooth="yes"/>
      <point x="234.0" y="349" type="line"/>
      <point x="224.0" y="350"/>
      <point x="221.0" y="354"/>
      <point x="221.0" y="363" type="curve" smooth="yes"/>
      <point x="221.0" y="372"/>
      <point x="224.0" y="375"/>
      <point x="234.0" y="377" type="curve" smooth="yes"/>
      <point x="267.0" y="383" type="line" smooth="yes"/>
      <point x="302.0" y="389"/>
      <point x="312.0" y="405"/>
      <point x="312.0" y="445" type="curve" smooth="yes"/>
    </contour>
  </outline>
</glyph>
<glyph name="bar" format="2">
  <advance width="1030"/>
  <unicode hex="007C"/>
  <outline>
    <contour>
      <point x="101.0" y="468" type="line" smooth="yes"/>
      <point x="76.0" y="468"/>
      <point x="65.0" y="457"/>
      <point x="65.0" y="432" type="curve" smooth="yes"/>
      <point x="65.0" y="287" type="line" smooth="yes"/>
      <point x="65.0" y="262"/>
      <point x="76.0" y="251"/>
      <point x="101.0" y="251" type="curve" smooth="yes"/>
      <point x="929.0" y="251" type="line" smooth="yes"/>
      <point x="954.0" y="251"/>
      <point x="965.0" y="262"/>
      <point x="965.0" y="287" type="curve" smooth="yes"/>
      <point x="965.0" y="432" type="line" smooth="yes"/>
      <point x="965.0" y="457"/>
      <point x="954.0" y="468"/>
      <point x="929.0" y="468" type="curve"/>
    </contour>
  </outline>
</glyph>
<glyph name="braceright" format="1">
  <advance width="455"/>
  <unicode hex="007D"/>
  <outline>
    <contour>
      <point x="143.0" y="560" type="curve"/>
      <point x="143.0" y="445" type="line"/>
      <point x="143.0" y="405"/>
      <point x="153.0" y="389"/>
      <point x="188.0" y="383" type="curve" smooth="yes"/>
      <point x="221.0" y="377" type="line" smooth="yes"/>
      <point x="231.0" y="375"/>
      <point x="234.0" y="372"/>
      <point x="234.0" y="363" type="curve" smooth="yes"/>
      <point x="234.0" y="354"/>
      <point x="231.0" y="350"/>
      <point x="221.0" y="349" type="curve"/>
      <point x="188.0" y="343" type="line" smooth="yes"/>
      <point x="153.0" y="337"/>
      <point x="143.0" y="321"/>
      <point x="143.0" y="281" type="curve" smooth="yes"/>
      <point x="143.0" y="164" type="line" smooth="yes"/>
      <point x="143.0" y="129"/>
      <point x="134.0" y="114"/>
      <point x="102.0" y="114" type="curve" smooth="yes"/>
      <point x="81.0" y="114" type="line" smooth="yes"/>
      <point x="56.0" y="114"/>
      <point x="45.0" y="103"/>
      <point x="45.0" y="78" type="curve" smooth="yes"/>
      <point x="45.0" y="-44" type="line" smooth="yes"/>
      <point x="45.0" y="-69"/>
      <point x="56.0" y="-80"/>
      <point x="81.0" y="-80" type="curve" smooth="yes"/>
      <point x="125.0" y="-80" type="line" smooth="yes"/>
      <point x="314.0" y="-80"/>
      <point x="371.0" y="4"/>
      <point x="371.0" y="126" type="curve" smooth="yes"/>
      <point x="371.0" y="259" type="line"/>
      <point x="414.0" y="272"/>
      <point x="435.0" y="297"/>
      <point x="435.0" y="345" type="curve" smooth="yes"/>
      <point x="435.0" y="380" type="line" smooth="yes"/>
      <point x="435.0" y="428"/>
      <point x="414.0" y="454"/>
      <point x="371.0" y="467" type="curve"/>
      <point x="371.0" y="597" type="line" smooth="yes"/>
      <point x="371.0" y="718"/>
      <point x="314.0" y="801"/>
      <point x="125.0" y="801" type="curve" smooth="yes"/>
      <point x="81.0" y="801" type="line" smooth="yes"/>
      <point x="56.0" y="801"/>
      <point x="45.0" y="790"/>
      <point x="45.0" y="765" type="curve" smooth="yes"/>
      <point x="45.0" y="646" type="line" smooth="yes"/>
      <point x="45.0" y="621"/>
      <point x="56.0" y="610"/>
      <point x="81.0" y="610" type="curve" smooth="yes"/>
      <point x="102.0" y="610" type="line" smooth="yes"/>
      <point x="134.0" y="610"/>
      <point x="143.0" y="595"/>
    </contour>
  </outline>
</glyph>
<glyph name="asciitilde" format="1">
  <advance width="363"/>
  <unicode hex="007E"/>
  <outline>
    <contour>
      <point x="274.0" y="360" type="line"/>
      <point x="277.0" y="383" type="line" smooth="yes"/>
      <point x="294.0" y="496"/>
      <point x="301.0" y="517"/>
      <point x="265.0" y="620" type="curve" smooth="yes"/>
      <point x="258.0" y="638"/>
      <point x="247.0" y="657"/>
      <point x="212.0" y="657" type="curve" smooth="yes"/>
      <point x="113.0" y="657" type="line" smooth="yes"/>
      <point x="83.0" y="657"/>
      <point x="72.0" y="640"/>
      <point x="82.0" y="605" type="curve" smooth="yes"/>
      <point x="107.0" y="522"/>
      <point x="111.0" y="516"/>
      <point x="93.0" y="391" type="curve" smooth="yes"/>
      <point x="89.0" y="360" type="line"/>
      <point x="86.0" y="336" type="line" smooth="yes"/>
      <point x="69.0" y="222"/>
      <point x="62.0" y="203"/>
      <point x="98.0" y="100" type="curve" smooth="yes"/>
      <point x="105.0" y="80"/>
      <point x="116.0" y="63"/>
      <point x="151.0" y="63" type="curve" smooth="yes"/>
      <point x="257.0" y="63" type="line" smooth="yes"/>
      <point x="280.0" y="63"/>
      <point x="291.0" y="80"/>
      <point x="282.0" y="114" type="curve"/>
      <point x="259.0" y="189"/>
      <point x="253.0" y="212"/>
      <point x="269.0" y="320" type="curve"/>
    </contour>
  </outline>
</glyph>
<glyph name="exclamdown" format="2">
  <advance width="830"/>
  <unicode hex="00A1"/>
  <outline>
    <contour>
      <point x="317.0" y="283" type="line" smooth="yes"/>
      <point x="317.0" y="258"/>
      <point x="328.0" y="247"/>
      <point x="353.0" y="246" type="curve" smooth="yes"/>
      <point x="739.0" y="231" type="line" smooth="yes"/>
      <point x="764.0" y="230"/>
      <point x="775.0" y="240"/>
      <point x="775.0" y="265" type="curve" smooth="yes"/>
      <point x="775.0" y="456" type="line" smooth="yes"/>
      <point x="775.0" y="481"/>
      <point x="764.0" y="491"/>
      <point x="739.0" y="490" type="curve" smooth="yes"/>
      <point x="353.0" y="476" type="line" smooth="yes"/>
      <point x="328.0" y="475"/>
      <point x="317.0" y="463"/>
      <point x="317.0" y="438" type="curve" smooth="yes"/>
    </contour>
    <contour>
      <point x="55.0" y="269" type="line" smooth="yes"/>
      <point x="55.0" y="244"/>
      <point x="66.0" y="233"/>
      <point x="91.0" y="233" type="curve"/>
      <point x="222.0" y="233" type="line"/>
      <point x="248.0" y="233"/>
      <point x="258.0" y="244"/>
      <point x="258.0" y="269" type="curve" smooth="yes"/>
      <point x="258.0" y="453" type="line" smooth="yes"/>
      <point x="258.0" y="478"/>
      <point x="248.0" y="489"/>
      <point x="222.0" y="489" type="curve" smooth="yes"/>
      <point x="91.0" y="489" type="line" smooth="yes"/>
      <point x="66.0" y="489"/>
      <point x="55.0" y="478"/>
      <point x="55.0" y="453" type="curve" smooth="yes"/>
    </contour>
  </outline>
</glyph>
<glyph name="cent" format="2">
  <advance width="930"/>
  <unicode hex="00A2"/>
  <outline>
    <contour>
      <point x="839.0" y="300" type="line" smooth="yes"/>
      <point x="864.0" y="300"/>
      <point x="875.0" y="311"/>
      <point x="875.0" y="336" type="curve" smooth="yes"/>
      <point x="875.0" y="481" type="line" smooth="yes"/>
      <point x="875.0" y="506"/>
      <point x="864.0" y="517"/>
      <point x="839.0" y="517" type="curve" smooth="yes"/>
      <point x="785.0" y="517" type="line"/>
      <point x="785.0" y="594" type="line" smooth="yes"/>
      <point x="785.0" y="619"/>
      <point x="774.0" y="630"/>
      <point x="749.0" y="630" type="curve" smooth="yes"/>
      <point x="630.0" y="630" type="line" smooth="yes"/>
      <point x="605.0" y="630"/>
      <point x="594.0" y="619"/>
      <point x="594.0" y="594" type="curve" smooth="yes"/>
      <point x="594.0" y="393" type="line" smooth="yes"/>
      <point x="594.0" y="341"/>
      <point x="574.0" y="332"/>
      <point x="546.0" y="332" type="curve" smooth="yes"/>
      <point x="388.0" y="332" type="line" smooth="yes"/>
      <point x="362.0" y="332"/>
      <point x="338.0" y="341"/>
      <point x="338.0" y="393" type="curve" smooth="yes"/>
      <point x="338.0" y="594" type="line" smooth="yes"/>
      <point x="338.0" y="619"/>
      <point x="327.0" y="630"/>
      <point x="302.0" y="630" type="curve" smooth="yes"/>
      <point x="181.0" y="630" type="line" smooth="yes"/>
      <point x="156.0" y="630"/>
      <point x="145.0" y="619"/>
      <point x="145.0" y="594" type="curve" smooth="yes"/>
      <point x="145.0" y="517" type="line"/>
      <point x="91.0" y="517" type="line" smooth="yes"/>
      <point x="66.0" y="517"/>
      <point x="55.0" y="506"/>
      <point x="55.0" y="481" type="curve" smooth="yes"/>
      <point x="55.0" y="336" type="line" smooth="yes"/>
      <point x="55.0" y="311"/>
      <point x="66.0" y="300"/>
      <point x="91.0" y="300" type="curve" smooth="yes"/>
      <point x="147.0" y="300" type="line"/>
      <point x="161.0" y="151"/>
      <point x="240.0" y="104"/>
      <point x="350.0" y="104" type="curve" smooth="yes"/>
      <point x="581.0" y="104" type="line" smooth="yes"/>
      <point x="691.0" y="104"/>
      <point x="769.0" y="151"/>
      <point x="783.0" y="300" type="curve"/>
    </contour>
  </outline>
</glyph>
<glyph name="sterling" format="1">
  <advance width="880"/>
  <unicode hex="00A3"/>
  <outline>
    <contour>
      <point x="535.0" y="68" type="curve"/>
      <point x="535.0" y="81" type="line"/>
      <point x="764.0" y="81" type="line"/>
      <point x="789.0" y="81"/>
      <point x="800.0" y="92"/>
      <point x="800.0" y="117" type="curve" smooth="yes"/>
      <point x="800.0" y="626" type="line" smooth="yes"/>
      <point x="800.0" y="651"/>
      <point x="789.0" y="662"/>
      <point x="764.0" y="662" type="curve" smooth="yes"/>
      <point x="509.0" y="662" type="line" smooth="yes"/>
      <point x="484.0" y="662"/>
      <point x="473.0" y="651"/>
      <point x="473.0" y="626" type="curve" smooth="yes"/>
      <point x="473.0" y="481" type="line" smooth="yes"/>
      <point x="473.0" y="456"/>
      <point x="484.0" y="445"/>
      <point x="509.0" y="445" type="curve" smooth="yes"/>
      <point x="611.0" y="445" type="line"/>
      <point x="611.0" y="308" type="line"/>
      <point x="535.0" y="308" type="line"/>
      <point x="535.0" y="356" type="line" smooth="yes"/>
      <point x="535.0" y="381"/>
      <point x="525.0" y="392"/>
      <point x="499.0" y="392" type="curve" smooth="yes"/>
      <point x="392.0" y="392" type="line" smooth="yes"/>
      <point x="366.0" y="392"/>
      <point x="356.0" y="381"/>
      <point x="356.0" y="356" type="curve" smooth="yes"/>
      <point x="356.0" y="308" type="line"/>
      <point x="323.0" y="308" type="line" smooth="yes"/>
      <point x="297.0" y="308"/>
      <point x="273.0" y="317"/>
      <point x="273.0" y="369" type="curve" smooth="yes"/>
      <point x="273.0" y="517" type="line" smooth="yes"/>
      <point x="273.0" y="542"/>
      <point x="262.0" y="553"/>
      <point x="237.0" y="553" type="curve" smooth="yes"/>
      <point x="116.0" y="553" type="line" smooth="yes"/>
      <point x="91.0" y="553"/>
      <point x="80.0" y="542"/>
      <point x="80.0" y="517" type="curve" smooth="yes"/>
      <point x="80.0" y="327" type="line" smooth="yes"/>
      <point x="80.0" y="138"/>
      <point x="163.0" y="81"/>
      <point x="284.0" y="81" type="curve"/>
      <point x="356.0" y="81" type="line"/>
      <point x="356.0" y="68" type="line" smooth="yes"/>
      <point x="356.0" y="43"/>
      <point x="367.0" y="32"/>
      <point x="392.0" y="32" type="curve" smooth="yes"/>
      <point x="499.0" y="32" type="line" smooth="yes"/>
      <point x="525.0" y="32"/>
      <point x="535.0" y="43"/>
    </contour>
  </outline>
</glyph>
<glyph name="currency" format="1">
  <advance width="884"/>
  <unicode hex="00A4"/>
  <outline>
    <contour>
      <point x="513.0" y="282" type="curve"/>
      <point x="372.0" y="282" type="line" smooth="yes"/>
      <point x="347.0" y="282"/>
      <point x="328.0" y="294"/>
      <point x="328.0" y="362" type="curve" smooth="yes"/>
      <point x="328.0" y="431"/>
      <point x="347.0" y="442"/>
      <point x="372.0" y="442" type="curve" smooth="yes"/>
      <point x="513.0" y="442" type="line" smooth="yes"/>
      <point x="539.0" y="442"/>
      <point x="558.0" y="431"/>
      <point x="558.0" y="362" type="curve" smooth="yes"/>
      <point x="558.0" y="294"/>
      <point x="539.0" y="282"/>
    </contour>
    <contour>
      <point x="215.0" y="8" type="curve" smooth="yes"/>
      <point x="309.0" y="102" type="line"/>
      <point x="320.0" y="101"/>
      <point x="331.0" y="100"/>
      <point x="343.0" y="100" type="curve" smooth="yes"/>
      <point x="542.0" y="100" type="line" smooth="yes"/>
      <point x="553.0" y="100"/>
      <point x="565.0" y="101"/>
      <point x="575.0" y="102" type="curve"/>
      <point x="669.0" y="8" type="line" smooth="yes"/>
      <point x="685.0" y="-9"/>
      <point x="700.0" y="-9"/>
      <point x="718.0" y="8" type="curve" smooth="yes"/>
      <point x="794.0" y="84" type="line" smooth="yes"/>
      <point x="812.0" y="103"/>
      <point x="811.0" y="117"/>
      <point x="794.0" y="133" type="curve" smooth="yes"/>
      <point x="709.0" y="218" type="line"/>
      <point x="720.0" y="255"/>
      <point x="726.0" y="302"/>
      <point x="726.0" y="362" type="curve" smooth="yes"/>
      <point x="726.0" y="421"/>
      <point x="720.0" y="467"/>
      <point x="710.0" y="503" type="curve"/>
      <point x="794.0" y="587" type="line" smooth="yes"/>
      <point x="811.0" y="603"/>
      <point x="812.0" y="617"/>
      <point x="794.0" y="635" type="curve" smooth="yes"/>
      <point x="718.0" y="711" type="line" smooth="yes"/>
      <point x="699.0" y="730"/>
      <point x="685.0" y="729"/>
      <point x="669.0" y="711" type="curve"/>
      <point x="579.0" y="621" type="line"/>
      <point x="567.0" y="622"/>
      <point x="555.0" y="623"/>
      <point x="542.0" y="623" type="curve"/>
      <point x="343.0" y="623" type="line" smooth="yes"/>
      <point x="330.0" y="623"/>
      <point x="317.0" y="622"/>
      <point x="305.0" y="621" type="curve"/>
      <point x="215.0" y="711" type="line"/>
      <point x="199.0" y="729"/>
      <point x="185.0" y="730"/>
      <point x="167.0" y="711" type="curve" smooth="yes"/>
      <point x="91.0" y="635" type="line" smooth="yes"/>
      <point x="72.0" y="617"/>
      <point x="73.0" y="603"/>
      <point x="91.0" y="587" type="curve"/>
      <point x="175.0" y="503" type="line"/>
      <point x="164.0" y="467"/>
      <point x="158.0" y="421"/>
      <point x="158.0" y="362" type="curve" smooth="yes"/>
      <point x="158.0" y="302"/>
      <point x="164.0" y="254"/>
      <point x="176.0" y="218" type="curve"/>
      <point x="91.0" y="133" type="line"/>
      <point x="73.0" y="117"/>
      <point x="73.0" y="102"/>
      <point x="91.0" y="84" type="curve" smooth="yes"/>
      <point x="167.0" y="8" type="line" smooth="yes"/>
      <point x="185.0" y="-10"/>
      <point x="199.0" y="-9"/>
    </contour>
  </outline>
</glyph>
<glyph name="yen" format="1">
  <advance width="880"/>
  <unicode hex="00A5"/>
  <outline>
    <contour>
      <point x="358.0" y="81" type="curve" smooth="yes"/>
      <point x="501.0" y="192" type="line"/>
      <point x="501.0" y="139" type="line" smooth="yes"/>
      <point x="501.0" y="114"/>
      <point x="512.0" y="103"/>
      <point x="537.0" y="103" type="curve" smooth="yes"/>
      <point x="634.0" y="103" type="line" smooth="yes"/>
      <point x="660.0" y="103"/>
      <point x="670.0" y="114"/>
      <point x="670.0" y="139" type="curve"/>
      <point x="670.0" y="248" type="line"/>
      <point x="764.0" y="248" type="line" smooth="yes"/>
      <point x="789.0" y="248"/>
      <point x="800.0" y="258"/>
      <point x="800.0" y="284" type="curve" smooth="yes"/>
      <point x="800.0" y="436" type="line" smooth="yes"/>
      <point x="800.0" y="461"/>
      <point x="789.0" y="472"/>
      <point x="764.0" y="472" type="curve" smooth="yes"/>
      <point x="670.0" y="472" type="line"/>
      <point x="670.0" y="581" type="line" smooth="yes"/>
      <point x="670.0" y="606"/>
      <point x="660.0" y="617"/>
      <point x="634.0" y="617" type="curve" smooth="yes"/>
      <point x="537.0" y="617" type="line" smooth="yes"/>
      <point x="511.0" y="617"/>
      <point x="501.0" y="606"/>
      <point x="501.0" y="581" type="curve" smooth="yes"/>
      <point x="501.0" y="528" type="line"/>
      <point x="359.0" y="638" type="line" smooth="yes"/>
      <point x="321.0" y="666"/>
      <point x="280.0" y="667"/>
      <point x="229.0" y="667" type="curve"/>
      <point x="116.0" y="667" type="line" smooth="yes"/>
      <point x="91.0" y="667"/>
      <point x="80.0" y="656"/>
      <point x="80.0" y="631" type="curve" smooth="yes"/>
      <point x="80.0" y="484" type="line" smooth="yes"/>
      <point x="80.0" y="458"/>
      <point x="91.0" y="448"/>
      <point x="116.0" y="448" type="curve" smooth="yes"/>
      <point x="261.0" y="448" type="line" smooth="yes"/>
      <point x="275.0" y="448"/>
      <point x="288.0" y="449"/>
      <point x="302.0" y="440" type="curve" smooth="yes"/>
      <point x="366.0" y="397" type="line" smooth="yes"/>
      <point x="378.0" y="389"/>
      <point x="383.0" y="382"/>
      <point x="383.0" y="371" type="curve" smooth="yes"/>
      <point x="383.0" y="359" type="line" smooth="yes"/>
      <point x="383.0" y="348"/>
      <point x="377.0" y="341"/>
      <point x="366.0" y="333" type="curve" smooth="yes"/>
      <point x="301.0" y="287" type="line" smooth="yes"/>
      <point x="286.0" y="280"/>
      <point x="274.0" y="279"/>
      <point x="260.0" y="279" type="curve" smooth="yes"/>
      <point x="116.0" y="279" type="line" smooth="yes"/>
      <point x="91.0" y="279"/>
      <point x="80.0" y="268"/>
      <point x="80.0" y="243" type="curve" smooth="yes"/>
      <point x="80.0" y="88" type="line" smooth="yes"/>
      <point x="80.0" y="63"/>
      <point x="91.0" y="52"/>
      <point x="116.0" y="52" type="curve" smooth="yes"/>
      <point x="228.0" y="52" type="line" smooth="yes"/>
      <point x="279.0" y="52"/>
      <point x="320.0" y="52"/>
    </contour>
  </outline>
</glyph>
<glyph name="brokenbar" format="1">
  <advance width="1030"/>
  <unicode hex="00A6"/>
  <outline>
    <contour>
      <point x="591.0" y="468" type="line" smooth="yes"/>
      <point x="566.0" y="468"/>
      <point x="555.0" y="457"/>
      <point x="555.0" y="432" type="curve" smooth="yes"/>
      <point x="555.0" y="287" type="line" smooth="yes"/>
      <point x="555.0" y="262"/>
      <point x="566.0" y="251"/>
      <point x="591.0" y="251" type="curve" smooth="yes"/>
      <point x="929.0" y="251" type="line" smooth="yes"/>
      <point x="954.0" y="251"/>
      <point x="965.0" y="262"/>
      <point x="965.0" y="287" type="curve" smooth="yes"/>
      <point x="965.0" y="432" type="line" smooth="yes"/>
      <point x="965.0" y="457"/>
      <point x="954.0" y="468"/>
      <point x="929.0" y="468" type="curve" smooth="yes"/>
    </contour>
    <contour>
      <point x="101.0" y="468" type="line" smooth="yes"/>
      <point x="76.0" y="468"/>
      <point x="65.0" y="457"/>
      <point x="65.0" y="432" type="curve" smooth="yes"/>
      <point x="65.0" y="287" type="line" smooth="yes"/>
      <point x="65.0" y="262"/>
      <point x="76.0" y="251"/>
      <point x="101.0" y="251" type="curve" smooth="yes"/>
      <point x="439.0" y="251" type="line" smooth="yes"/>
      <point x="464.0" y="251"/>
      <point x="475.0" y="262"/>
      <point x="475.0" y="287" type="curve" smooth="yes"/>
      <point x="475.0" y="432" type="line" smooth="yes"/>
      <point x="475.0" y="457"/>
      <point x="464.0" y="468"/>
      <point x="439.0" y="468" type="curve"/>
    </contour>
  </outline>
</glyph>
<glyph name="section" format="1">
  <advance width="880"/>
  <unicode hex="00A7"/>
  <outline>
    <contour>
      <point x="406.0" y="366" type="line" smooth="yes"/>
      <point x="406.0" y="418"/>
      <point x="426.0" y="427"/>
      <point x="454.0" y="427" type="curve" smooth="yes"/>
      <point x="474.0" y="427" type="line"/>
      <point x="474.0" y="366" type="line" smooth="yes"/>
      <point x="474.0" y="314"/>
      <point x="454.0" y="305"/>
      <point x="426.0" y="305" type="curve" smooth="yes"/>
      <point x="406.0" y="305" type="line"/>
    </contour>
    <contour>
      <point x="595.0" y="333" type="curve" smooth="yes"/>
      <point x="595.0" y="427" type="line"/>
      <point x="597.0" y="427" type="line" smooth="yes"/>
      <point x="623.0" y="427"/>
      <point x="647.0" y="418"/>
      <point x="647.0" y="366" type="curve" smooth="yes"/>
      <point x="647.0" y="133" type="line" smooth="yes"/>
      <point x="647.0" y="108"/>
      <point x="658.0" y="97"/>
      <point x="683.0" y="97" type="curve" smooth="yes"/>
      <point x="764.0" y="97" type="line" smooth="yes"/>
      <point x="789.0" y="97"/>
      <point x="800.0" y="108"/>
      <point x="800.0" y="133" type="curve" smooth="yes"/>
      <point x="800.0" y="399" type="line" smooth="yes"/>
      <point x="800.0" y="588"/>
      <point x="717.0" y="645"/>
      <point x="595.0" y="645" type="curve" smooth="yes"/>
      <point x="489.0" y="645" type="line" smooth="yes"/>
      <point x="368.0" y="645"/>
      <point x="285.0" y="588"/>
      <point x="285.0" y="399" type="curve" smooth="yes"/>
      <point x="285.0" y="305" type="line"/>
      <point x="283.0" y="305" type="line" smooth="yes"/>
      <point x="257.0" y="305"/>
      <point x="233.0" y="314"/>
      <point x="233.0" y="366" type="curve" smooth="yes"/>
      <point x="233.0" y="573" type="line" smooth="yes"/>
      <point x="233.0" y="598"/>
      <point x="222.0" y="609"/>
      <point x="197.0" y="609" type="curve" smooth="yes"/>
      <point x="116.0" y="609" type="line" smooth="yes"/>
      <point x="91.0" y="609"/>
      <point x="80.0" y="598"/>
      <point x="80.0" y="573" type="curve" smooth="yes"/>
      <point x="80.0" y="333" type="line" smooth="yes"/>
      <point x="80.0" y="144"/>
      <point x="163.0" y="87"/>
      <point x="285.0" y="87" type="curve" smooth="yes"/>
      <point x="391.0" y="87" type="line" smooth="yes"/>
      <point x="512.0" y="87"/>
      <point x="595.0" y="144"/>
    </contour>
  </outline>
</glyph>
<glyph name="dieresis" format="1">
  <advance width="271"/>
  <unicode hex="00A8"/>
  <outline>
    <contour>
      <point x="229.0" y="556" type="line" smooth="yes"/>
      <point x="229.0" y="579"/>
      <point x="219.0" y="589"/>
      <point x="196.0" y="589" type="curve" smooth="yes"/>
      <point x="75.0" y="589" type="line" smooth="yes"/>
      <point x="52.0" y="589"/>
      <point x="42.0" y="579"/>
      <point x="42.0" y="556" type="curve" smooth="yes"/>
      <point x="42.0" y="418" type="line" smooth="yes"/>
      <point x="42.0" y="395"/>
      <point x="52.0" y="385"/>
      <point x="75.0" y="385" type="curve" smooth="yes"/>
      <point x="196.0" y="385" type="line" smooth="yes"/>
      <point x="219.0" y="385"/>
      <point x="229.0" y="395"/>
      <point x="229.0" y="418" type="curve" smooth="yes"/>
    </contour>
    <contour>
      <point x="229.0" y="298" type="line" smooth="yes"/>
      <point x="229.0" y="321"/>
      <point x="219.0" y="331"/>
      <point x="196.0" y="331" type="curve" smooth="yes"/>
      <point x="75.0" y="331" type="line" smooth="yes"/>
      <point x="52.0" y="331"/>
      <point x="42.0" y="321"/>
      <point x="42.0" y="298" type="curve" smooth="yes"/>
      <point x="42.0" y="160" type="line" smooth="yes"/>
      <point x="42.0" y="137"/>
      <point x="52.0" y="126"/>
      <point x="75.0" y="126" type="curve" smooth="yes"/>
      <point x="196.0" y="126" type="line" smooth="yes"/>
      <point x="219.0" y="126"/>
      <point x="229.0" y="137"/>
      <point x="229.0" y="160" type="curve" smooth="yes"/>
    </contour>
    <contour>
      <point x="242.0" y="360.0" type="move" name="_top"/>
    </contour>
    <contour>
      <point x="989.0" y="360.0" type="move" name="_bottom"/>
    </contour>
  </outline>
</glyph>
<glyph name="copyright" format="1">
  <advance width="1025"/>
  <unicode hex="00A9"/>
  <outline>
    <contour>
      <point x="719.0" y="733" type="curve" smooth="yes"/>
      <point x="309.0" y="733" type="line" smooth="yes"/>
      <point x="162.0" y="733"/>
      <point x="62.0" y="661"/>
      <point x="62.0" y="360" type="curve" smooth="yes"/>
      <point x="62.0" y="60"/>
      <point x="162.0" y="-14"/>
      <point x="309.0" y="-14" type="curve" smooth="yes"/>
      <point x="719.0" y="-14" type="line" smooth="yes"/>
      <point x="865.0" y="-14"/>
      <point x="964.0" y="60"/>
      <point x="964.0" y="360" type="curve" smooth="yes"/>
      <point x="964.0" y="661"/>
      <point x="865.0" y="733"/>
    </contour>
    <contour>
      <point x="723.0" y="633" type="line"/>
      <point x="809.0" y="633"/>
      <point x="868.0" y="580"/>
      <point x="868.0" y="360" type="curve" smooth="yes"/>
      <point x="868.0" y="140"/>
      <point x="809.0" y="86"/>
      <point x="723.0" y="86" type="curve"/>
      <point x="305.0" y="86" type="line"/>
      <point x="218.0" y="86"/>
      <point x="158.0" y="140"/>
      <point x="158.0" y="360" type="curve" smooth="yes"/>
      <point x="158.0" y="580"/>
      <point x="218.0" y="633"/>
      <point x="305.0" y="633" type="curve"/>
    </contour>
    <contour>
      <point x="763.0" y="515" type="line" smooth="yes"/>
      <point x="763.0" y="533"/>
      <point x="755.0" y="541"/>
      <point x="737.0" y="541" type="curve" smooth="yes"/>
      <point x="652.0" y="541" type="line" smooth="yes"/>
      <point x="634.0" y="541"/>
      <point x="626.0" y="533"/>
      <point x="626.0" y="515" type="curve" smooth="yes"/>
      <point x="626.0" y="371" type="line" smooth="yes"/>
      <point x="626.0" y="333"/>
      <point x="612.0" y="327"/>
      <point x="592.0" y="327" type="curve" smooth="yes"/>
      <point x="421.0" y="327" type="line" smooth="yes"/>
      <point x="403.0" y="327"/>
      <point x="385.0" y="333"/>
      <point x="385.0" y="371" type="curve" smooth="yes"/>
      <point x="385.0" y="515" type="line" smooth="yes"/>
      <point x="385.0" y="533"/>
      <point x="377.0" y="541"/>
      <point x="360.0" y="541" type="curve" smooth="yes"/>
      <point x="273.0" y="541" type="line" smooth="yes"/>
      <point x="255.0" y="541"/>
      <point x="247.0" y="533"/>
      <point x="247.0" y="515" type="curve" smooth="yes"/>
      <point x="247.0" y="340" type="line" smooth="yes"/>
      <point x="247.0" y="204"/>
      <point x="306.0" y="164"/>
      <point x="394.0" y="164" type="curve" smooth="yes"/>
      <point x="617.0" y="164" type="line" smooth="yes"/>
      <point x="704.0" y="164"/>
      <point x="763.0" y="204"/>
      <point x="763.0" y="340" type="curve" smooth="yes"/>
    </contour>
  </outline>
</glyph>
<glyph name="ordfeminine" format="1">
  <advance width="880"/>
  <unicode hex="00AA"/>
  <outline>
    <contour>
      <point x="800.0" y="172" type="curve"/>
      <point x="800.0" y="548" type="line" smooth="yes"/>
      <point x="800.0" y="573"/>
      <point x="790.0" y="584"/>
      <point x="764.0" y="584" type="curve" smooth="yes"/>
      <point x="697.0" y="584" type="line" smooth="yes"/>
      <point x="671.0" y="584"/>
      <point x="661.0" y="573"/>
      <point x="661.0" y="548" type="curve" smooth="yes"/>
      <point x="661.0" y="172" type="line" smooth="yes"/>
      <point x="661.0" y="147"/>
      <point x="672.0" y="136"/>
      <point x="697.0" y="136" type="curve" smooth="yes"/>
      <point x="764.0" y="136" type="line" smooth="yes"/>
      <point x="790.0" y="136"/>
      <point x="800.0" y="147"/>
    </contour>
    <contour>
      <point x="568.0" y="136" type="line" smooth="yes"/>
      <point x="588.0" y="136"/>
      <point x="598.0" y="146"/>
      <point x="598.0" y="166" type="curve" smooth="yes"/>
      <point x="598.0" y="269" type="line" smooth="yes"/>
      <point x="598.0" y="290"/>
      <point x="588.0" y="299"/>
      <point x="568.0" y="299" type="curve" smooth="yes"/>
      <point x="473.0" y="299" type="line"/>
      <point x="473.0" y="416" type="line"/>
      <point x="568.0" y="416" type="line" smooth="yes"/>
      <point x="588.0" y="416"/>
      <point x="598.0" y="426"/>
      <point x="598.0" y="446" type="curve" smooth="yes"/>
      <point x="598.0" y="554" type="line" smooth="yes"/>
      <point x="598.0" y="576"/>
      <point x="588.0" y="584"/>
      <point x="568.0" y="584" type="curve" smooth="yes"/>
      <point x="389.0" y="584" type="line" smooth="yes"/>
      <point x="349.0" y="584"/>
      <point x="312.0" y="575"/>
      <point x="281.0" y="564" type="curve" smooth="yes"/>
      <point x="112.0" y="502" type="line"/>
      <point x="89.0" y="492"/>
      <point x="80.0" y="481"/>
      <point x="80.0" y="455" type="curve" smooth="yes"/>
      <point x="80.0" y="266" type="line" smooth="yes"/>
      <point x="80.0" y="239"/>
      <point x="89.0" y="228"/>
      <point x="112.0" y="218" type="curve"/>
      <point x="166.0" y="199"/>
      <point x="226.0" y="176"/>
      <point x="281.0" y="157" type="curve"/>
      <point x="312.0" y="145"/>
      <point x="349.0" y="136"/>
      <point x="389.0" y="136" type="curve" smooth="yes"/>
    </contour>
    <contour>
      <point x="232.0" y="343" type="line" smooth="yes"/>
      <point x="227.0" y="344"/>
      <point x="222.0" y="347"/>
      <point x="222.0" y="351" type="curve" smooth="yes"/>
      <point x="222.0" y="364" type="line" smooth="yes"/>
      <point x="222.0" y="367"/>
      <point x="227.0" y="371"/>
      <point x="232.0" y="373" type="curve" smooth="yes"/>
      <point x="337.0" y="407" type="line"/>
      <point x="337.0" y="308" type="line"/>
    </contour>
    <contour>
      <point x="55.0" y="123.0" type="move" name="top"/>
    </contour>
    <contour>
      <point x="593.0" y="123.0" type="move" name="bottom"/>
    </contour>
  </outline>
</glyph>
<glyph name="guillemotleft" format="1">
  <advance width="812"/>
  <unicode hex="00AB"/>
  <outline>
    <contour>
      <point x="356.0" y="118" type="line" smooth="yes"/>
      <point x="380.0" y="111"/>
      <point x="392.0" y="125"/>
      <point x="392.0" y="149" type="curve" smooth="yes"/>
      <point x="392.0" y="266" type="line" smooth="yes"/>
      <point x="392.0" y="292"/>
      <point x="380.0" y="308"/>
      <point x="356.0" y="315" type="curve" smooth="yes"/>
      <point x="261.0" y="342" type="line" smooth="yes"/>
      <point x="247.0" y="347"/>
      <point x="244.0" y="349"/>
      <point x="244.0" y="361" type="curve" smooth="yes"/>
      <point x="244.0" y="373"/>
      <point x="248.0" y="375"/>
      <point x="261.0" y="380" type="curve" smooth="yes"/>
      <point x="356.0" y="408" type="line" smooth="yes"/>
      <point x="379.0" y="417"/>
      <point x="392.0" y="431"/>
      <point x="392.0" y="457" type="curve" smooth="yes"/>
      <point x="392.0" y="574" type="line" smooth="yes"/>
      <point x="392.0" y="600"/>
      <point x="377.0" y="611"/>
      <point x="356.0" y="605" type="curve" smooth="yes"/>
      <point x="177.0" y="553" type="line" smooth="yes"/>
      <point x="94.0" y="528"/>
      <point x="50.0" y="497"/>
      <point x="50.0" y="398" type="curve" smooth="yes"/>
      <point x="50.0" y="324" type="line" smooth="yes"/>
      <point x="50.0" y="225"/>
      <point x="94.0" y="193"/>
      <point x="177.0" y="169" type="curve" smooth="yes"/>
    </contour>
    <contour>
      <point x="716.0" y="121" type="line" smooth="yes"/>
      <point x="740.0" y="114"/>
      <point x="752.0" y="128"/>
      <point x="752.0" y="152" type="curve" smooth="yes"/>
      <point x="752.0" y="266" type="line" smooth="yes"/>
      <point x="752.0" y="292"/>
      <point x="740.0" y="308"/>
      <point x="716.0" y="315" type="curve" smooth="yes"/>
      <point x="621.0" y="342" type="line"/>
      <point x="607.0" y="347"/>
      <point x="604.0" y="349"/>
      <point x="604.0" y="361" type="curve" smooth="yes"/>
      <point x="604.0" y="373"/>
      <point x="608.0" y="375"/>
      <point x="621.0" y="380" type="curve"/>
      <point x="716.0" y="408" type="line"/>
      <point x="739.0" y="417"/>
      <point x="752.0" y="431"/>
      <point x="752.0" y="457" type="curve" smooth="yes"/>
      <point x="752.0" y="571" type="line" smooth="yes"/>
      <point x="752.0" y="594"/>
      <point x="739.0" y="609"/>
      <point x="716.0" y="602" type="curve" smooth="yes"/>
      <point x="547.0" y="553" type="line" smooth="yes"/>
      <point x="463.0" y="529"/>
      <point x="420.0" y="497"/>
      <point x="420.0" y="398" type="curve" smooth="yes"/>
      <point x="420.0" y="324" type="line" smooth="yes"/>
      <point x="420.0" y="225"/>
      <point x="464.0" y="193"/>
      <point x="547.0" y="169" type="curve" smooth="yes"/>
    </contour>
  </outline>
</glyph>
<glyph name="logicalnot" format="1">
  <advance width="574"/>
  <unicode hex="00AC"/>
  <outline>
    <contour>
      <point x="502.0" y="621" type="line" smooth="yes"/>
      <point x="502.0" y="647"/>
      <point x="491.0" y="657"/>
      <point x="466.0" y="657" type="curve" smooth="yes"/>
      <point x="108.0" y="657" type="line" smooth="yes"/>
      <point x="82.0" y="657"/>
      <point x="72.0" y="646"/>
      <point x="72.0" y="621" type="curve" smooth="yes"/>
      <point x="72.0" y="99" type="line" smooth="yes"/>
      <point x="72.0" y="74"/>
      <point x="83.0" y="63"/>
      <point x="108.0" y="63" type="curve" smooth="yes"/>
      <point x="222.0" y="63" type="line" smooth="yes"/>
      <point x="248.0" y="63"/>
      <point x="258.0" y="74"/>
      <point x="258.0" y="99" type="curve"/>
      <point x="258.0" y="461" type="line"/>
      <point x="466.0" y="461" type="line" smooth="yes"/>
      <point x="491.0" y="461"/>
      <point x="502.0" y="471"/>
      <point x="502.0" y="497" type="curve" smooth="yes"/>
    </contour>
  </outline>
</glyph>
<glyph name="registered" format="1">
  <advance width="666"/>
  <unicode hex="00AE"/>
  <outline>
    <contour>
      <point x="457.0" y="584" type="curve" smooth="yes"/>
      <point x="211.0" y="584" type="line" smooth="yes"/>
      <point x="122.0" y="584"/>
      <point x="62.0" y="541"/>
      <point x="62.0" y="360" type="curve" smooth="yes"/>
      <point x="62.0" y="180"/>
      <point x="122.0" y="136"/>
      <point x="211.0" y="136" type="curve" smooth="yes"/>
      <point x="457.0" y="136" type="line" smooth="yes"/>
      <point x="544.0" y="136"/>
      <point x="604.0" y="180"/>
      <point x="604.0" y="360" type="curve" smooth="yes"/>
      <point x="604.0" y="541"/>
      <point x="544.0" y="584"/>
    </contour>
    <contour>
      <point x="459.0" y="524" type="line"/>
      <point x="511.0" y="524"/>
      <point x="546.0" y="492"/>
      <point x="546.0" y="360" type="curve" smooth="yes"/>
      <point x="546.0" y="228"/>
      <point x="511.0" y="196"/>
      <point x="459.0" y="196" type="curve"/>
      <point x="208.0" y="196" type="line"/>
      <point x="156.0" y="196"/>
      <point x="120.0" y="228"/>
      <point x="120.0" y="360" type="curve" smooth="yes"/>
      <point x="120.0" y="492"/>
      <point x="156.0" y="524"/>
      <point x="208.0" y="524" type="curve"/>
    </contour>
    <contour>
      <point x="476.0" y="314" type="line" smooth="yes"/>
      <point x="476.0" y="324"/>
      <point x="471.0" y="328"/>
      <point x="461.0" y="328" type="curve" smooth="yes"/>
      <point x="378.0" y="328" type="line"/>
      <point x="378.0" y="386" type="line" smooth="yes"/>
      <point x="378.0" y="397"/>
      <point x="383.0" y="401"/>
      <point x="395.0" y="401" type="curve" smooth="yes"/>
      <point x="461.0" y="401" type="line" smooth="yes"/>
      <point x="471.0" y="401"/>
      <point x="476.0" y="406"/>
      <point x="476.0" y="416" type="curve" smooth="yes"/>
      <point x="476.0" y="480" type="line" smooth="yes"/>
      <point x="476.0" y="490"/>
      <point x="471.0" y="494"/>
      <point x="461.0" y="494" type="curve" smooth="yes"/>
      <point x="374.0" y="494" type="line" smooth="yes"/>
      <point x="340.0" y="494"/>
      <point x="318.0" y="474"/>
      <point x="314.0" y="444" type="curve"/>
      <point x="307.0" y="462"/>
      <point x="291.0" y="468"/>
      <point x="268.0" y="468" type="curve" smooth="yes"/>
      <point x="249.0" y="468" type="line" smooth="yes"/>
      <point x="208.0" y="468"/>
      <point x="181.0" y="449"/>
      <point x="181.0" y="387" type="curve" smooth="yes"/>
      <point x="181.0" y="251" type="line" smooth="yes"/>
      <point x="181.0" y="240"/>
      <point x="185.0" y="236"/>
      <point x="196.0" y="236" type="curve"/>
      <point x="461.0" y="236" type="line"/>
      <point x="471.0" y="236"/>
      <point x="476.0" y="240"/>
      <point x="476.0" y="251" type="curve" smooth="yes"/>
    </contour>
    <contour>
      <point x="254.0" y="328" type="line"/>
      <point x="307.0" y="328" type="line"/>
      <point x="307.0" y="359" type="line" smooth="yes"/>
      <point x="307.0" y="374"/>
      <point x="299.0" y="377"/>
      <point x="287.0" y="377" type="curve" smooth="yes"/>
      <point x="274.0" y="377" type="line" smooth="yes"/>
      <point x="263.0" y="377"/>
      <point x="254.0" y="374"/>
      <point x="254.0" y="359" type="curve" smooth="yes"/>
    </contour>
  </outline>
</glyph>
<glyph name="macron" format="2">
  <advance width="249"/>
  <unicode hex="00AF"/>
  <unicode hex="0304"/>
  <anchor x="220.0" y="360.0" name="_top"/>
  <anchor x="967.0" y="360.0" name="_bottom"/>
  <outline>
    <contour>
      <point x="207.0" y="533" type="line" smooth="yes"/>
      <point x="207.0" y="558"/>
      <point x="196.0" y="569"/>
      <point x="171.0" y="569" type="curve" smooth="yes"/>
      <point x="78.0" y="569" type="line" smooth="yes"/>
      <point x="53.0" y="569"/>
      <point x="42.0" y="558"/>
      <point x="42.0" y="533" type="curve" smooth="yes"/>
      <point x="42.0" y="186" type="line" smooth="yes"/>
      <point x="42.0" y="161"/>
      <point x="53.0" y="150"/>
      <point x="78.0" y="150" type="curve" smooth="yes"/>
      <point x="171.0" y="150" type="line" smooth="yes"/>
      <point x="196.0" y="150"/>
      <point x="207.0" y="161"/>
      <point x="207.0" y="186" type="curve" smooth="yes"/>
    </contour>
  </outline>
</glyph>
<glyph name="degree" format="1">
  <advance width="540"/>
  <unicode hex="00B0"/>
  <outline>
    <contour>
      <point x="362.0" y="556" type="curve"/>
      <point x="178.0" y="556" type="line" smooth="yes"/>
      <point x="109.0" y="556"/>
      <point x="62.0" y="518"/>
      <point x="62.0" y="360" type="curve" smooth="yes"/>
      <point x="62.0" y="202"/>
      <point x="109.0" y="163"/>
      <point x="178.0" y="163" type="curve" smooth="yes"/>
      <point x="362.0" y="163" type="line" smooth="yes"/>
      <point x="431.0" y="163"/>
      <point x="478.0" y="202"/>
      <point x="478.0" y="360" type="curve" smooth="yes"/>
      <point x="478.0" y="518"/>
      <point x="431.0" y="556"/>
    </contour>
    <contour>
      <point x="313.0" y="310" type="curve"/>
      <point x="228.0" y="310" type="line" smooth="yes"/>
      <point x="213.0" y="310"/>
      <point x="200.0" y="318"/>
      <point x="200.0" y="360" type="curve" smooth="yes"/>
      <point x="200.0" y="404"/>
      <point x="213.0" y="410"/>
      <point x="228.0" y="410" type="curve" smooth="yes"/>
      <point x="313.0" y="410" type="line" smooth="yes"/>
      <point x="329.0" y="410"/>
      <point x="340.0" y="402"/>
      <point x="340.0" y="360" type="curve" smooth="yes"/>
      <point x="340.0" y="318"/>
      <point x="329.0" y="310"/>
    </contour>
  </outline>
</glyph>
<glyph name="twosuperior" format="1">
  <advance width="798"/>
  <unicode hex="00B2"/>
  <outline>
    <contour>
      <point x="658.0" y="525" type="line" smooth="yes"/>
      <point x="658.0" y="543"/>
      <point x="650.0" y="551"/>
      <point x="632.0" y="551" type="curve" smooth="yes"/>
      <point x="548.0" y="551" type="line" smooth="yes"/>
      <point x="530.0" y="551"/>
      <point x="522.0" y="543"/>
      <point x="522.0" y="525" type="curve"/>
      <point x="522.0" y="320" type="line"/>
      <point x="507.0" y="320" type="line" smooth="yes"/>
      <point x="491.0" y="320"/>
      <point x="490.0" y="324"/>
      <point x="485.0" y="339" type="curve" smooth="yes"/>
      <point x="454.0" y="437" type="line" smooth="yes"/>
      <point x="433.0" y="507"/>
      <point x="400.0" y="549"/>
      <point x="327.0" y="549" type="curve" smooth="yes"/>
      <point x="259.0" y="549" type="line" smooth="yes"/>
      <point x="182.0" y="549"/>
      <point x="140.0" y="504"/>
      <point x="140.0" y="422" type="curve" smooth="yes"/>
      <point x="140.0" y="210" type="line" smooth="yes"/>
      <point x="140.0" y="192"/>
      <point x="148.0" y="184"/>
      <point x="166.0" y="184" type="curve" smooth="yes"/>
      <point x="250.0" y="184" type="line" smooth="yes"/>
      <point x="268.0" y="184"/>
      <point x="276.0" y="192"/>
      <point x="276.0" y="210" type="curve" smooth="yes"/>
      <point x="276.0" y="366" type="line" smooth="yes"/>
      <point x="276.0" y="381"/>
      <point x="280.0" y="386"/>
      <point x="295.0" y="386" type="curve" smooth="yes"/>
      <point x="310.0" y="386"/>
      <point x="316.0" y="381"/>
      <point x="321.0" y="366" type="curve" smooth="yes"/>
      <point x="351.0" y="270" type="line" smooth="yes"/>
      <point x="371.0" y="204"/>
      <point x="397.0" y="157"/>
      <point x="508.0" y="157" type="curve" smooth="yes"/>
      <point x="632.0" y="157" type="line" smooth="yes"/>
      <point x="650.0" y="157"/>
      <point x="658.0" y="165"/>
      <point x="658.0" y="183" type="curve" smooth="yes"/>
    </contour>
  </outline>
</glyph>
<glyph name="threesuperior" format="1">
  <advance width="798"/>
  <unicode hex="00B3"/>
  <outline>
    <contour>
      <point x="522.0" y="193" type="line" smooth="yes"/>
      <point x="522.0" y="175"/>
      <point x="530.0" y="167"/>
      <point x="548.0" y="167" type="curve" smooth="yes"/>
      <point x="632.0" y="167" type="line" smooth="yes"/>
      <point x="650.0" y="167"/>
      <point x="658.0" y="175"/>
      <point x="658.0" y="193" type="curve" smooth="yes"/>
      <point x="658.0" y="421" type="line" smooth="yes"/>
      <point x="658.0" y="513"/>
      <point x="613.0" y="561"/>
      <point x="539.0" y="561" type="curve" smooth="yes"/>
      <point x="467.0" y="561" type="line" smooth="yes"/>
      <point x="403.0" y="561"/>
      <point x="370.0" y="538"/>
      <point x="362.0" y="470" type="curve"/>
      <point x="349.0" y="502"/>
      <point x="321.0" y="512"/>
      <point x="285.0" y="512" type="curve" smooth="yes"/>
      <point x="243.0" y="512" type="line" smooth="yes"/>
      <point x="179.0" y="512"/>
      <point x="140.0" y="474"/>
      <point x="140.0" y="394" type="curve" smooth="yes"/>
      <point x="140.0" y="193" type="line" smooth="yes"/>
      <point x="140.0" y="175"/>
      <point x="148.0" y="167"/>
      <point x="166.0" y="167" type="curve" smooth="yes"/>
      <point x="251.0" y="167" type="line" smooth="yes"/>
      <point x="269.0" y="167"/>
      <point x="277.0" y="175"/>
      <point x="277.0" y="193" type="curve" smooth="yes"/>
      <point x="277.0" y="327" type="line" smooth="yes"/>
      <point x="277.0" y="350"/>
      <point x="287.0" y="355"/>
      <point x="299.0" y="355" type="curve" smooth="yes"/>
      <point x="310.0" y="355" type="line" smooth="yes"/>
      <point x="321.0" y="355"/>
      <point x="331.0" y="350"/>
      <point x="331.0" y="327" type="curve" smooth="yes"/>
      <point x="331.0" y="252" type="line" smooth="yes"/>
      <point x="331.0" y="234"/>
      <point x="339.0" y="226"/>
      <point x="357.0" y="226" type="curve" smooth="yes"/>
      <point x="434.0" y="226" type="line" smooth="yes"/>
      <point x="452.0" y="226"/>
      <point x="460.0" y="234"/>
      <point x="460.0" y="252" type="curve" smooth="yes"/>
      <point x="460.0" y="374" type="line" smooth="yes"/>
      <point x="460.0" y="397"/>
      <point x="470.0" y="401"/>
      <point x="481.0" y="401" type="curve" smooth="yes"/>
      <point x="501.0" y="401" type="line" smooth="yes"/>
      <point x="512.0" y="401"/>
      <point x="522.0" y="397"/>
      <point x="522.0" y="374" type="curve" smooth="yes"/>
    </contour>
  </outline>
</glyph>
<glyph name="mu" format="2">
  <advance width="794"/>
  <unicode hex="00B5"/>
  <unicode hex="03BC"/>
  <outline>
    <contour>
      <point x="691.0" y="64" type="line" smooth="yes"/>
      <point x="716.0" y="64"/>
      <point x="727.0" y="75"/>
      <point x="727.0" y="100" type="curve" smooth="yes"/>
      <point x="727.0" y="255" type="line" smooth="yes"/>
      <point x="727.0" y="280"/>
      <point x="716.0" y="291"/>
      <point x="691.0" y="291" type="curve" smooth="yes"/>
      <point x="644.0" y="291" type="line"/>
      <point x="649.0" y="317"/>
      <point x="652.0" y="346"/>
      <point x="652.0" y="381" type="curve" smooth="yes"/>
      <point x="652.0" y="605"/>
      <point x="570.0" y="660"/>
      <point x="448.0" y="660" type="curve" smooth="yes"/>
      <point x="103.0" y="660" type="line" smooth="yes"/>
      <point x="78.0" y="660"/>
      <point x="67.0" y="649"/>
      <point x="67.0" y="624" type="curve" smooth="yes"/>
      <point x="67.0" y="472" type="line" smooth="yes"/>
      <point x="67.0" y="446"/>
      <point x="78.0" y="436"/>
      <point x="103.0" y="436" type="curve" smooth="yes"/>
      <point x="419.0" y="436" type="line" smooth="yes"/>
      <point x="446.0" y="436"/>
      <point x="466.0" y="425"/>
      <point x="466.0" y="363" type="curve" smooth="yes"/>
      <point x="466.0" y="302"/>
      <point x="446.0" y="291"/>
      <point x="419.0" y="291" type="curve" smooth="yes"/>
      <point x="103.0" y="291" type="line" smooth="yes"/>
      <point x="78.0" y="291"/>
      <point x="67.0" y="280"/>
      <point x="67.0" y="255" type="curve" smooth="yes"/>
      <point x="67.0" y="100" type="line" smooth="yes"/>
      <point x="67.0" y="75"/>
      <point x="78.0" y="64"/>
      <point x="103.0" y="64" type="curve" smooth="yes"/>
    </contour>
  </outline>
</glyph>
<glyph name="paragraph" format="2">
  <advance width="880"/>
  <unicode hex="00B6"/>
  <outline>
    <contour>
      <point x="275.0" y="54" type="curve" smooth="yes"/>
      <point x="403.0" y="54" type="line" smooth="yes"/>
      <point x="499.0" y="54"/>
      <point x="570.0" y="91"/>
      <point x="591.0" y="207" type="curve"/>
      <point x="764.0" y="207" type="line" smooth="yes"/>
      <point x="789.0" y="207"/>
      <point x="800.0" y="218"/>
      <point x="800.0" y="243" type="curve" smooth="yes"/>
      <point x="800.0" y="358" type="line" smooth="yes"/>
      <point x="800.0" y="383"/>
      <point x="789.0" y="394"/>
      <point x="764.0" y="394" type="curve" smooth="yes"/>
      <point x="598.0" y="394" type="line"/>
      <point x="598.0" y="445" type="line"/>
      <point x="764.0" y="445" type="line" smooth="yes"/>
      <point x="789.0" y="445"/>
      <point x="800.0" y="456"/>
      <point x="800.0" y="481" type="curve" smooth="yes"/>
      <point x="800.0" y="596" type="line" smooth="yes"/>
      <point x="800.0" y="621"/>
      <point x="789.0" y="632"/>
      <point x="764.0" y="632" type="curve" smooth="yes"/>
      <point x="116.0" y="632" type="line" smooth="yes"/>
      <point x="91.0" y="632"/>
      <point x="80.0" y="621"/>
      <point x="80.0" y="596" type="curve" smooth="yes"/>
      <point x="80.0" y="290" type="line" smooth="yes"/>
      <point x="80.0" y="108"/>
      <point x="159.0" y="54"/>
    </contour>
  </outline>
</glyph>
<glyph name="cedilla" format="1">
  <advance width="301"/>
  <unicode hex="00B8"/>
  <outline>
    <contour>
      <point x="274.0" y="374" type="line"/>
      <point x="274.0" y="400"/>
      <point x="265.0" y="413"/>
      <point x="244.0" y="420" type="curve" smooth="yes"/>
      <point x="67.0" y="483" type="line" smooth="yes"/>
      <point x="48.0" y="490"/>
      <point x="35.0" y="485"/>
      <point x="27.0" y="463" type="curve" smooth="yes"/>
      <point x="-16.0" y="347" type="line" smooth="yes"/>
      <point x="-25.0" y="323"/>
      <point x="-18.0" y="311"/>
      <point x="4.0" y="303" type="curve" smooth="yes"/>
      <point x="234.0" y="218" type="line" smooth="yes"/>
      <point x="258.0" y="209"/>
      <point x="274.0" y="214"/>
      <point x="274.0" y="248" type="curve" smooth="yes"/>
    </contour>
    <contour>
      <point x="-599.0" y="360.0" type="move" name="_top"/>
    </contour>
    <contour>
      <point x="148.0" y="360.0" type="move" name="_bottom"/>
    </contour>
  </outline>
</glyph>
<glyph name="onesuperior" format="2">
  <advance width="798"/>
  <unicode hex="00B9"/>
  <outline>
    <contour>
      <point x="658.0" y="523" type="line" smooth="yes"/>
      <point x="658.0" y="541"/>
      <point x="650.0" y="549"/>
      <point x="632.0" y="549" type="curve"/>
      <point x="545.0" y="549" type="line" smooth="yes"/>
      <point x="527.0" y="549"/>
      <point x="519.0" y="541"/>
      <point x="519.0" y="523" type="curve"/>
      <point x="519.0" y="454" type="line"/>
      <point x="166.0" y="454" type="line" smooth="yes"/>
      <point x="148.0" y="454"/>
      <point x="140.0" y="446"/>
      <point x="140.0" y="428" type="curve" smooth="yes"/>
      <point x="140.0" y="219" type="line" smooth="yes"/>
      <point x="140.0" y="201"/>
      <point x="148.0" y="193"/>
      <point x="166.0" y="193" type="curve" smooth="yes"/>
      <point x="253.0" y="193" type="line" smooth="yes"/>
      <point x="271.0" y="193"/>
      <point x="279.0" y="201"/>
      <point x="279.0" y="219" type="curve" smooth="yes"/>
      <point x="279.0" y="286" type="line"/>
      <point x="519.0" y="286" type="line"/>
      <point x="519.0" y="205" type="line" smooth="yes"/>
      <point x="519.0" y="187"/>
      <point x="527.0" y="179"/>
      <point x="545.0" y="179" type="curve"/>
      <point x="632.0" y="179" type="line"/>
      <point x="650.0" y="179"/>
      <point x="658.0" y="187"/>
      <point x="658.0" y="205" type="curve" smooth="yes"/>
    </contour>
  </outline>
</glyph>
<glyph name="ordmasculine" format="1">
  <advance width="882"/>
  <unicode hex="00BA"/>
  <outline>
    <contour>
      <point x="802.0" y="172" type="curve"/>
      <point x="802.0" y="547" type="line" smooth="yes"/>
      <point x="802.0" y="572"/>
      <point x="792.0" y="583"/>
      <point x="766.0" y="583" type="curve" smooth="yes"/>
      <point x="699.0" y="583" type="line" smooth="yes"/>
      <point x="673.0" y="583"/>
      <point x="663.0" y="572"/>
      <point x="663.0" y="547" type="curve" smooth="yes"/>
      <point x="663.0" y="172" type="line" smooth="yes"/>
      <point x="663.0" y="147"/>
      <point x="674.0" y="136"/>
      <point x="699.0" y="136" type="curve" smooth="yes"/>
      <point x="766.0" y="136" type="line" smooth="yes"/>
      <point x="792.0" y="136"/>
      <point x="802.0" y="147"/>
    </contour>
    <contour>
      <point x="462.0" y="583" type="curve"/>
      <point x="221.0" y="583" type="line"/>
      <point x="132.0" y="583"/>
      <point x="72.0" y="540"/>
      <point x="72.0" y="360" type="curve" smooth="yes"/>
      <point x="72.0" y="180"/>
      <point x="132.0" y="136"/>
      <point x="221.0" y="136" type="curve"/>
      <point x="462.0" y="136" type="line"/>
      <point x="550.0" y="136"/>
      <point x="610.0" y="180"/>
      <point x="610.0" y="360" type="curve" smooth="yes"/>
      <point x="610.0" y="540"/>
      <point x="550.0" y="583"/>
    </contour>
    <contour>
      <point x="437.0" y="305" type="curve"/>
      <point x="247.0" y="305" type="line"/>
      <point x="231.0" y="305"/>
      <point x="218.0" y="313"/>
      <point x="218.0" y="360" type="curve" smooth="yes"/>
      <point x="218.0" y="408"/>
      <point x="231.0" y="415"/>
      <point x="247.0" y="415" type="curve"/>
      <point x="437.0" y="415" type="line"/>
      <point x="453.0" y="415"/>
      <point x="465.0" y="408"/>
      <point x="465.0" y="360" type="curve" smooth="yes"/>
      <point x="465.0" y="313"/>
      <point x="453.0" y="305"/>
    </contour>
    <contour>
      <point x="57.0" y="125.0" type="move" name="top"/>
    </contour>
    <contour>
      <point x="595.0" y="125.0" type="move" name="bottom"/>
    </contour>
  </outline>
</glyph>
<glyph name="guillemotright" format="2">
  <advance width="812"/>
  <unicode hex="00BB"/>
  <outline>
    <contour>
      <point x="456.0" y="117" type="curve" smooth="yes"/>
      <point x="635.0" y="168" type="line" smooth="yes"/>
      <point x="718.0" y="192"/>
      <point x="762.0" y="224"/>
      <point x="762.0" y="323" type="curve" smooth="yes"/>
      <point x="762.0" y="397" type="line" smooth="yes"/>
      <point x="762.0" y="496"/>
      <point x="718.0" y="528"/>
      <point x="635.0" y="552" type="curve" smooth="yes"/>
      <point x="456.0" y="604" type="line" smooth="yes"/>
      <point x="432.0" y="611"/>
      <point x="420.0" y="599"/>
      <point x="420.0" y="573" type="curve" smooth="yes"/>
      <point x="420.0" y="456" type="line" smooth="yes"/>
      <point x="420.0" y="430"/>
      <point x="433.0" y="416"/>
      <point x="456.0" y="407" type="curve"/>
      <point x="551.0" y="379" type="line"/>
      <point x="564.0" y="374"/>
      <point x="568.0" y="372"/>
      <point x="568.0" y="360" type="curve" smooth="yes"/>
      <point x="568.0" y="348"/>
      <point x="565.0" y="346"/>
      <point x="551.0" y="341" type="curve"/>
      <point x="456.0" y="314" type="line" smooth="yes"/>
      <point x="432.0" y="307"/>
      <point x="420.0" y="291"/>
      <point x="420.0" y="265" type="curve" smooth="yes"/>
      <point x="420.0" y="148" type="line" smooth="yes"/>
      <point x="420.0" y="122"/>
      <point x="432.0" y="110"/>
    </contour>
    <contour>
      <point x="265.0" y="168" type="line"/>
      <point x="348.0" y="192"/>
      <point x="392.0" y="224"/>
      <point x="392.0" y="323" type="curve" smooth="yes"/>
      <point x="392.0" y="397" type="line" smooth="yes"/>
      <point x="392.0" y="496"/>
      <point x="349.0" y="528"/>
      <point x="265.0" y="552" type="curve"/>
      <point x="96.0" y="601" type="line"/>
      <point x="72.0" y="609"/>
      <point x="60.0" y="596"/>
      <point x="60.0" y="570" type="curve" smooth="yes"/>
      <point x="60.0" y="456" type="line" smooth="yes"/>
      <point x="60.0" y="430"/>
      <point x="73.0" y="416"/>
      <point x="96.0" y="407" type="curve"/>
      <point x="191.0" y="379" type="line" smooth="yes"/>
      <point x="204.0" y="375"/>
      <point x="208.0" y="372"/>
      <point x="208.0" y="360" type="curve" smooth="yes"/>
      <point x="208.0" y="348"/>
      <point x="205.0" y="345"/>
      <point x="191.0" y="341" type="curve" smooth="yes"/>
      <point x="96.0" y="314" type="line" smooth="yes"/>
      <point x="72.0" y="307"/>
      <point x="60.0" y="291"/>
      <point x="60.0" y="265" type="curve" smooth="yes"/>
      <point x="60.0" y="151" type="line" smooth="yes"/>
      <point x="60.0" y="125"/>
      <point x="72.0" y="113"/>
      <point x="96.0" y="120" type="curve" smooth="yes"/>
    </contour>
  </outline>
</glyph>
<glyph name="questiondown" format="1">
  <advance width="847"/>
  <unicode hex="00BF"/>
  <outline>
    <contour>
      <point x="328.0" y="232" type="line" smooth="yes"/>
      <point x="341.0" y="137"/>
      <point x="382.0" y="77"/>
      <point x="494.0" y="77" type="curve" smooth="yes"/>
      <point x="599.0" y="77" type="line" smooth="yes"/>
      <point x="713.0" y="77"/>
      <point x="775.0" y="154"/>
      <point x="775.0" y="284" type="curve" smooth="yes"/>
      <point x="775.0" y="607" type="line" smooth="yes"/>
      <point x="775.0" y="632"/>
      <point x="764.0" y="643"/>
      <point x="739.0" y="643" type="curve"/>
      <point x="618.0" y="643" type="line" smooth="yes"/>
      <point x="592.0" y="643"/>
      <point x="582.0" y="632"/>
      <point x="582.0" y="607" type="curve" smooth="yes"/>
      <point x="582.0" y="331" type="line" smooth="yes"/>
      <point x="582.0" y="314"/>
      <point x="573.0" y="304"/>
      <point x="554.0" y="304" type="curve" smooth="yes"/>
      <point x="534.0" y="304"/>
      <point x="526.0" y="311"/>
      <point x="523.0" y="331" type="curve" smooth="yes"/>
      <point x="495.0" y="530" type="line" smooth="yes"/>
      <point x="492.0" y="555"/>
      <point x="480.0" y="567"/>
      <point x="454.0" y="563" type="curve" smooth="yes"/>
      <point x="322.0" y="542" type="line" smooth="yes"/>
      <point x="297.0" y="538"/>
      <point x="288.0" y="528"/>
      <point x="291.0" y="503" type="curve" smooth="yes"/>
    </contour>
    <contour>
      <point x="55.0" y="344" type="line" smooth="yes"/>
      <point x="55.0" y="319"/>
      <point x="66.0" y="308"/>
      <point x="91.0" y="308" type="curve" smooth="yes"/>
      <point x="222.0" y="308" type="line" smooth="yes"/>
      <point x="248.0" y="308"/>
      <point x="258.0" y="319"/>
      <point x="258.0" y="344" type="curve" smooth="yes"/>
      <point x="258.0" y="527" type="line" smooth="yes"/>
      <point x="258.0" y="553"/>
      <point x="248.0" y="563"/>
      <point x="222.0" y="563" type="curve" smooth="yes"/>
      <point x="91.0" y="563" type="line" smooth="yes"/>
      <point x="66.0" y="563"/>
      <point x="55.0" y="553"/>
      <point x="55.0" y="527" type="curve" smooth="yes"/>
    </contour>
  </outline>
</glyph>
<glyph name="Aring" format="2">
  <advance width="1011"/>
  <unicode hex="00C5"/>
  <outline>
    <contour>
      <point x="908.0" y="59" type="line" smooth="yes"/>
      <point x="933.0" y="59"/>
      <point x="944.0" y="70"/>
      <point x="944.0" y="95" type="curve" smooth="yes"/>
      <point x="944.0" y="241" type="line" smooth="yes"/>
      <point x="944.0" y="266"/>
      <point x="933.0" y="277"/>
      <point x="908.0" y="277" type="curve" smooth="yes"/>
      <point x="788.0" y="277" type="line"/>
      <point x="788.0" y="435" type="line"/>
      <point x="908.0" y="435" type="line" smooth="yes"/>
      <point x="933.0" y="435"/>
      <point x="944.0" y="446"/>
      <point x="944.0" y="471" type="curve" smooth="yes"/>
      <point x="944.0" y="625" type="line" smooth="yes"/>
      <point x="944.0" y="651"/>
      <point x="933.0" y="661"/>
      <point x="908.0" y="661" type="curve" smooth="yes"/>
      <point x="674.0" y="661" type="line" smooth="yes"/>
      <point x="615.0" y="661"/>
      <point x="574.0" y="651"/>
      <point x="524.0" y="632" type="curve"/>
      <point x="351.0" y="572" type="line"/>
      <point x="330.0" y="564"/>
      <point x="319.0" y="554"/>
      <point x="314.0" y="537" type="curve"/>
      <point x="289.0" y="567"/>
      <point x="254.0" y="577"/>
      <point x="213.0" y="577" type="curve" smooth="yes"/>
      <point x="155.0" y="577" type="line" smooth="yes"/>
      <point x="70.0" y="577"/>
      <point x="12.0" y="534"/>
      <point x="12.0" y="360" type="curve" smooth="yes"/>
      <point x="12.0" y="186"/>
      <point x="70.0" y="143"/>
      <point x="155.0" y="143" type="curve" smooth="yes"/>
      <point x="213.0" y="143" type="line" smooth="yes"/>
      <point x="254.0" y="143"/>
      <point x="289.0" y="153"/>
      <point x="314.0" y="183" type="curve"/>
      <point x="319.0" y="167"/>
      <point x="331.0" y="157"/>
      <point x="351.0" y="148" type="curve"/>
      <point x="524.0" y="88" type="line" smooth="yes"/>
      <point x="574.0" y="69"/>
      <point x="615.0" y="59"/>
      <point x="674.0" y="59" type="curve" smooth="yes"/>
    </contour>
    <contour>
      <point x="470.0" y="329" type="line" smooth="yes"/>
      <point x="457.0" y="334"/>
      <point x="453.0" y="337"/>
      <point x="453.0" y="348" type="curve" smooth="yes"/>
      <point x="453.0" y="365" type="line" smooth="yes"/>
      <point x="453.0" y="376"/>
      <point x="457.0" y="379"/>
      <point x="470.0" y="384" type="curve" smooth="yes"/>
      <point x="606.0" y="426" type="line"/>
      <point x="606.0" y="286" type="line"/>
    </contour>
    <contour>
      <point x="220.0" y="420" type="line" smooth="yes"/>
      <point x="249.0" y="420"/>
      <point x="263.0" y="411"/>
      <point x="263.0" y="361" type="curve" smooth="yes"/>
      <point x="263.0" y="312"/>
      <point x="249.0" y="304"/>
      <point x="220.0" y="304" type="curve" smooth="yes"/>
      <point x="185.0" y="304" type="line" smooth="yes"/>
      <point x="159.0" y="304"/>
      <point x="145.0" y="312"/>
      <point x="145.0" y="361" type="curve" smooth="yes"/>
      <point x="145.0" y="411"/>
      <point x="159.0" y="420"/>
      <point x="185.0" y="420" type="curve" smooth="yes"/>
    </contour>
  </outline>
</glyph>
<glyph name="Aring" format="1">
  <advance width="1011"/>
  <unicode hex="00C5"/>
  <outline>
    <contour>
      <point x="908.0" y="59" type="line" smooth="yes"/>
      <point x="933.0" y="59"/>
      <point x="944.0" y="70"/>
      <point x="944.0" y="95" type="curve" smooth="yes"/>
      <point x="944.0" y="241" type="line" smooth="yes"/>
      <point x="944.0" y="266"/>
      <point x="933.0" y="277"/>
      <point x="908.0" y="277" type="curve" smooth="yes"/>
      <point x="788.0" y="277" type="line"/>
      <point x="788.0" y="435" type="line"/>
      <point x="908.0" y="435" type="line" smooth="yes"/>
      <point x="933.0" y="435"/>
      <point x="944.0" y="446"/>
      <point x="944.0" y="471" type="curve" smooth="yes"/>
      <point x="944.0" y="625" type="line" smooth="yes"/>
      <point x="944.0" y="651"/>
      <point x="933.0" y="661"/>
      <point x="908.0" y="661" type="curve" smooth="yes"/>
      <point x="674.0" y="661" type="line" smooth="yes"/>
      <point x="615.0" y="661"/>
      <point x="574.0" y="651"/>
      <point x="524.0" y="632" type="curve"/>
      <point x="351.0" y="572" type="line"/>
      <point x="330.0" y="564"/>
      <point x="319.0" y="554"/>
      <point x="314.0" y="537" type="curve"/>
      <point x="289.0" y="567"/>
      <point x="254.0" y="577"/>
      <point x="213.0" y="577" type="curve" smooth="yes"/>
      <point x="155.0" y="577" type="line" smooth="yes"/>
      <point x="70.0" y="577"/>
      <point x="12.0" y="534"/>
      <point x="12.0" y="360" type="curve" smooth="yes"/>
      <point x="12.0" y="186"/>
      <point x="70.0" y="143"/>
      <point x="155.0" y="143" type="curve" smooth="yes"/>
      <point x="213.0" y="143" type="line" smooth="yes"/>
      <point x="254.0" y="143"/>
      <point x="289.0" y="153"/>
      <point x="314.0" y="183" type="curve"/>
      <point x="319.0" y="167"/>
      <point x="331.0" y="157"/>
      <point x="351.0" y="148" type="curve"/>
      <point x="524.0" y="88" type="line" smooth="yes"/>
      <point x="574.0" y="69"/>
      <point x="615.0" y="59"/>
      <point x="674.0" y="59" type="curve" smooth="yes"/>
    </contour>
    <contour>
      <point x="470.0" y="329" type="line" smooth="yes"/>
      <point x="457.0" y="334"/>
      <point x="453.0" y="337"/>
      <point x="453.0" y="348" type="curve" smooth="yes"/>
      <point x="453.0" y="365" type="line" smooth="yes"/>
      <point x="453.0" y="376"/>
      <point x="457.0" y="379"/>
      <point x="470.0" y="384" type="curve" smooth="yes"/>
      <point x="606.0" y="426" type="line"/>
      <point x="606.0" y="286" type="line"/>
    </contour>
    <contour>
      <point x="220.0" y="420" type="line" smooth="yes"/>
      <point x="249.0" y="420"/>
      <point x="263.0" y="411"/>
      <point x="263.0" y="361" type="curve" smooth="yes"/>
      <point x="263.0" y="312"/>
      <point x="249.0" y="304"/>
      <point x="220.0" y="304" type="curve" smooth="yes"/>
      <point x="185.0" y="304" type="line" smooth="yes"/>
      <point x="159.0" y="304"/>
      <point x="145.0" y="312"/>
      <point x="145.0" y="361" type="curve" smooth="yes"/>
      <point x="145.0" y="411"/>
      <point x="159.0" y="420"/>
      <point x="185.0" y="420" type="curve" smooth="yes"/>
    </contour>
  </outline>
</glyph>
<glyph name="AE" format="1">
  <advance width="872"/>
  <unicode hex="00C6"/>
  <outline>
    <contour>
      <point x="278.0" y="302" type="line" smooth="yes"/>
      <point x="265.0" y="307"/>
      <point x="261.0" y="310"/>
      <point x="261.0" y="321" type="curve" smooth="yes"/>
      <point x="261.0" y="330" type="line"/>
      <point x="434.0" y="330" type="line"/>
      <point x="434.0" y="243" type="line"/>
    </contour>
    <contour>
      <point x="792.0" y="65" type="curve" smooth="yes"/>
      <point x="792.0" y="196" type="line" smooth="yes"/>
      <point x="792.0" y="221"/>
      <point x="781.0" y="232"/>
      <point x="756.0" y="232" type="curve" smooth="yes"/>
      <point x="616.0" y="232" type="line"/>
      <point x="616.0" y="330" type="line"/>
      <point x="756.0" y="330" type="line"/>
      <point x="781.0" y="330"/>
      <point x="792.0" y="341"/>
      <point x="792.0" y="366" type="curve" smooth="yes"/>
      <point x="792.0" y="635" type="line" smooth="yes"/>
      <point x="792.0" y="660"/>
      <point x="781.0" y="671"/>
      <point x="756.0" y="671" type="curve" smooth="yes"/>
      <point x="639.0" y="671" type="line" smooth="yes"/>
      <point x="614.0" y="671"/>
      <point x="603.0" y="660"/>
      <point x="603.0" y="635" type="curve" smooth="yes"/>
      <point x="603.0" y="532" type="line"/>
      <point x="517.0" y="532" type="line"/>
      <point x="517.0" y="634" type="line" smooth="yes"/>
      <point x="517.0" y="659"/>
      <point x="506.0" y="670"/>
      <point x="481.0" y="670" type="curve" smooth="yes"/>
      <point x="374.0" y="670" type="line" smooth="yes"/>
      <point x="348.0" y="670"/>
      <point x="338.0" y="659"/>
      <point x="338.0" y="634" type="curve" smooth="yes"/>
      <point x="338.0" y="532" type="line"/>
      <point x="261.0" y="532" type="line"/>
      <point x="261.0" y="635" type="line" smooth="yes"/>
      <point x="261.0" y="660"/>
      <point x="250.0" y="671"/>
      <point x="225.0" y="671" type="curve" smooth="yes"/>
      <point x="108.0" y="671" type="line" smooth="yes"/>
      <point x="83.0" y="671"/>
      <point x="72.0" y="660"/>
      <point x="72.0" y="635" type="curve" smooth="yes"/>
      <point x="72.0" y="215" type="line" smooth="yes"/>
      <point x="72.0" y="181"/>
      <point x="82.0" y="164"/>
      <point x="113.0" y="153" type="curve" smooth="yes"/>
      <point x="352.0" y="58" type="line" smooth="yes"/>
      <point x="402.0" y="39"/>
      <point x="443.0" y="29"/>
      <point x="502.0" y="29" type="curve" smooth="yes"/>
      <point x="756.0" y="29" type="line" smooth="yes"/>
      <point x="781.0" y="29"/>
      <point x="792.0" y="40"/>
    </contour>
  </outline>
</glyph>
<glyph name="AE" format="2">
  <advance width="872"/>
  <unicode hex="00C6"/>
  <outline>
    <contour>
      <point x="278.0" y="302" type="line" smooth="yes"/>
      <point x="265.0" y="307"/>
      <point x="261.0" y="310"/>
      <point x="261.0" y="321" type="curve" smooth="yes"/>
      <point x="261.0" y="330" type="line"/>
      <point x="434.0" y="330" type="line"/>
      <point x="434.0" y="243" type="line"/>
    </contour>
    <contour>
      <point x="792.0" y="65" type="curve" smooth="yes"/>
      <point x="792.0" y="196" type="line" smooth="yes"/>
      <point x="792.0" y="221"/>
      <point x="781.0" y="232"/>
      <point x="756.0" y="232" type="curve" smooth="yes"/>
      <point x="616.0" y="232" type="line"/>
      <point x="616.0" y="330" type="line"/>
      <point x="756.0" y="330" type="line"/>
      <point x="781.0" y="330"/>
      <point x="792.0" y="341"/>
      <point x="792.0" y="366" type="curve" smooth="yes"/>
      <point x="792.0" y="635" type="line" smooth="yes"/>
      <point x="792.0" y="660"/>
      <point x="781.0" y="671"/>
      <point x="756.0" y="671" type="curve" smooth="yes"/>
      <point x="639.0" y="671" type="line" smooth="yes"/>
      <point x="614.0" y="671"/>
      <point x="603.0" y="660"/>
      <point x="603.0" y="635" type="curve" smooth="yes"/>
      <point x="603.0" y="532" type="line"/>
      <point x="517.0" y="532" type="line"/>
      <point x="517.0" y="634" type="line" smooth="yes"/>
      <point x="517.0" y="659"/>
      <point x="506.0" y="670"/>
      <point x="481.0" y="670" type="curve" smooth="yes"/>
      <point x="374.0" y="670" type="line" smooth="yes"/>
      <point x="348.0" y="670"/>
      <point x="338.0" y="659"/>
      <point x="338.0" y="634" type="curve" smooth="yes"/>
      <point x="338.0" y="532" type="line"/>
      <point x="261.0" y="532" type="line"/>
      <point x="261.0" y="635" type="line" smooth="yes"/>
      <point x="261.0" y="660"/>
      <point x="250.0" y="671"/>
      <point x="225.0" y="671" type="curve" smooth="yes"/>
      <point x="108.0" y="671" type="line" smooth="yes"/>
      <point x="83.0" y="671"/>
      <point x="72.0" y="660"/>
      <point x="72.0" y="635" type="curve" smooth="yes"/>
      <point x="72.0" y="215" type="line" smooth="yes"/>
      <point x="72.0" y="181"/>
      <point x="82.0" y="164"/>
      <point x="113.0" y="153" type="curve" smooth="yes"/>
      <point x="352.0" y="58" type="line" smooth="yes"/>
      <point x="402.0" y="39"/>
      <point x="443.0" y="29"/>
      <point x="502.0" y="29" type="curve" smooth="yes"/>
      <point x="756.0" y="29" type="line" smooth="yes"/>
      <point x="781.0" y="29"/>
      <point x="792.0" y="40"/>
    </contour>
  </outline>
</glyph>
<glyph name="Eth" format="2">
  <advance width="880"/>
  <unicode hex="00D0"/>
  <outline>
    <contour>
      <point x="271.0" y="284" type="line"/>
      <point x="271.0" y="387" type="line" smooth="yes"/>
      <point x="271.0" y="427"/>
      <point x="293.0" y="434"/>
      <point x="319.0" y="434" type="curve" smooth="yes"/>
      <point x="562.0" y="434" type="line" smooth="yes"/>
      <point x="589.0" y="434"/>
      <point x="611.0" y="427"/>
      <point x="611.0" y="387" type="curve" smooth="yes"/>
      <point x="611.0" y="284" type="line"/>
      <point x="535.0" y="284" type="line"/>
      <point x="535.0" y="326" type="line" smooth="yes"/>
      <point x="535.0" y="351"/>
      <point x="525.0" y="362"/>
      <point x="499.0" y="362" type="curve" smooth="yes"/>
      <point x="392.0" y="362" type="line" smooth="yes"/>
      <point x="366.0" y="362"/>
      <point x="356.0" y="351"/>
      <point x="356.0" y="326" type="curve" smooth="yes"/>
      <point x="356.0" y="284" type="line"/>
    </contour>
    <contour>
      <point x="535.0" y="37" type="curve"/>
      <point x="535.0" y="60" type="line"/>
      <point x="764.0" y="60" type="line"/>
      <point x="789.0" y="60"/>
      <point x="800.0" y="71"/>
      <point x="800.0" y="96" type="curve" smooth="yes"/>
      <point x="800.0" y="414" type="line" smooth="yes"/>
      <point x="800.0" y="603"/>
      <point x="717.0" y="660"/>
      <point x="596.0" y="660" type="curve" smooth="yes"/>
      <point x="284.0" y="660" type="line" smooth="yes"/>
      <point x="163.0" y="660"/>
      <point x="80.0" y="603"/>
      <point x="80.0" y="414" type="curve" smooth="yes"/>
      <point x="80.0" y="96" type="line" smooth="yes"/>
      <point x="80.0" y="71"/>
      <point x="91.0" y="60"/>
      <point x="116.0" y="60" type="curve"/>
      <point x="356.0" y="60" type="line"/>
      <point x="356.0" y="37" type="line" smooth="yes"/>
      <point x="356.0" y="12"/>
      <point x="367.0" y="1"/>
      <point x="392.0" y="1" type="curve" smooth="yes"/>
      <point x="499.0" y="1" type="line" smooth="yes"/>
      <point x="525.0" y="1"/>
      <point x="535.0" y="12"/>
    </contour>
  </outline>
</glyph>
<glyph name="multiply" format="2">
  <advance width="692"/>
  <unicode hex="00D7"/>
  <outline>
    <contour>
      <point x="207.0" y="90" type="curve"/>
      <point x="346.0" y="229" type="line"/>
      <point x="485.0" y="90" type="line" smooth="yes"/>
      <point x="502.0" y="72"/>
      <point x="518.0" y="72"/>
      <point x="536.0" y="90" type="curve" smooth="yes"/>
      <point x="616.0" y="170" type="line" smooth="yes"/>
      <point x="635.0" y="189"/>
      <point x="634.0" y="204"/>
      <point x="616.0" y="221" type="curve"/>
      <point x="477.0" y="360" type="line"/>
      <point x="616.0" y="499" type="line" smooth="yes"/>
      <point x="634.0" y="516"/>
      <point x="635.0" y="531"/>
      <point x="616.0" y="550" type="curve" smooth="yes"/>
      <point x="536.0" y="630" type="line" smooth="yes"/>
      <point x="517.0" y="649"/>
      <point x="502.0" y="648"/>
      <point x="485.0" y="630" type="curve" smooth="yes"/>
      <point x="346.0" y="491" type="line"/>
      <point x="207.0" y="630" type="line" smooth="yes"/>
      <point x="190.0" y="648"/>
      <point x="175.0" y="649"/>
      <point x="156.0" y="630" type="curve" smooth="yes"/>
      <point x="76.0" y="550" type="line" smooth="yes"/>
      <point x="57.0" y="531"/>
      <point x="58.0" y="516"/>
      <point x="76.0" y="499" type="curve" smooth="yes"/>
      <point x="215.0" y="360" type="line"/>
      <point x="76.0" y="221" type="line" smooth="yes"/>
      <point x="58.0" y="204"/>
      <point x="58.0" y="188"/>
      <point x="76.0" y="170" type="curve" smooth="yes"/>
      <point x="156.0" y="90" type="line" smooth="yes"/>
      <point x="175.0" y="71"/>
      <point x="190.0" y="72"/>
    </contour>
  </outline>
</glyph>
<glyph name="Oslash" format="1">
  <advance width="884"/>
  <unicode hex="00D8"/>
  <outline>
    <contour>
      <point x="577.0" y="454" type="line" smooth="yes"/>
      <point x="610.0" y="454"/>
      <point x="634.0" y="441"/>
      <point x="634.0" y="360" type="curve" smooth="yes"/>
      <point x="634.0" y="355"/>
      <point x="634.0" y="350"/>
      <point x="634.0" y="346" type="curve"/>
      <point x="379.0" y="454" type="line"/>
    </contour>
    <contour>
      <point x="308.0" y="266" type="line" smooth="yes"/>
      <point x="276.0" y="266"/>
      <point x="252.0" y="280"/>
      <point x="252.0" y="360" type="curve" smooth="yes"/>
      <point x="252.0" y="364"/>
      <point x="252.0" y="369"/>
      <point x="252.0" y="372" type="curve"/>
      <point x="502.0" y="266" type="line"/>
    </contour>
    <contour>
      <point x="836.0" y="99" type="line"/>
      <point x="858.0" y="87"/>
      <point x="872.0" y="100"/>
      <point x="872.0" y="125" type="curve" smooth="yes"/>
      <point x="872.0" y="240" type="line" smooth="yes"/>
      <point x="872.0" y="265"/>
      <point x="858.0" y="274"/>
      <point x="836.0" y="286" type="curve"/>
      <point x="815.0" y="295" type="line"/>
      <point x="816.0" y="315"/>
      <point x="817.0" y="337"/>
      <point x="817.0" y="360" type="curve" smooth="yes"/>
      <point x="817.0" y="600"/>
      <point x="735.0" y="660"/>
      <point x="613.0" y="660" type="curve"/>
      <point x="272.0" y="660" type="line" smooth="yes"/>
      <point x="207.0" y="660"/>
      <point x="153.0" y="643"/>
      <point x="117.0" y="591" type="curve"/>
      <point x="48.0" y="620" type="line"/>
      <point x="26.0" y="632"/>
      <point x="12.0" y="619"/>
      <point x="12.0" y="594" type="curve" smooth="yes"/>
      <point x="12.0" y="479" type="line" smooth="yes"/>
      <point x="12.0" y="454"/>
      <point x="26.0" y="445"/>
      <point x="48.0" y="433" type="curve"/>
      <point x="69.0" y="424" type="line"/>
      <point x="68.0" y="404"/>
      <point x="67.0" y="383"/>
      <point x="67.0" y="360" type="curve" smooth="yes"/>
      <point x="67.0" y="120"/>
      <point x="150.0" y="59"/>
      <point x="272.0" y="59" type="curve" smooth="yes"/>
      <point x="613.0" y="59" type="line" smooth="yes"/>
      <point x="678.0" y="59"/>
      <point x="731.0" y="76"/>
      <point x="767.0" y="128" type="curve"/>
    </contour>
  </outline>
</glyph>
<glyph name="divide" format="1">
  <advance width="738"/>
  <unicode hex="00F7"/>
  <outline>
    <contour>
      <point x="452.0" y="99" type="curve"/>
      <point x="452.0" y="621" type="line" smooth="yes"/>
      <point x="452.0" y="646"/>
      <point x="442.0" y="657"/>
      <point x="416.0" y="657" type="curve" smooth="yes"/>
      <point x="322.0" y="657" type="line" smooth="yes"/>
      <point x="296.0" y="657"/>
      <point x="286.0" y="646"/>
      <point x="286.0" y="621" type="curve" smooth="yes"/>
      <point x="286.0" y="99" type="line" smooth="yes"/>
      <point x="286.0" y="74"/>
      <point x="297.0" y="63"/>
      <point x="322.0" y="63" type="curve" smooth="yes"/>
      <point x="416.0" y="63" type="line" smooth="yes"/>
      <point x="442.0" y="63"/>
      <point x="452.0" y="74"/>
    </contour>
    <contour>
      <point x="687.0" y="441" type="line" smooth="yes"/>
      <point x="687.0" y="466"/>
      <point x="676.0" y="477"/>
      <point x="651.0" y="477" type="curve" smooth="yes"/>
      <point x="528.0" y="477" type="line" smooth="yes"/>
      <point x="502.0" y="477"/>
      <point x="492.0" y="466"/>
      <point x="492.0" y="441" type="curve" smooth="yes"/>
      <point x="492.0" y="279" type="line" smooth="yes"/>
      <point x="492.0" y="254"/>
      <point x="502.0" y="243"/>
      <point x="528.0" y="243" type="curve" smooth="yes"/>
      <point x="651.0" y="243" type="line" smooth="yes"/>
      <point x="676.0" y="243"/>
      <point x="687.0" y="254"/>
      <point x="687.0" y="279" type="curve" smooth="yes"/>
    </contour>
    <contour>
      <point x="246.0" y="441" type="line" smooth="yes"/>
      <point x="246.0" y="466"/>
      <point x="235.0" y="477"/>
      <point x="210.0" y="477" type="curve" smooth="yes"/>
      <point x="87.0" y="477" type="line" smooth="yes"/>
      <point x="61.0" y="477"/>
      <point x="51.0" y="466"/>
      <point x="51.0" y="441" type="curve" smooth="yes"/>
      <point x="51.0" y="279" type="line" smooth="yes"/>
      <point x="51.0" y="254"/>
      <point x="61.0" y="243"/>
      <point x="87.0" y="243" type="curve"/>
      <point x="210.0" y="243" type="line"/>
      <point x="235.0" y="243"/>
      <point x="246.0" y="254"/>
      <point x="246.0" y="279" type="curve" smooth="yes"/>
    </contour>
  </outline>
</glyph>
<glyph name="Hbar" format="2">
  <advance width="880"/>
  <unicode hex="0126"/>
  <outline>
    <contour>
      <point x="453.0" y="436" type="line"/>
      <point x="453.0" y="283" type="line"/>
      <point x="375.0" y="283" type="line"/>
      <point x="375.0" y="436" type="line"/>
    </contour>
    <contour>
      <point x="375.0" y="46" type="curve"/>
      <point x="375.0" y="59" type="line"/>
      <point x="764.0" y="59" type="line" smooth="yes"/>
      <point x="789.0" y="59"/>
      <point x="800.0" y="70"/>
      <point x="800.0" y="95" type="curve" smooth="yes"/>
      <point x="800.0" y="247" type="line" smooth="yes"/>
      <point x="800.0" y="272"/>
      <point x="789.0" y="283"/>
      <point x="764.0" y="283" type="curve" smooth="yes"/>
      <point x="652.0" y="283" type="line"/>
      <point x="652.0" y="436" type="line"/>
      <point x="764.0" y="436" type="line" smooth="yes"/>
      <point x="789.0" y="436"/>
      <point x="800.0" y="447"/>
      <point x="800.0" y="472" type="curve" smooth="yes"/>
      <point x="800.0" y="624" type="line" smooth="yes"/>
      <point x="800.0" y="649"/>
      <point x="789.0" y="660"/>
      <point x="764.0" y="660" type="curve" smooth="yes"/>
      <point x="375.0" y="660" type="line"/>
      <point x="375.0" y="673" type="line" smooth="yes"/>
      <point x="375.0" y="698"/>
      <point x="365.0" y="709"/>
      <point x="339.0" y="709" type="curve" smooth="yes"/>
      <point x="242.0" y="709" type="line" smooth="yes"/>
      <point x="216.0" y="709"/>
      <point x="206.0" y="698"/>
      <point x="206.0" y="673" type="curve" smooth="yes"/>
      <point x="206.0" y="660" type="line"/>
      <point x="116.0" y="660" type="line" smooth="yes"/>
      <point x="91.0" y="660"/>
      <point x="80.0" y="649"/>
      <point x="80.0" y="624" type="curve" smooth="yes"/>
      <point x="80.0" y="472" type="line" smooth="yes"/>
      <point x="80.0" y="447"/>
      <point x="91.0" y="436"/>
      <point x="116.0" y="436" type="curve" smooth="yes"/>
      <point x="206.0" y="436" type="line"/>
      <point x="206.0" y="283" type="line"/>
      <point x="116.0" y="283" type="line" smooth="yes"/>
      <point x="91.0" y="283"/>
      <point x="80.0" y="272"/>
      <point x="80.0" y="247" type="curve" smooth="yes"/>
      <point x="80.0" y="95" type="line" smooth="yes"/>
      <point x="80.0" y="70"/>
      <point x="91.0" y="59"/>
      <point x="116.0" y="59" type="curve" smooth="yes"/>
      <point x="206.0" y="59" type="line"/>
      <point x="206.0" y="46" type="line" smooth="yes"/>
      <point x="206.0" y="21"/>
      <point x="217.0" y="10"/>
      <point x="242.0" y="10" type="curve" smooth="yes"/>
      <point x="339.0" y="10" type="line" smooth="yes"/>
      <point x="365.0" y="10"/>
      <point x="375.0" y="21"/>
    </contour>
  </outline>
</glyph>
<glyph name="IJ" format="1">
  <advance width="859"/>
  <unicode hex="0132"/>
  <outline>
    <contour>
      <point x="751.0" y="60" type="line" smooth="yes"/>
      <point x="776.0" y="60"/>
      <point x="787.0" y="71"/>
      <point x="787.0" y="96" type="curve"/>
      <point x="787.0" y="447" type="line" smooth="yes"/>
      <point x="787.0" y="579"/>
      <point x="709.0" y="660"/>
      <point x="577.0" y="660" type="curve" smooth="yes"/>
      <point x="103.0" y="660" type="line" smooth="yes"/>
      <point x="78.0" y="660"/>
      <point x="67.0" y="649"/>
      <point x="67.0" y="624" type="curve" smooth="yes"/>
      <point x="67.0" y="469" type="line" smooth="yes"/>
      <point x="67.0" y="444"/>
      <point x="78.0" y="433"/>
      <point x="103.0" y="433" type="curve" smooth="yes"/>
      <point x="527.0" y="433" type="line" smooth="yes"/>
      <point x="575.0" y="433"/>
      <point x="594.0" y="408"/>
      <point x="594.0" y="360" type="curve" smooth="yes"/>
      <point x="594.0" y="96" type="line" smooth="yes"/>
      <point x="594.0" y="71"/>
      <point x="605.0" y="60"/>
      <point x="630.0" y="60" type="curve" smooth="yes"/>
    </contour>
    <contour>
      <point x="457.0" y="251" type="line" smooth="yes"/>
      <point x="457.0" y="276"/>
      <point x="446.0" y="287"/>
      <point x="421.0" y="287" type="curve" smooth="yes"/>
      <point x="103.0" y="287" type="line" smooth="yes"/>
      <point x="78.0" y="287"/>
      <point x="67.0" y="276"/>
      <point x="67.0" y="251" type="curve" smooth="yes"/>
      <point x="67.0" y="96" type="line" smooth="yes"/>
      <point x="67.0" y="71"/>
      <point x="78.0" y="60"/>
      <point x="103.0" y="60" type="curve" smooth="yes"/>
      <point x="421.0" y="60" type="line" smooth="yes"/>
      <point x="446.0" y="60"/>
      <point x="457.0" y="71"/>
      <point x="457.0" y="96" type="curve" smooth="yes"/>
    </contour>
  </outline>
</glyph>
<glyph name="IJ" format="2">
  <advance width="859"/>
  <unicode hex="0132"/>
  <guideline x="833" y="498" angle="90.0" identifier="ViPE8wlGtp"/>
  <outline>
    <contour>
      <point x="751.0" y="60" type="line" smooth="yes"/>
      <point x="776.0" y="60"/>
      <point x="787.0" y="71"/>
      <point x="787.0" y="96" type="curve"/>
      <point x="787.0" y="447" type="line" smooth="yes"/>
      <point x="787.0" y="579"/>
      <point x="709.0" y="660"/>
      <point x="577.0" y="660" type="curve" smooth="yes"/>
      <point x="103.0" y="660" type="line" smooth="yes"/>
      <point x="78.0" y="660"/>
      <point x="67.0" y="649"/>
      <point x="67.0" y="624" type="curve" smooth="yes"/>
      <point x="67.0" y="469" type="line" smooth="yes"/>
      <point x="67.0" y="444"/>
      <point x="78.0" y="433"/>
      <point x="103.0" y="433" type="curve" smooth="yes"/>
      <point x="527.0" y="433" type="line" smooth="yes"/>
      <point x="575.0" y="433"/>
      <point x="594.0" y="408"/>
      <point x="594.0" y="360" type="curve" smooth="yes"/>
      <point x="594.0" y="96" type="line" smooth="yes"/>
      <point x="594.0" y="71"/>
      <point x="605.0" y="60"/>
      <point x="630.0" y="60" type="curve" smooth="yes"/>
    </contour>
    <contour>
      <point x="457.0" y="251" type="line" smooth="yes"/>
      <point x="457.0" y="276"/>
      <point x="446.0" y="287"/>
      <point x="421.0" y="287" type="curve" smooth="yes"/>
      <point x="103.0" y="287" type="line" smooth="yes"/>
      <point x="78.0" y="287"/>
      <point x="67.0" y="276"/>
      <point x="67.0" y="251" type="curve" smooth="yes"/>
      <point x="67.0" y="96" type="line" smooth="yes"/>
      <point x="67.0" y="71"/>
      <point x="78.0" y="60"/>
      <point x="103.0" y="60" type="curve" smooth="yes"/>
      <point x="421.0" y="60" type="line" smooth="yes"/>
      <point x="446.0" y="60"/>
      <point x="457.0" y="71"/>
      <point x="457.0" y="96" type="curve" smooth="yes"/>
    </contour>
  </outline>
</glyph>
<glyph name="Ldot" format="1">
  <advance width="1012"/>
  <unicode hex="013F"/>
  <outline>
    <contour>
      <point x="995.0" y="456" type="line" smooth="yes"/>
      <point x="995.0" y="481"/>
      <point x="984.0" y="492"/>
      <point x="959.0" y="492" type="curve" smooth="yes"/>
      <point x="832.0" y="492" type="line" smooth="yes"/>
      <point x="807.0" y="492"/>
      <point x="796.0" y="481"/>
      <point x="796.0" y="456" type="curve" smooth="yes"/>
      <point x="796.0" y="298" type="line" smooth="yes"/>
      <point x="796.0" y="273"/>
      <point x="807.0" y="262"/>
      <point x="832.0" y="262" type="curve" smooth="yes"/>
      <point x="959.0" y="262" type="line" smooth="yes"/>
      <point x="984.0" y="262"/>
      <point x="995.0" y="273"/>
      <point x="995.0" y="298" type="curve" smooth="yes"/>
    </contour>
    <component base="L.s"/>
  </outline>
</glyph>
<glyph name="Lslash" format="2">
  <advance width="855"/>
  <unicode hex="0141"/>
  <outline>
    <contour>
      <point x="492.0" y="38" type="curve" smooth="yes"/>
      <point x="488.0" y="61" type="line"/>
      <point x="739.0" y="61" type="line"/>
      <point x="764.0" y="61"/>
      <point x="775.0" y="72"/>
      <point x="775.0" y="97" type="curve" smooth="yes"/>
      <point x="775.0" y="625" type="line" smooth="yes"/>
      <point x="775.0" y="650"/>
      <point x="764.0" y="661"/>
      <point x="739.0" y="661" type="curve" smooth="yes"/>
      <point x="424.0" y="661" type="line" smooth="yes"/>
      <point x="399.0" y="661"/>
      <point x="388.0" y="650"/>
      <point x="388.0" y="625" type="curve" smooth="yes"/>
      <point x="388.0" y="480" type="line" smooth="yes"/>
      <point x="388.0" y="455"/>
      <point x="399.0" y="444"/>
      <point x="424.0" y="444" type="curve" smooth="yes"/>
      <point x="586.0" y="444" type="line"/>
      <point x="586.0" y="288" type="line"/>
      <point x="451.0" y="288" type="line"/>
      <point x="442.0" y="346" type="line" smooth="yes"/>
      <point x="438.0" y="371"/>
      <point x="432.0" y="382"/>
      <point x="406.0" y="382" type="curve" smooth="yes"/>
      <point x="299.0" y="382" type="line" smooth="yes"/>
      <point x="273.0" y="382"/>
      <point x="259.0" y="371"/>
      <point x="263.0" y="346" type="curve" smooth="yes"/>
      <point x="272.0" y="288" type="line"/>
      <point x="91.0" y="288" type="line" smooth="yes"/>
      <point x="66.0" y="288"/>
      <point x="55.0" y="277"/>
      <point x="55.0" y="252" type="curve" smooth="yes"/>
      <point x="55.0" y="97" type="line" smooth="yes"/>
      <point x="55.0" y="72"/>
      <point x="66.0" y="61"/>
      <point x="91.0" y="61" type="curve"/>
      <point x="309.0" y="61" type="line"/>
      <point x="313.0" y="38" type="line" smooth="yes"/>
      <point x="317.0" y="13"/>
      <point x="324.0" y="2"/>
      <point x="349.0" y="2" type="curve" smooth="yes"/>
      <point x="456.0" y="2" type="line" smooth="yes"/>
      <point x="482.0" y="2"/>
      <point x="496.0" y="13"/>
    </contour>
  </outline>
</glyph>
